<svg width="21" height="21" viewBox="0 0 21 21" fill="none" xmlns="http://www.w3.org/2000/svg">
<g clip-path="url(#clip0_1775_3489)">
<path d="M10.4034 20.8067C16.149 20.8067 20.8067 16.149 20.8067 10.4034C20.8067 4.65774 16.149 0 10.4034 0C4.65774 0 0 4.65774 0 10.4034C0 16.149 4.65774 20.8067 10.4034 20.8067Z" fill="url(#paint0_linear_1775_3489)"/>
<path d="M11.4889 9.12186V7.89322H14.2842V5.95508H6.52645V7.89322H9.32912V9.12186C6.98108 9.23526 5.21875 9.70653 5.21875 10.2662C5.21875 10.8259 6.979 11.2993 9.32912 11.4106V15.4679H11.4889V11.4106C13.8369 11.2982 15.5992 10.827 15.5992 10.2662C15.5992 9.70549 13.8421 9.23526 11.4889 9.12186ZM10.409 11.0527C7.8664 11.0527 5.8055 10.6595 5.8055 10.1861C5.8055 9.77935 7.3067 9.43708 9.32703 9.34553V10.7333C9.67451 10.7489 10.0355 10.7583 10.4069 10.7583C10.7783 10.7583 11.1414 10.7489 11.4868 10.7333V9.34553C13.5071 9.43708 15.0083 9.77935 15.0083 10.1861C15.0125 10.6647 12.9516 11.0527 10.409 11.0527Z" fill="white"/>
</g>
<defs>
<linearGradient id="paint0_linear_1775_3489" x1="10.4034" y1="20.8067" x2="10.4034" y2="0" gradientUnits="userSpaceOnUse">
<stop stop-color="#17755D"/>
<stop offset="1" stop-color="#68CCB2"/>
</linearGradient>
<clipPath id="clip0_1775_3489">
<rect width="20.8067" height="20.8067" fill="white"/>
</clipPath>
</defs>
</svg>
