<svg width="19" height="21" viewBox="0 0 19 21" fill="none" xmlns="http://www.w3.org/2000/svg">
<rect width="18.9961" height="20.3726" rx="2.79354" fill="#0080ED"/>
<path d="M11.3306 4.86296C11.3306 4.58187 11.5584 4.354 11.8395 4.354H14.1387V6.43719C14.1387 6.71828 13.9109 6.94615 13.6298 6.94615H11.3306V4.86296Z" fill="white"/>
<path d="M8.09619 4.86296C8.09619 4.58187 8.32406 4.354 8.60515 4.354H10.9044V6.43719C10.9044 6.71828 10.6765 6.94615 10.3954 6.94615H8.09619V4.86296Z" fill="white"/>
<path d="M11.3306 7.8864C11.3306 7.60531 11.5584 7.37744 11.8395 7.37744H14.1387V9.46063C14.1387 9.74172 13.9109 9.96959 13.6298 9.96959H11.3306V7.8864Z" fill="white"/>
<path d="M8.09619 10.9098C8.09619 10.6287 8.32406 10.4009 8.60515 10.4009H10.9044V12.4841C10.9044 12.7652 10.6765 12.993 10.3954 12.993H8.09619V10.9098Z" fill="white"/>
<path d="M4.854 4.86296C4.854 4.58187 5.08187 4.354 5.36296 4.354H7.66216V6.43719C7.66216 6.71828 7.4343 6.94615 7.1532 6.94615H4.854V4.86296Z" fill="white"/>
<path d="M4.854 7.8864C4.854 7.60531 5.08187 7.37744 5.36296 7.37744H7.66216V9.46063C7.66216 9.74172 7.4343 9.96959 7.1532 9.96959H4.854V7.8864Z" fill="white"/>
<path d="M4.854 13.9352C4.854 13.6541 5.08187 13.4263 5.36296 13.4263H7.66216V15.5095C7.66216 15.7905 7.4343 16.0184 7.1532 16.0184H4.854V13.9352Z" fill="white"/>
<path d="M4.854 10.9098C4.854 10.6287 5.08187 10.4009 5.36296 10.4009H7.66216V12.4841C7.66216 12.7652 7.4343 12.993 7.1532 12.993H4.854V10.9098Z" fill="white"/>
</svg>
