<svg width="170" height="43" viewBox="0 0 170 43" fill="none" xmlns="http://www.w3.org/2000/svg">
<g clip-path="url(#clip0_1775_3623)">
<path d="M14.2046 4.05321C13.6771 3.97186 13.6549 3.96231 13.9031 3.92438C14.3788 3.85166 15.5019 3.95078 16.2759 4.13376C18.0829 4.56081 19.7271 5.65479 21.4821 7.59771L21.9484 8.11386L22.6154 8.00725C25.4254 7.55825 28.2841 7.9151 30.6752 9.01331C31.3329 9.31545 32.37 9.91688 32.4996 10.0714C32.5409 10.1207 32.6166 10.4378 32.6681 10.7761C32.8455 11.9466 32.7566 12.8438 32.3966 13.5139C32.2007 13.8786 32.1897 13.9941 32.3214 14.3062C32.4266 14.5552 32.7199 14.7396 33.0101 14.7391C33.6043 14.7384 34.2439 13.7833 34.5402 12.4545L34.6579 11.9267L34.891 12.1893C36.1702 13.6301 37.1746 15.595 37.3473 16.9936L37.3922 17.3584L37.1772 17.0268C36.8072 16.4564 36.4355 16.068 35.9593 15.7548C35.1012 15.1903 34.1939 14.9981 31.7908 14.8722C29.6204 14.7585 28.3921 14.5742 27.1741 14.1793C25.1019 13.5075 24.0573 12.6128 21.5957 9.40172C20.5023 7.97543 19.8265 7.1863 19.1543 6.5508C17.6268 5.10682 16.1259 4.34952 14.2046 4.05321Z" fill="#FF007A"/>
<path d="M32.9928 7.23639C33.0473 6.28063 33.1777 5.65025 33.4398 5.07454C33.5436 4.84666 33.6408 4.66016 33.6557 4.66016C33.6708 4.66016 33.6256 4.82837 33.5555 5.0339C33.365 5.59263 33.3337 6.35682 33.4649 7.24594C33.6315 8.37405 33.7264 8.53683 34.9255 9.75545C35.4881 10.327 36.1424 11.0479 36.3794 11.3574L36.8107 11.9202L36.3794 11.518C35.8521 11.0262 34.6392 10.067 34.3713 9.9299C34.1917 9.83793 34.1649 9.83952 34.0542 9.94918C33.9521 10.0502 33.9306 10.2021 33.9163 10.9199C33.8943 12.0386 33.7409 12.7566 33.3708 13.4746C33.1706 13.8629 33.1391 13.7801 33.3201 13.3417C33.4554 13.0145 33.4691 12.8706 33.4681 11.7876C33.4661 9.61164 33.2063 9.08853 31.6825 8.19239C31.2966 7.96537 30.6606 7.63797 30.2693 7.4648C29.878 7.29161 29.5671 7.14077 29.5784 7.12951C29.6216 7.0868 31.1075 7.51803 31.7056 7.74677C32.5952 8.08704 32.742 8.13113 32.8502 8.09008C32.9225 8.06257 32.9576 7.85285 32.9928 7.23639Z" fill="#FF007A"/>
<path d="M15.2343 10.9597C14.1635 9.49401 13.501 7.24672 13.6444 5.56675L13.6888 5.04688L13.9325 5.0911C14.3902 5.17411 15.1794 5.46617 15.549 5.68935C16.5631 6.30172 17.002 7.10795 17.4487 9.17822C17.5796 9.78461 17.7513 10.4708 17.8302 10.7032C17.9574 11.0771 18.438 11.9506 18.8286 12.5178C19.1099 12.9264 18.9229 13.12 18.301 13.0642C17.351 12.9789 16.0644 12.096 15.2343 10.9597Z" fill="#FF007A"/>
<path d="M31.6885 21.8673C26.6844 19.864 24.9219 18.1251 24.9219 15.1912C24.9219 14.7595 24.9369 14.4062 24.9551 14.4062C24.9734 14.4062 25.1669 14.5487 25.3853 14.7229C26.4001 15.5321 27.5363 15.8777 30.682 16.334C32.5331 16.6026 33.5748 16.8194 34.5358 17.1362C37.59 18.1434 39.4797 20.1872 39.9303 22.971C40.0612 23.7799 39.9845 25.2968 39.7722 26.0964C39.6045 26.7278 39.0932 27.866 38.9575 27.9096C38.9199 27.9218 38.883 27.7783 38.8734 27.5834C38.8219 26.5381 38.2905 25.5205 37.3983 24.7581C36.3839 23.8913 35.0209 23.2013 31.6885 21.8673Z" fill="#FF007A"/>
<path d="M28.1803 22.7005C28.1176 22.3297 28.0089 21.8559 27.9387 21.6478L27.811 21.2695L28.0482 21.5344C28.3764 21.9005 28.6358 22.3692 28.8556 22.9935C29.0232 23.47 29.0422 23.6115 29.0408 24.3857C29.0396 25.1458 29.0187 25.3052 28.8637 25.7341C28.6195 26.4102 28.3163 26.8898 27.8076 27.4044C26.8935 28.3294 25.7184 28.8415 24.0224 29.054C23.7276 29.0909 22.8684 29.1531 22.113 29.192C20.2094 29.2906 18.9565 29.4939 17.8308 29.8869C17.6689 29.9435 17.5245 29.9779 17.5098 29.9633C17.4642 29.9181 18.2308 29.4638 18.8637 29.1607C19.7564 28.7331 20.6451 28.4998 22.6362 28.1701C23.6197 28.0072 24.6354 27.8096 24.8934 27.731C27.3291 26.9885 28.5811 25.0724 28.1803 22.7005Z" fill="#FF007A"/>
<path d="M30.4741 26.7508C29.8093 25.3298 29.6566 23.9577 30.0208 22.6783C30.0599 22.5416 30.1224 22.4297 30.1602 22.4297C30.1979 22.4297 30.3547 22.514 30.5088 22.617C30.8151 22.822 31.4296 23.1675 33.0667 24.0549C35.1095 25.1622 36.2742 26.0197 37.0661 26.9994C37.7599 27.8574 38.1891 28.8345 38.3957 30.026C38.5127 30.701 38.4442 32.325 38.2699 33.0047C37.7208 35.1478 36.4442 36.8311 34.6236 37.8134C34.3569 37.9573 34.1173 38.0753 34.0913 38.076C34.0654 38.0765 34.1626 37.8308 34.3074 37.5299C34.9199 36.2569 34.9896 35.0186 34.5265 33.6404C34.2431 32.7965 33.665 31.7668 32.4978 30.0264C31.1408 28.003 30.808 27.4644 30.4741 26.7508Z" fill="#FF007A"/>
<path d="M11.6778 34.4176C13.5348 32.8586 15.8453 31.7512 17.9501 31.4111C18.857 31.2647 20.3681 31.3227 21.208 31.5366C22.5543 31.8792 23.7588 32.6464 24.385 33.5606C24.9973 34.4542 25.2597 35.2328 25.5332 36.965C25.6411 37.6484 25.7584 38.3346 25.7938 38.49C25.9992 39.3878 26.3988 40.1054 26.8939 40.4658C27.6805 41.0381 29.0346 41.0738 30.3669 40.557C30.593 40.4693 30.7892 40.4087 30.8031 40.4224C30.8514 40.4702 30.1805 40.9167 29.7072 41.1517C29.0705 41.4679 28.5642 41.5901 27.8913 41.5901C26.6711 41.5901 25.6582 40.9731 24.8129 39.7146C24.6466 39.467 24.2727 38.7252 23.9821 38.0663C23.0897 36.0425 22.649 35.426 21.6128 34.7512C20.711 34.1641 19.548 34.059 18.6731 34.4855C17.5239 35.0456 17.2033 36.506 18.0264 37.4313C18.3536 37.7991 18.9635 38.1163 19.4623 38.1779C20.3957 38.2934 21.1976 37.5875 21.1976 36.6507C21.1976 36.0425 20.9624 35.6952 20.3705 35.4297C19.5621 35.067 18.6929 35.491 18.6971 36.246C18.699 36.5681 18.8399 36.7703 19.1647 36.9164C19.3729 37.0101 19.3777 37.0175 19.2078 36.9825C18.466 36.8295 18.2923 35.9404 18.8888 35.3499C19.6049 34.6413 21.0857 34.954 21.5942 35.9214C21.8077 36.3277 21.8326 37.1369 21.6464 37.6254C21.2295 38.7191 20.014 39.2942 18.7811 38.9812C17.9416 38.7682 17.5999 38.5374 16.5877 37.5009C14.829 35.6996 14.1463 35.3506 11.6109 34.9571L11.125 34.8817L11.6778 34.4176Z" fill="#FF007A"/>
<path fill-rule="evenodd" clip-rule="evenodd" d="M3.42747 2.17897C9.30067 9.26651 13.3458 12.1907 13.7954 12.8085C14.1665 13.3186 14.0268 13.7772 13.391 14.1367C13.0374 14.3365 12.3104 14.539 11.9464 14.539C11.5347 14.539 11.3934 14.3811 11.3934 14.3811C11.1547 14.156 11.0203 14.1953 9.79447 12.0319C8.09265 9.40637 6.66846 7.22836 6.6296 7.19188C6.53977 7.10756 6.54131 7.1104 9.62094 12.5891C10.1185 13.731 9.71991 14.1502 9.71991 14.3128C9.71991 14.6437 9.62914 14.8176 9.21866 15.2728C8.53436 16.0318 8.22847 16.8847 8.00766 18.6497C7.7601 20.6283 7.06401 22.026 5.13496 24.4179C4.00575 25.8181 3.82099 26.0748 3.53606 26.6392C3.17716 27.3499 3.07848 27.748 3.03848 28.6454C2.9962 29.5942 3.07854 30.2072 3.3701 31.1144C3.62535 31.9086 3.89179 32.4332 4.57294 33.482C5.16075 34.3873 5.49921 35.06 5.49921 35.3232C5.49921 35.5326 5.53941 35.5328 6.45027 35.3284C8.6301 34.8389 10.4001 33.9782 11.3956 32.9232C12.0117 32.2703 12.1563 31.9098 12.161 31.015C12.1641 30.4297 12.1434 30.3072 11.9843 29.9706C11.7253 29.4225 11.2538 28.967 10.2145 28.2605C8.85287 27.335 8.27127 26.5899 8.11063 25.5653C7.97884 24.7244 8.13173 24.1312 8.88501 22.5616C9.66471 20.9367 9.85792 20.2443 9.98862 18.6065C10.0731 17.5483 10.19 17.1311 10.4957 16.7961C10.8146 16.4468 11.1017 16.3285 11.8909 16.2213C13.1775 16.0466 13.9968 15.7156 14.6703 15.0986C15.2545 14.5633 15.4989 14.0476 15.5364 13.2712L15.5649 12.6827L15.2385 12.3042C14.0562 10.9336 2.63571 1.10156 2.56295 1.10156C2.54741 1.10156 2.93646 1.58643 3.42747 2.17897ZM6.16287 29.719C6.43017 29.2484 6.28816 28.6432 5.84102 28.3477C5.41856 28.0684 4.76227 28.1999 4.76227 28.5638C4.76227 28.6749 4.82404 28.7558 4.96325 28.827C5.19767 28.947 5.21468 29.0818 5.03025 29.3575C4.84346 29.6365 4.85853 29.8821 5.07279 30.0488C5.41808 30.3176 5.90687 30.1698 6.16287 29.719Z" fill="#FF007A"/>
<path fill-rule="evenodd" clip-rule="evenodd" d="M16.3739 16.5307C15.7698 16.7152 15.1827 17.3516 15.0009 18.0191C14.89 18.4262 14.9529 19.1404 15.119 19.3611C15.3873 19.7173 15.6468 19.8111 16.3494 19.8062C17.7249 19.7967 18.9208 19.2102 19.0598 18.4768C19.1737 17.8757 18.6485 17.0428 17.9251 16.677C17.5519 16.4884 16.7579 16.4135 16.3739 16.5307ZM17.9818 17.7809C18.194 17.4811 18.1012 17.1574 17.7404 16.9383C17.0534 16.5212 16.0144 16.8663 16.0144 17.5116C16.0144 17.8328 16.5562 18.1834 17.0529 18.1834C17.3834 18.1834 17.8357 17.9874 17.9818 17.7809Z" fill="#FF007A"/>
<path d="M154.062 39.9354V18.5518H157.149V20.9768C157.999 19.5911 159.637 18.1738 162.376 18.1738C166.471 18.1738 169.431 21.4177 169.431 26.3305C169.431 31.2433 166.471 34.4871 162.376 34.4871C159.574 34.4871 157.968 33.0069 157.18 31.7472V39.9354H154.062ZM161.652 31.9992C164.707 31.9992 166.187 29.4482 166.187 26.3305C166.187 23.2128 164.707 20.6618 161.652 20.6618C158.597 20.6618 157.054 23.2758 157.054 26.3305C157.054 29.3852 158.597 31.9992 161.652 31.9992Z" fill="black"/>
<path d="M142.432 34.4871C139.629 34.4871 137.109 32.7864 137.109 29.8891C137.109 27.0549 139.093 25.7636 142.463 25.1023L144.605 24.6614C146.274 24.3149 147.061 23.9685 147.061 22.6773C147.061 21.3862 145.99 20.4728 144.101 20.4728C142.054 20.4728 140.731 21.7325 140.605 23.811L137.393 23.5276C137.613 20.1894 140.29 18.1738 144.132 18.1738C148.1 18.1738 150.21 20.0949 150.21 23.3702V34.1092H147.219V32.2826H147.187C146.463 33.4793 144.857 34.4871 142.432 34.4871ZM143.25 32.2511C145.455 32.2511 147.187 30.8025 147.187 28.22V26.3305C143.912 26.8659 142.369 27.3067 141.424 27.9051C140.7 28.346 140.29 28.9758 140.29 29.8261C140.29 31.2748 141.487 32.2511 143.25 32.2511Z" fill="black"/>
<path d="M117.069 34.11L112.125 18.5527H115.432L118.833 30.2994H118.865L122.392 18.5527H125.509L129.068 30.2679H129.1L132.501 18.5527H135.745L130.8 34.11H127.525L123.998 22.1114H123.966L120.376 34.11H117.069Z" fill="black"/>
<path d="M104.492 34.4871C100.618 34.4871 97.7838 32.6921 97.4375 28.9758L100.524 28.598C100.681 31.0543 102.413 32.1881 104.555 32.1881C106.665 32.1881 108.082 31.2433 108.082 29.7317C108.082 28.22 106.633 27.9051 104.681 27.4642L102.382 26.9289C99.8623 26.3305 98.1302 25.1338 98.1302 22.7403C98.1302 20.0949 100.744 18.1738 104.429 18.1738C107.987 18.1738 110.412 19.9689 110.822 22.8663L107.704 23.3073C107.484 21.4492 106.129 20.4728 104.303 20.4728C102.445 20.4728 101.248 21.3862 101.248 22.5829C101.248 23.7165 101.941 24.126 103.893 24.5669L106.192 25.1023C109.468 25.8581 111.2 26.9289 111.2 29.4167C111.2 32.5346 108.302 34.4871 104.492 34.4871Z" fill="black"/>
<path d="M91.6328 34.1083V18.5509H94.7507V34.1083H91.6328ZM91.6328 16.126V12.4414H94.7507V16.126H91.6328Z" fill="black"/>
<path d="M74.2031 34.1092V18.5518H77.2895V20.7563H77.321C78.2027 19.4022 79.9348 18.1738 82.2968 18.1738C85.761 18.1738 87.808 20.2524 87.808 24.0315V34.1092H84.6903V25.3856C84.6903 22.5829 84.0604 20.7878 81.4464 20.7878C78.8326 20.7878 77.321 22.8978 77.321 25.4171V34.1092H74.2031Z" fill="black"/>
<path d="M62.0796 34.4863C56.9148 34.4863 53.7656 31.5574 53.7656 26.1722V12.4414H57.0408V25.9832C57.0408 29.4788 58.6784 31.7464 62.0796 31.7464C65.7642 31.7464 67.1184 29.4788 67.1184 25.9832V12.4414H70.3937V26.1722C70.3937 31.5574 67.2443 34.4863 62.0796 34.4863Z" fill="black"/>
</g>
<defs>
<clipPath id="clip0_1775_3623">
<rect width="169.5" height="42.502" fill="white"/>
</clipPath>
</defs>
</svg>
