<svg width="207" height="52" viewBox="0 0 207 52" fill="none" xmlns="http://www.w3.org/2000/svg">
<g clip-path="url(#clip0_567_4132)">
<path d="M17.352 4.94884C16.7078 4.84949 16.6807 4.83783 16.9838 4.79151C17.5647 4.70269 18.9364 4.82375 19.8816 5.04721C22.0884 5.56874 24.0964 6.90475 26.2396 9.27751L26.8091 9.90786L27.6237 9.77766C31.0554 9.22933 34.5465 9.66513 37.4666 11.0063C38.2698 11.3753 39.5364 12.1098 39.6946 12.2985C39.745 12.3587 39.8375 12.7459 39.9003 13.1591C40.1171 14.5885 40.0085 15.6842 39.5689 16.5026C39.3296 16.9479 39.3162 17.0891 39.477 17.4702C39.6055 17.7743 39.9636 17.9994 40.3181 17.9989C41.0437 17.998 41.8248 16.8316 42.1867 15.2088L42.3304 14.5642L42.6151 14.885C44.1772 16.6445 45.4039 19.0442 45.6149 20.7522L45.6697 21.1976L45.407 20.7927C44.9552 20.0961 44.5013 19.6218 43.9198 19.2393C42.8718 18.5499 41.7638 18.3152 38.8289 18.1614C36.1785 18.0226 34.6784 17.7975 33.1909 17.3152C30.6602 16.4948 29.3845 15.4022 26.3783 11.4806C25.0431 9.73881 24.2178 8.77509 23.3968 7.999C21.5313 6.23555 19.6984 5.3107 17.352 4.94884Z" fill="#2104FF"/>
<path d="M40.2912 8.83809C40.3578 7.67088 40.5171 6.90104 40.8372 6.19796C40.9639 5.91966 41.0826 5.69189 41.1008 5.69189C41.1192 5.69189 41.064 5.89732 40.9784 6.14833C40.7458 6.83066 40.7075 7.76392 40.8678 8.84975C41.0713 10.2274 41.1871 10.4262 42.6516 11.9145C43.3385 12.6125 44.1376 13.4929 44.4271 13.8709L44.9538 14.5582L44.4271 14.067C43.7831 13.4663 42.3019 12.2949 41.9747 12.1275C41.7553 12.0152 41.7227 12.0171 41.5874 12.1511C41.4627 12.2745 41.4365 12.4599 41.4191 13.3365C41.3922 14.7027 41.2049 15.5796 40.7528 16.4564C40.5084 16.9307 40.4699 16.8295 40.691 16.2942C40.8562 15.8945 40.8729 15.7188 40.8717 14.3962C40.8692 11.7388 40.552 11.1 38.6911 10.0056C38.2198 9.72835 37.4431 9.32852 36.9652 9.11703C36.4873 8.90552 36.1076 8.72131 36.1215 8.70756C36.1742 8.65541 37.9888 9.18205 38.7192 9.46138C39.8057 9.87693 39.985 9.93078 40.1171 9.88066C40.2054 9.84705 40.2482 9.59094 40.2912 8.83809Z" fill="#2104FF"/>
<path d="M18.6021 13.3841C17.2944 11.5941 16.4853 8.84962 16.6605 6.79798L16.7146 6.16309L17.0123 6.2171C17.5713 6.31847 18.5351 6.67515 18.9864 6.9477C20.2248 7.69555 20.7609 8.68015 21.3064 11.2084C21.4662 11.949 21.6759 12.787 21.7723 13.0708C21.9276 13.5274 22.5145 14.5941 22.9916 15.2869C23.335 15.7859 23.1067 16.0223 22.3472 15.9541C21.1871 15.85 19.6158 14.7717 18.6021 13.3841Z" fill="#2104FF"/>
<path d="M38.7051 26.7062C32.5939 24.2597 30.4414 22.1361 30.4414 18.5532C30.4414 18.0259 30.4598 17.5945 30.4819 17.5945C30.5043 17.5945 30.7406 17.7685 31.0074 17.9812C32.2467 18.9694 33.6343 19.3915 37.4759 19.9488C39.7366 20.2767 41.0087 20.5416 42.1823 20.9284C45.9122 22.1584 48.22 24.6544 48.7703 28.0541C48.9302 29.042 48.8365 30.8944 48.5772 31.8709C48.3724 32.642 47.7479 34.0321 47.5823 34.0852C47.5364 34.1001 47.4913 33.925 47.4795 33.687C47.4166 32.4104 46.7677 31.1676 45.6781 30.2366C44.4392 29.178 42.7748 28.3354 38.7051 26.7062Z" fill="#2104FF"/>
<path d="M34.4165 27.7227C34.3399 27.2698 34.2072 26.6912 34.1214 26.4371L33.9654 25.9751L34.2552 26.2985C34.6559 26.7456 34.9727 27.318 35.2412 28.0805C35.4459 28.6624 35.469 28.8353 35.4674 29.7807C35.4659 30.709 35.4403 30.9036 35.2511 31.4274C34.9529 32.2531 34.5825 32.8388 33.9613 33.4672C32.845 34.5969 31.4099 35.2223 29.3387 35.4818C28.9786 35.5269 27.9294 35.6028 27.0069 35.6503C24.6821 35.7707 23.152 36.019 21.7773 36.499C21.5796 36.5681 21.4032 36.6101 21.3852 36.5923C21.3296 36.5371 22.2657 35.9822 23.0387 35.6121C24.1289 35.0899 25.2142 34.805 27.6458 34.4023C28.8469 34.2034 30.0872 33.9621 30.4024 33.8661C33.3769 32.9593 34.9059 30.6193 34.4165 27.7227Z" fill="#2104FF"/>
<path d="M37.2186 32.6692C36.4067 30.9338 36.2202 29.2582 36.665 27.6957C36.7128 27.5288 36.7891 27.3921 36.8352 27.3921C36.8813 27.3921 37.0728 27.4951 37.261 27.6208C37.6351 27.8712 38.3855 28.2931 40.3848 29.3769C42.8795 30.7291 44.3019 31.7763 45.269 32.9728C46.1163 34.0206 46.6405 35.2138 46.8928 36.669C47.0357 37.4933 46.9519 39.4767 46.7391 40.3067C46.0685 42.9239 44.5095 44.9796 42.286 46.1793C41.9603 46.355 41.6677 46.4992 41.6361 46.5C41.6045 46.5006 41.7232 46.2006 41.9 45.8331C42.6479 44.2784 42.7331 42.7661 42.1676 41.083C41.8214 40.0524 41.1154 38.7949 39.69 36.6695C38.0327 34.1985 37.6264 33.5407 37.2186 32.6692Z" fill="#2104FF"/>
<path d="M14.2611 42.0331C16.5289 40.1291 19.3506 38.7767 21.921 38.3614C23.0285 38.1826 24.874 38.2535 25.8997 38.5147C27.5439 38.933 29.0148 39.87 29.7795 40.9865C30.5273 42.0777 30.8478 43.0286 31.1818 45.1441C31.3135 45.9787 31.4568 46.8166 31.5 47.0064C31.7509 48.1028 32.2389 48.9792 32.8436 49.4193C33.8041 50.1183 35.4579 50.1619 37.0849 49.5308C37.361 49.4236 37.6006 49.3496 37.6176 49.3664C37.6765 49.4247 36.8572 49.97 36.2792 50.257C35.5017 50.6431 34.8834 50.7924 34.0616 50.7924C32.5714 50.7924 31.3344 50.0388 30.3021 48.502C30.099 48.1996 29.6424 47.2937 29.2876 46.489C28.1978 44.0174 27.6595 43.2645 26.3941 42.4404C25.2927 41.7235 23.8725 41.5951 22.804 42.116C21.4005 42.8001 21.009 44.5834 22.0142 45.7136C22.4138 46.1627 23.1586 46.55 23.7678 46.6253C24.9077 46.7663 25.8871 45.9042 25.8871 44.7602C25.8871 44.0174 25.5998 43.5933 24.8769 43.2691C23.8896 42.8261 22.8282 43.3439 22.8333 44.266C22.8356 44.6593 23.0077 44.9062 23.4043 45.0847C23.6586 45.1991 23.6644 45.2082 23.457 45.1654C22.5511 44.9786 22.3389 43.8927 23.0674 43.1717C23.942 42.3062 25.7504 42.6882 26.3714 43.8696C26.6321 44.3657 26.6625 45.3539 26.4351 45.9505C25.9259 47.2862 24.4416 47.9885 22.9359 47.6063C21.9106 47.3462 21.4933 47.0643 20.2572 45.7986C18.1095 43.5987 17.2756 43.1725 14.1793 42.6919L13.5859 42.5999L14.2611 42.0331Z" fill="#2104FF"/>
<path fill-rule="evenodd" clip-rule="evenodd" d="M4.18524 2.6622C11.3578 11.3178 16.2979 14.8889 16.8469 15.6434C17.3002 16.2664 17.1296 16.8265 16.3531 17.2654C15.9212 17.5095 15.0334 17.7567 14.5889 17.7567C14.0862 17.7567 13.9136 17.5639 13.9136 17.5639C13.622 17.289 13.4579 17.3371 11.9609 14.695C9.88254 11.4886 8.14326 8.82872 8.0958 8.78417C7.9861 8.68119 7.98798 8.68466 11.7489 15.3755C12.3566 16.77 11.8698 17.2819 11.8698 17.4805C11.8698 17.8846 11.759 18.097 11.2577 18.6529C10.422 19.5799 10.0484 20.6214 9.77875 22.7769C9.47641 25.1933 8.62633 26.9001 6.2705 29.8213C4.89146 31.5313 4.66583 31.8448 4.31786 32.534C3.87956 33.4019 3.75904 33.8881 3.71019 34.9841C3.65856 36.1427 3.75912 36.8913 4.11518 37.9993C4.4269 38.9692 4.75229 39.6098 5.58413 40.8907C6.30199 41.9962 6.71533 42.8178 6.71533 43.1392C6.71533 43.395 6.76442 43.3952 7.87681 43.1456C10.5389 42.5478 12.7005 41.4966 13.9162 40.2083C14.6686 39.4109 14.8453 38.9706 14.851 37.878C14.8548 37.1631 14.8295 37.0136 14.6352 36.6024C14.3188 35.9331 13.743 35.3768 12.4739 34.514C10.811 33.3837 10.1007 32.4738 9.9045 31.2225C9.74355 30.1956 9.93026 29.4712 10.8502 27.5542C11.8024 25.5698 12.0384 24.7242 12.198 22.7241C12.3011 21.4319 12.4439 20.9224 12.8173 20.5132C13.2067 20.0867 13.5573 19.9422 14.5211 19.8113C16.0924 19.5978 17.0929 19.1936 17.9154 18.4401C18.6288 17.7865 18.9274 17.1566 18.9732 16.2084L19.008 15.4897L18.6093 15.0275C17.1654 13.3537 3.21831 1.34644 3.12946 1.34644C3.11047 1.34644 3.5856 1.93857 4.18524 2.6622ZM7.52582 36.2952C7.85226 35.7205 7.67882 34.9814 7.13276 34.6205C6.61684 34.2793 5.81535 34.44 5.81535 34.8844C5.81535 35.0201 5.89079 35.1189 6.06079 35.2058C6.34708 35.3524 6.36786 35.517 6.14262 35.8537C5.91451 36.1945 5.93291 36.4943 6.19457 36.698C6.61626 37.0262 7.21319 36.8456 7.52582 36.2952Z" fill="#2104FF"/>
<path fill-rule="evenodd" clip-rule="evenodd" d="M19.9985 20.1882C19.2608 20.4134 18.5438 21.1907 18.3218 22.0058C18.1864 22.503 18.2632 23.3752 18.4661 23.6447C18.7937 24.0798 19.1106 24.1943 19.9686 24.1883C21.6485 24.1768 23.1089 23.4604 23.2786 22.5648C23.4178 21.8307 22.7763 20.8135 21.8929 20.3668C21.4372 20.1364 20.4676 20.045 19.9985 20.1882ZM21.9622 21.7149C22.2213 21.3489 22.108 20.9535 21.6673 20.6859C20.8284 20.1765 19.5596 20.598 19.5596 21.3861C19.5596 21.7784 20.2212 22.2064 20.8277 22.2064C21.2314 22.2064 21.7837 21.9672 21.9622 21.7149Z" fill="#2104FF"/>
<path d="M188.152 48.7694V22.6549H191.921V25.6164C192.96 23.9242 194.96 22.1934 198.306 22.1934C203.306 22.1934 206.92 26.1549 206.92 32.1546C206.92 38.1543 203.306 42.1158 198.306 42.1158C194.883 42.1158 192.921 40.308 191.96 38.7697V48.7694H188.152ZM197.421 39.0774C201.152 39.0774 202.959 35.9621 202.959 32.1546C202.959 28.3471 201.152 25.2318 197.421 25.2318C193.69 25.2318 191.806 28.424 191.806 32.1546C191.806 35.8851 193.69 39.0774 197.421 39.0774Z" fill="#2104FF"/>
<path d="M173.945 42.1158C170.522 42.1158 167.445 40.0388 167.445 36.5006C167.445 33.0393 169.868 31.4622 173.984 30.6547L176.599 30.1162C178.637 29.6931 179.599 29.27 179.599 27.6932C179.599 26.1164 178.291 25.001 175.984 25.001C173.484 25.001 171.868 26.5393 171.715 29.0777L167.791 28.7315C168.061 24.6548 171.33 22.1934 176.022 22.1934C180.868 22.1934 183.445 24.5394 183.445 28.5394V41.6543H179.791V39.4236H179.753C178.868 40.885 176.907 42.1158 173.945 42.1158ZM174.945 39.3851C177.637 39.3851 179.753 37.616 179.753 34.4622V32.1546C175.753 32.8085 173.868 33.3468 172.714 34.0776C171.83 34.616 171.33 35.3851 171.33 36.4236C171.33 38.1927 172.791 39.3851 174.945 39.3851Z" fill="#2104FF"/>
<path d="M142.972 41.6546L136.934 22.6555H140.972L145.126 37.001H145.164L149.472 22.6555H153.279L157.625 36.9625H157.664L161.817 22.6555H165.779L159.74 41.6546H155.741L151.433 27.0015H151.395L147.01 41.6546H142.972Z" fill="#2104FF"/>
<path d="M127.615 42.1158C122.884 42.1158 119.423 39.9236 119 35.3851L122.769 34.9238C122.961 37.9235 125.077 39.3082 127.692 39.3082C130.269 39.3082 131.999 38.1543 131.999 36.3082C131.999 34.4622 130.23 34.0776 127.846 33.5391L125.038 32.8854C121.961 32.1546 119.846 30.6932 119.846 27.7702C119.846 24.5394 123.038 22.1934 127.538 22.1934C131.884 22.1934 134.846 24.3856 135.345 27.924L131.538 28.4625C131.269 26.1934 129.615 25.001 127.384 25.001C125.115 25.001 123.654 26.1164 123.654 27.5778C123.654 28.9623 124.5 29.4623 126.884 30.0008L129.692 30.6547C133.692 31.5776 135.807 32.8854 135.807 35.9236C135.807 39.7313 132.269 42.1158 127.615 42.1158Z" fill="#2104FF"/>
<path d="M111.906 41.6544V22.655H115.714V41.6544H111.906ZM111.906 19.6937V15.1938H115.714V19.6937H111.906Z" fill="#2104FF"/>
<path d="M90.6211 41.6543V22.6549H94.3903V25.3472H94.4288C95.5055 23.6934 97.6208 22.1934 100.505 22.1934C104.736 22.1934 107.236 24.7317 107.236 29.347V41.6543H103.428V31.0007C103.428 27.5778 102.659 25.3856 99.4669 25.3856C96.2748 25.3856 94.4288 27.9625 94.4288 31.0391V41.6543H90.6211Z" fill="#2104FF"/>
<path d="M75.8135 42.1159C69.5061 42.1159 65.6602 38.539 65.6602 31.9624V15.1938H69.6599V31.7316C69.6599 36.0006 71.6598 38.7698 75.8135 38.7698C80.3133 38.7698 81.967 36.0006 81.967 31.7316V15.1938H85.967V31.9624C85.967 38.539 82.1209 42.1159 75.8135 42.1159Z" fill="#2104FF"/>
</g>
<defs>
<clipPath id="clip0_567_4132">
<rect width="207" height="51.9051" fill="white"/>
</clipPath>
</defs>
</svg>
