<svg width="243" height="108" viewBox="0 0 243 108" fill="none" xmlns="http://www.w3.org/2000/svg">
<g clip-path="url(#clip0_567_4204)" filter="url(#filter0_f_567_4204)">
<path d="M35.352 32.8024C34.7078 32.703 34.6807 32.6913 34.9838 32.645C35.5647 32.5562 36.9364 32.6773 37.8816 32.9007C40.0884 33.4223 42.0964 34.7583 44.2396 37.131L44.8091 37.7614L45.6237 37.6312C49.0554 37.0828 52.5465 37.5186 55.4666 38.8598C56.2698 39.2288 57.5364 39.9633 57.6946 40.152C57.745 40.2122 57.8375 40.5994 57.9003 41.0126C58.1171 42.442 58.0085 43.5377 57.5689 44.3561C57.3296 44.8014 57.3162 44.9426 57.477 45.3237C57.6055 45.6278 57.9636 45.8529 58.3181 45.8524C59.0437 45.8515 59.8248 44.6852 60.1867 43.0624L60.3304 42.4178L60.6151 42.7385C62.1772 44.498 63.4039 46.8977 63.6149 48.6057L63.6697 49.0511L63.407 48.6462C62.9552 47.9496 62.5013 47.4753 61.9198 47.0928C60.8718 46.4034 59.7638 46.1687 56.8289 46.0149C54.1785 45.8761 52.6784 45.651 51.1909 45.1687C48.6602 44.3483 47.3845 43.2557 44.3783 39.3342C43.0431 37.5923 42.2178 36.6286 41.3968 35.8525C39.5313 34.0891 37.6984 33.1642 35.352 32.8024Z" fill="#ECC52B"/>
<path d="M58.2912 36.6916C58.3578 35.5244 58.5171 34.7546 58.8372 34.0515C58.9639 33.7732 59.0826 33.5454 59.1008 33.5454C59.1192 33.5454 59.064 33.7508 58.9784 34.0018C58.7458 34.6842 58.7075 35.6174 58.8678 36.7033C59.0713 38.081 59.1871 38.2798 60.6516 39.768C61.3385 40.466 62.1376 41.3464 62.4271 41.7244L62.9538 42.4117L62.4271 41.9205C61.7831 41.3199 60.3019 40.1485 59.9747 39.981C59.7553 39.8687 59.7227 39.8707 59.5874 40.0046C59.4627 40.128 59.4365 40.3134 59.4191 41.19C59.3922 42.5562 59.2049 43.4331 58.7528 44.3099C58.5084 44.7842 58.4699 44.683 58.691 44.1477C58.8562 43.748 58.8729 43.5723 58.8717 42.2497C58.8692 39.5924 58.552 38.9535 56.6911 37.8591C56.2198 37.5819 55.4431 37.182 54.9652 36.9705C54.4873 36.759 54.1076 36.5748 54.1215 36.5611C54.1742 36.5089 55.9888 37.0356 56.7192 37.3149C57.8057 37.7304 57.985 37.7843 58.1171 37.7342C58.2054 37.7006 58.2482 37.4445 58.2912 36.6916Z" fill="#ECC52B"/>
<path d="M36.6021 41.2376C35.2944 39.4476 34.4853 36.7031 34.6605 34.6515L34.7146 34.0166L35.0123 34.0706C35.5713 34.172 36.5351 34.5287 36.9864 34.8012C38.2248 35.5491 38.7609 36.5337 39.3064 39.062C39.4662 39.8025 39.6759 40.6406 39.7723 40.9243C39.9276 41.3809 40.5145 42.4477 40.9916 43.1404C41.335 43.6394 41.1067 43.8758 40.3472 43.8076C39.1871 43.7035 37.6158 42.6252 36.6021 41.2376Z" fill="#ECC52B"/>
<path d="M56.7051 54.5598C50.5939 52.1132 48.4414 49.9896 48.4414 46.4067C48.4414 45.8794 48.4598 45.448 48.4819 45.448C48.5043 45.448 48.7406 45.622 49.0074 45.8347C50.2467 46.8229 51.6343 47.245 55.4759 47.8023C57.7366 48.1302 59.0087 48.3951 60.1823 48.782C63.9122 50.012 66.22 52.508 66.7703 55.9076C66.9302 56.8955 66.8365 58.7479 66.5772 59.7244C66.3724 60.4956 65.7479 61.8856 65.5823 61.9388C65.5364 61.9537 65.4913 61.7785 65.4795 61.5405C65.4166 60.2639 64.7677 59.0211 63.6781 58.0901C62.4392 57.0316 60.7748 56.1889 56.7051 54.5598Z" fill="#ECC52B"/>
<path d="M52.4165 55.5762C52.3399 55.1233 52.2072 54.5447 52.1214 54.2906L51.9654 53.8286L52.2552 54.152C52.6559 54.5991 52.9727 55.1715 53.2412 55.934C53.4459 56.5159 53.469 56.6888 53.4674 57.6342C53.4659 58.5625 53.4403 58.7571 53.2511 59.2809C52.9529 60.1066 52.5825 60.6923 51.9613 61.3207C50.845 62.4504 49.4099 63.0758 47.3387 63.3353C46.9786 63.3804 45.9294 63.4563 45.0069 63.5038C42.6821 63.6242 41.152 63.8726 39.7773 64.3525C39.5796 64.4216 39.4032 64.4636 39.3852 64.4458C39.3296 64.3906 40.2657 63.8358 41.0387 63.4656C42.1289 62.9434 43.2142 62.6585 45.6458 62.2558C46.8469 62.0569 48.0872 61.8156 48.4024 61.7196C51.3769 60.8128 52.9059 58.4728 52.4165 55.5762Z" fill="#ECC52B"/>
<path d="M55.2186 60.5228C54.4067 58.7874 54.2202 57.1117 54.665 55.5492C54.7128 55.3823 54.7891 55.2456 54.8352 55.2456C54.8813 55.2456 55.0728 55.3486 55.261 55.4743C55.6351 55.7247 56.3855 56.1466 58.3848 57.2304C60.8795 58.5826 62.3019 59.6298 63.269 60.8263C64.1163 61.8742 64.6405 63.0674 64.8928 64.5226C65.0357 65.3468 64.9519 67.3302 64.7391 68.1603C64.0685 70.7774 62.5095 72.8332 60.286 74.0328C59.9603 74.2085 59.6677 74.3527 59.6361 74.3535C59.6045 74.3541 59.7232 74.0541 59.9 73.6866C60.6479 72.1319 60.7331 70.6196 60.1676 68.9366C59.8214 67.9059 59.1154 66.6484 57.69 64.523C56.0327 62.052 55.6264 61.3942 55.2186 60.5228Z" fill="#ECC52B"/>
<path d="M32.2611 69.8866C34.5289 67.9826 37.3506 66.6302 39.921 66.215C41.0285 66.0361 42.874 66.107 43.8997 66.3682C45.5439 66.7865 47.0148 67.7235 47.7795 68.84C48.5273 69.9312 48.8478 70.8821 49.1818 72.9976C49.3135 73.8322 49.4568 74.6701 49.5 74.8599C49.7509 75.9564 50.2389 76.8328 50.8436 77.2728C51.8041 77.9718 53.4579 78.0154 55.0849 77.3843C55.361 77.2772 55.6006 77.2031 55.6176 77.2199C55.6765 77.2782 54.8572 77.8235 54.2792 78.1105C53.5017 78.4966 52.8834 78.6459 52.0616 78.6459C50.5714 78.6459 49.3344 77.8924 48.3021 76.3555C48.099 76.0531 47.6424 75.1472 47.2876 74.3426C46.1978 71.871 45.6595 71.118 44.3941 70.294C43.2927 69.577 41.8725 69.4486 40.804 69.9695C39.4005 70.6536 39.009 72.437 40.0142 73.5671C40.4138 74.0162 41.1586 74.4036 41.7678 74.4788C42.9077 74.6199 43.8871 73.7577 43.8871 72.6138C43.8871 71.871 43.5998 71.4468 42.8769 71.1226C41.8896 70.6796 40.8282 71.1974 40.8333 72.1195C40.8356 72.5128 41.0077 72.7598 41.4043 72.9382C41.6586 73.0526 41.6644 73.0617 41.457 73.0189C40.5511 72.8321 40.3389 71.7463 41.0674 71.0252C41.942 70.1597 43.7504 70.5417 44.3714 71.7231C44.6321 72.2192 44.6625 73.2075 44.4351 73.8041C43.9259 75.1397 42.4416 75.842 40.9359 75.4599C39.9106 75.1997 39.4933 74.9178 38.2572 73.6521C36.1095 71.4522 35.2756 71.026 32.1793 70.5454L31.5859 70.4534L32.2611 69.8866Z" fill="#ECC52B"/>
<path fill-rule="evenodd" clip-rule="evenodd" d="M22.1852 30.5157C29.3578 39.1713 34.2979 42.7424 34.8469 43.4969C35.3002 44.1199 35.1296 44.68 34.3531 45.1189C33.9212 45.363 33.0334 45.6102 32.5889 45.6102C32.0862 45.6102 31.9136 45.4174 31.9136 45.4174C31.622 45.1425 31.4579 45.1906 29.9609 42.5485C27.8825 39.3421 26.1433 36.6822 26.0958 36.6377C25.9861 36.5347 25.988 36.5382 29.7489 43.229C30.3566 44.6235 29.8698 45.1354 29.8698 45.3341C29.8698 45.7381 29.759 45.9505 29.2577 46.5064C28.422 47.4334 28.0484 48.4749 27.7787 50.6304C27.4764 53.0468 26.6263 54.7536 24.2705 57.6748C22.8915 59.3848 22.6658 59.6983 22.3179 60.3875C21.8796 61.2554 21.759 61.7416 21.7102 62.8376C21.6586 63.9963 21.7591 64.7449 22.1152 65.8529C22.4269 66.8227 22.7523 67.4634 23.5841 68.7442C24.302 69.8498 24.7153 70.6713 24.7153 70.9927C24.7153 71.2485 24.7644 71.2487 25.8768 70.9991C28.5389 70.4013 30.7005 69.3501 31.9162 68.0618C32.6686 67.2644 32.8453 66.8242 32.851 65.7315C32.8548 65.0166 32.8295 64.8671 32.6352 64.456C32.3188 63.7866 31.743 63.2303 30.4739 62.3676C28.811 61.2372 28.1007 60.3273 27.9045 59.076C27.7435 58.0491 27.9303 57.3247 28.8502 55.4077C29.8024 53.4233 30.0384 52.5778 30.198 50.5777C30.3011 49.2854 30.4439 48.7759 30.8173 48.3667C31.2067 47.9402 31.5573 47.7957 32.5211 47.6648C34.0924 47.4514 35.0929 47.0471 35.9154 46.2936C36.6288 45.64 36.9274 45.0101 36.9732 44.0619L37.008 43.3432L36.6093 42.8811C35.1654 41.2072 21.2183 29.2 21.1295 29.2C21.1105 29.2 21.5856 29.7921 22.1852 30.5157ZM25.5258 64.1487C25.8523 63.574 25.6788 62.8349 25.1328 62.4741C24.6168 62.1329 23.8153 62.2935 23.8153 62.7379C23.8153 62.8736 23.8908 62.9724 24.0608 63.0593C24.3471 63.2059 24.3679 63.3705 24.1426 63.7072C23.9145 64.048 23.9329 64.3478 24.1946 64.5515C24.6163 64.8797 25.2132 64.6992 25.5258 64.1487Z" fill="#ECC52B"/>
<path fill-rule="evenodd" clip-rule="evenodd" d="M37.9985 48.0417C37.2608 48.2669 36.5438 49.0442 36.3218 49.8594C36.1864 50.3565 36.2632 51.2287 36.4661 51.4982C36.7937 51.9333 37.1106 52.0478 37.9686 52.0418C39.6485 52.0303 41.1089 51.3139 41.2786 50.4183C41.4178 49.6842 40.7763 48.667 39.8929 48.2203C39.4372 47.9899 38.4676 47.8985 37.9985 48.0417ZM39.9622 49.5684C40.2213 49.2024 40.108 48.807 39.6673 48.5394C38.8284 48.03 37.5596 48.4515 37.5596 49.2396C37.5596 49.6319 38.2212 50.0599 38.8277 50.0599C39.2314 50.0599 39.7837 49.8207 39.9622 49.5684Z" fill="#ECC52B"/>
<path d="M206.152 76.6229V50.5084H209.921V53.4699C210.96 51.7777 212.96 50.0469 216.306 50.0469C221.306 50.0469 224.92 54.0084 224.92 60.0081C224.92 66.0078 221.306 69.9693 216.306 69.9693C212.883 69.9693 210.921 68.1615 209.96 66.6232V76.6229H206.152ZM215.421 66.9309C219.152 66.9309 220.959 63.8156 220.959 60.0081C220.959 56.2006 219.152 53.0853 215.421 53.0853C211.69 53.0853 209.806 56.2776 209.806 60.0081C209.806 63.7387 211.69 66.9309 215.421 66.9309Z" fill="#ECC52B"/>
<path d="M191.945 69.9693C188.522 69.9693 185.445 67.8923 185.445 64.3541C185.445 60.8928 187.868 59.3158 191.984 58.5082L194.599 57.9697C196.637 57.5466 197.599 57.1235 197.599 55.5467C197.599 53.97 196.291 52.8545 193.984 52.8545C191.484 52.8545 189.868 54.3928 189.715 56.9312L185.791 56.5851C186.061 52.5083 189.33 50.0469 194.022 50.0469C198.868 50.0469 201.445 52.3929 201.445 56.3929V69.5078H197.791V67.2771H197.753C196.868 68.7385 194.907 69.9693 191.945 69.9693ZM192.945 67.2386C195.637 67.2386 197.753 65.4695 197.753 62.3157V60.0081C193.753 60.662 191.868 61.2003 190.714 61.9311C189.83 62.4696 189.33 63.2386 189.33 64.2771C189.33 66.0463 190.791 67.2386 192.945 67.2386Z" fill="#ECC52B"/>
<path d="M160.972 69.5082L154.934 50.509H158.972L163.126 64.8545H163.164L167.472 50.509H171.279L175.625 64.816H175.664L179.817 50.509H183.779L177.74 69.5082H173.741L169.433 54.855H169.395L165.01 69.5082H160.972Z" fill="#ECC52B"/>
<path d="M145.615 69.9693C140.884 69.9693 137.423 67.7771 137 63.2386L140.769 62.7773C140.961 65.777 143.077 67.1617 145.692 67.1617C148.269 67.1617 149.999 66.0078 149.999 64.1618C149.999 62.3157 148.23 61.9311 145.846 61.3926L143.038 60.7389C139.961 60.0081 137.846 58.5467 137.846 55.6237C137.846 52.3929 141.038 50.0469 145.538 50.0469C149.884 50.0469 152.846 52.2391 153.345 55.7775L149.538 56.316C149.269 54.0469 147.615 52.8545 145.384 52.8545C143.115 52.8545 141.654 53.9699 141.654 55.4314C141.654 56.8158 142.5 57.3159 144.884 57.8544L147.692 58.5082C151.692 59.4312 153.807 60.7389 153.807 63.7771C153.807 67.5848 150.269 69.9693 145.615 69.9693Z" fill="#ECC52B"/>
<path d="M129.906 69.5079V50.5085H133.714V69.5079H129.906ZM129.906 47.5472V43.0474H133.714V47.5472H129.906Z" fill="#ECC52B"/>
<path d="M108.621 69.5078V50.5084H112.39V53.2007H112.429C113.506 51.547 115.621 50.0469 118.505 50.0469C122.736 50.0469 125.236 52.5853 125.236 57.2005V69.5078H121.428V58.8542C121.428 55.4314 120.659 53.2391 117.467 53.2391C114.275 53.2391 112.429 55.816 112.429 58.8927V69.5078H108.621Z" fill="#ECC52B"/>
<path d="M93.8135 69.9694C87.5061 69.9694 83.6602 66.3925 83.6602 59.8159V43.0474H87.6599V59.5851C87.6599 63.8542 89.6598 66.6233 93.8135 66.6233C98.3133 66.6233 99.967 63.8542 99.967 59.5851V43.0474H103.967V59.8159C103.967 66.3925 100.121 69.9694 93.8135 69.9694Z" fill="#ECC52B"/>
</g>
<defs>
<filter id="filter0_f_567_4204" x="-11.2" y="-1.34649" width="265.4" height="110.305" filterUnits="userSpaceOnUse" color-interpolation-filters="sRGB">
<feFlood flood-opacity="0" result="BackgroundImageFix"/>
<feBlend mode="normal" in="SourceGraphic" in2="BackgroundImageFix" result="shape"/>
<feGaussianBlur stdDeviation="14.6" result="effect1_foregroundBlur_567_4204"/>
</filter>
<clipPath id="clip0_567_4204">
<rect width="207" height="51.9051" fill="white" transform="translate(18 27.8535)"/>
</clipPath>
</defs>
</svg>
