<svg width="234" height="38" viewBox="0 0 234 38" fill="none" xmlns="http://www.w3.org/2000/svg">
<rect width="37.073" height="37.073" rx="5.45191" fill="#2104FF"/>
<path d="M22.1211 8.14728C22.1211 7.5987 22.5658 7.15399 23.1144 7.15399H27.6015V11.2196C27.6015 11.7681 27.1568 12.2129 26.6082 12.2129H22.1211V8.14728Z" fill="white"/>
<path d="M15.7969 8.14728C15.7969 7.5987 16.2416 7.15399 16.7902 7.15399H21.2773V11.2196C21.2773 11.7681 20.8326 12.2129 20.284 12.2129H15.7969V8.14728Z" fill="white"/>
<path d="M22.1211 14.0493C22.1211 13.5007 22.5658 13.056 23.1144 13.056H27.6015V17.1216C27.6015 17.6702 27.1568 18.1149 26.6082 18.1149H22.1211V14.0493Z" fill="white"/>
<path d="M15.7969 19.9514C15.7969 19.4028 16.2416 18.9581 16.7902 18.9581H21.2773V23.0236C21.2773 23.5722 20.8326 24.0169 20.284 24.0169H15.7969V19.9514Z" fill="white"/>
<path d="M9.47266 8.14728C9.47266 7.5987 9.91737 7.15399 10.4659 7.15399H14.9531V11.2196C14.9531 11.7681 14.5084 12.2129 13.9598 12.2129H9.47266V8.14728Z" fill="white"/>
<path d="M9.47266 14.0493C9.47266 13.5007 9.91737 13.056 10.4659 13.056H14.9531V17.1216C14.9531 17.6702 14.5084 18.1149 13.9598 18.1149H9.47266V14.0493Z" fill="white"/>
<path d="M9.47266 25.8533C9.47266 25.3048 9.91737 24.86 10.4659 24.86H14.9531V28.9256C14.9531 29.4742 14.5084 29.9189 13.9598 29.9189H9.47266V25.8533Z" fill="white"/>
<path d="M9.47266 19.9514C9.47266 19.4028 9.91737 18.9581 10.4659 18.9581H14.9531V23.0236C14.9531 23.5722 14.5084 24.0169 13.9598 24.0169H9.47266V19.9514Z" fill="white"/>
<path d="M50.1579 13.1064V17.8604H55.4135C57.2672 17.8604 58.2703 17.3589 58.2703 15.5052C58.2703 13.5861 56.9182 13.1064 55.6534 13.1064H50.1579ZM46.8867 26.2346V10.6639H56.4821C60.2984 10.6639 61.5415 12.9973 61.5415 15.5052C61.5415 17.8822 60.0367 20.3029 56.5257 20.3029H50.1579V26.2346H46.8867Z" fill="white"/>
<path d="M63.4893 26.2346V14.6765H66.4988V16.9227H66.5424C67.3493 15.6142 68.5923 14.3712 70.9039 14.3712C71.3619 14.3712 71.7108 14.4148 72.1033 14.4803V17.4461C71.2747 17.1844 70.7077 17.1626 70.1843 17.1626C68.6577 17.1626 66.4988 17.9695 66.4988 20.6518V26.2346H63.4893Z" fill="white"/>
<path d="M87.2573 21.2188H76.3535C76.4189 22.5055 77.2912 24.49 80.2788 24.49C82.2633 24.49 83.1356 23.7921 83.7244 22.8326H86.9956C86.3414 24.1192 84.7712 26.6707 80.3661 26.6707C75.154 26.6707 73.2132 23.6395 73.2132 20.5646C73.2132 16.7046 76.07 14.2404 80.1698 14.2404C85.2946 14.2404 87.2573 17.4025 87.2573 20.7827V21.2188ZM76.3535 19.2997H84.117C83.7462 16.9881 81.6963 16.2903 80.2134 16.2903C78.8177 16.2903 76.855 16.9445 76.3535 19.2997Z" fill="white"/>
<path d="M91.9607 20.4992C91.9607 22.4619 93.0293 24.3591 95.8643 24.3591C98.6775 24.3591 99.7461 22.4619 99.7461 20.4992C99.7461 18.5801 98.6775 16.6828 95.8643 16.6828C93.0293 16.6828 91.9607 18.5801 91.9607 20.4992ZM102.625 10.4022V26.2346H99.6152V24.6426H99.5716C99.3535 25.3405 97.5435 26.6707 95.1447 26.6707C90.7395 26.6707 88.8204 23.465 88.8204 20.4992C88.8204 17.5769 90.7395 14.3712 95.1447 14.3712C96.9547 14.3712 98.6775 14.9382 99.5716 16.3339H99.6152V10.4022H102.625Z" fill="white"/>
<path d="M105.147 26.2346V14.6765H108.157V26.2346H105.147ZM105.147 12.8447V10.4022H108.157V12.8447H105.147Z" fill="white"/>
<path d="M123.68 18.7327H120.539C120.321 17.5333 119.057 16.552 117.334 16.552C114.542 16.552 113.321 18.4492 113.321 20.4555C113.321 22.4619 114.412 24.3591 117.007 24.3591C119.34 24.3591 119.973 23.4432 120.605 21.8076H123.745C123.047 26.6053 118.141 26.6707 117.334 26.6707C112.165 26.6707 110.181 23.6395 110.181 20.4555C110.181 16.7264 112.863 14.2404 117.334 14.2404C119.078 14.2404 123.047 14.8292 123.68 18.7327Z" fill="white"/>
<path d="M126.549 23.007V16.8573H124.15V14.6765H126.549V11.1001H129.558V14.6765H132.699V16.8573H129.558V22.1347C129.558 23.465 129.624 24.1847 130.649 24.1847C131.39 24.1847 132.088 24.1628 132.808 24.141V26.3218C132.001 26.4308 131.412 26.4963 130.496 26.4963C126.833 26.4963 126.549 25.1878 126.549 23.007Z" fill="white"/>
<path d="M134.863 26.2346V10.6639H139.573L145.025 22.7454L150.433 10.6639H155.1V26.2346H152.025L152.156 13.3681H152.113L146.355 26.2346H143.564L137.85 13.3681H137.807L137.938 26.2346H134.863Z" fill="white"/>
<path d="M170.327 18.1221V23.5958C170.327 24.2283 170.785 24.2501 170.981 24.2501C171.264 24.2501 171.722 24.2283 171.962 24.1847V26.3C171.373 26.409 170.85 26.5617 169.825 26.5617C167.862 26.5617 167.644 25.5149 167.557 25.0788C166.968 25.6458 165.507 26.6707 162.127 26.6707C159.118 26.6707 157.417 25.3187 157.417 23.0507C157.417 19.8667 160.688 19.5832 162.607 19.4088C166.925 18.9944 167.383 18.8418 167.383 17.9477C167.383 16.6174 165.856 16.2903 164.112 16.2903C162.127 16.2903 161.058 16.9227 160.949 18.2094H158.005C158.442 15.1781 160.688 14.2404 164.112 14.2404C170.152 14.2404 170.327 16.6174 170.327 18.1221ZM167.317 21.5895V20.4774C166.445 20.8481 165.507 20.9571 163.37 21.197C161.102 21.4587 160.557 21.9603 160.557 22.9416C160.557 24.4682 161.953 24.7517 162.978 24.7517C164.591 24.7517 167.317 24.141 167.317 21.5895Z" fill="white"/>
<path d="M173.273 26.2346V14.6765H176.282V16.9227H176.326C177.133 15.6142 178.376 14.3712 180.688 14.3712C181.146 14.3712 181.494 14.4148 181.887 14.4803V17.4461C181.058 17.1844 180.491 17.1626 179.968 17.1626C178.441 17.1626 176.282 17.9695 176.282 20.6518V26.2346H173.273Z" fill="white"/>
<path d="M183.368 26.2346V10.4022H186.377V19.2997L191.72 14.6765H195.972L190.629 19.0381L196.43 26.2346H192.374L188.274 20.9571L186.377 22.5055V26.2346H183.368Z" fill="white"/>
<path d="M210.777 21.2188H199.873C199.939 22.5055 200.811 24.49 203.799 24.49C205.783 24.49 206.656 23.7921 207.244 22.8326H210.515C209.861 24.1192 208.291 26.6707 203.886 26.6707C198.674 26.6707 196.733 23.6395 196.733 20.5646C196.733 16.7046 199.59 14.2404 203.69 14.2404C208.814 14.2404 210.777 17.4025 210.777 20.7827V21.2188ZM199.873 19.2997H207.637C207.266 16.9881 205.216 16.2903 203.733 16.2903C202.338 16.2903 200.375 16.9445 199.873 19.2997Z" fill="white"/>
<path d="M213.78 23.007V16.8573H211.381V14.6765H213.78V11.1001H216.789V14.6765H219.929V16.8573H216.789V22.1347C216.789 23.465 216.855 24.1847 217.879 24.1847C218.621 24.1847 219.319 24.1628 220.038 24.141V26.3218C219.232 26.4308 218.643 26.4963 217.727 26.4963C214.063 26.4963 213.78 25.1878 213.78 23.007Z" fill="white"/>
<path d="M221.134 22.6145H224.405C224.492 24.3591 226.498 24.6208 227.589 24.6208C229.094 24.6208 230.729 24.2283 230.729 23.1379C230.729 22.2438 230.228 21.9385 226.978 21.5023C223.402 21.0225 221.526 20.6082 221.526 17.9695C221.526 14.6765 225.364 14.2404 227.305 14.2404C229.094 14.2404 233.39 14.5021 233.564 18.2094H230.424C230.184 16.4866 228.178 16.2903 227.153 16.2903C225.452 16.2903 224.536 17.0099 224.536 17.6206C224.536 18.5583 224.819 18.7109 227.72 19.1253C231.514 19.6705 234 20.0412 234 22.7235C234 25.6676 231.187 26.6707 227.611 26.6707C225.146 26.6707 221.243 26.1473 221.134 22.6145Z" fill="white"/>
</svg>
