<svg width="234" height="38" viewBox="0 0 234 38" fill="none" xmlns="http://www.w3.org/2000/svg">
<rect width="37.073" height="37.073" rx="5.45191" fill="#0080ED"/>
<path d="M22.1216 8.14759C22.1216 7.59901 22.5663 7.1543 23.1149 7.1543H27.602V11.2199C27.602 11.7685 27.1573 12.2132 26.6087 12.2132H22.1216V8.14759Z" fill="white"/>
<path d="M15.7935 8.14759C15.7935 7.59901 16.2382 7.1543 16.7868 7.1543H21.2739V11.2199C21.2739 11.7685 20.8292 12.2132 20.2806 12.2132H15.7935V8.14759Z" fill="white"/>
<path d="M22.1216 14.0499C22.1216 13.5014 22.5663 13.0566 23.1149 13.0566H27.602V17.1222C27.602 17.6708 27.1573 18.1155 26.6087 18.1155H22.1216V14.0499Z" fill="white"/>
<path d="M15.7935 19.9523C15.7935 19.4037 16.2382 18.959 16.7868 18.959H21.2739V23.0246C21.2739 23.5731 20.8292 24.0179 20.2806 24.0179H15.7935V19.9523Z" fill="white"/>
<path d="M9.47314 8.14759C9.47314 7.59901 9.91786 7.1543 10.4664 7.1543H14.9536V11.2199C14.9536 11.7685 14.5089 12.2132 13.9603 12.2132H9.47314V8.14759Z" fill="white"/>
<path d="M9.47314 14.0499C9.47314 13.5014 9.91786 13.0566 10.4664 13.0566H14.9536V17.1222C14.9536 17.6708 14.5089 18.1155 13.9603 18.1155H9.47314V14.0499Z" fill="white"/>
<path d="M9.47314 25.8546C9.47314 25.306 9.91786 24.8613 10.4664 24.8613H14.9536V28.9269C14.9536 29.4755 14.5089 29.9202 13.9603 29.9202H9.47314V25.8546Z" fill="white"/>
<path d="M9.47314 19.9523C9.47314 19.4037 9.91786 18.959 10.4664 18.959H14.9536V23.0246C14.9536 23.5731 14.5089 24.0179 13.9603 24.0179H9.47314V19.9523Z" fill="white"/>
<path d="M50.1574 13.1065V17.8606H55.413C57.2667 17.8606 58.2698 17.359 58.2698 15.5053C58.2698 13.5863 56.9178 13.1065 55.6529 13.1065H50.1574ZM46.8862 26.2347V10.664H56.4816C60.2979 10.664 61.541 12.9975 61.541 15.5053C61.541 17.8824 60.0362 20.303 56.5252 20.303H50.1574V26.2347H46.8862Z" fill="black"/>
<path d="M63.4888 26.2347V14.6766H66.4983V16.9228H66.5419C67.3488 15.6144 68.5918 14.3713 70.9034 14.3713C71.3614 14.3713 71.7103 14.415 72.1029 14.4804V17.4462C71.2742 17.1845 70.7072 17.1627 70.1838 17.1627C68.6573 17.1627 66.4983 17.9696 66.4983 20.6519V26.2347H63.4888Z" fill="black"/>
<path d="M87.2568 21.2189H76.353C76.4184 22.5056 77.2907 24.4901 80.2783 24.4901C82.2628 24.4901 83.1351 23.7922 83.724 22.8327H86.9951C86.3409 24.1194 84.7707 26.6709 80.3656 26.6709C75.1535 26.6709 73.2127 23.6396 73.2127 20.5647C73.2127 16.7048 76.0695 14.2405 80.1693 14.2405C85.2941 14.2405 87.2568 17.4026 87.2568 20.7828V21.2189ZM76.353 19.2999H84.1165C83.7458 16.9883 81.6958 16.2904 80.2129 16.2904C78.8172 16.2904 76.8545 16.9446 76.353 19.2999Z" fill="black"/>
<path d="M91.9603 20.4993C91.9603 22.462 93.0288 24.3592 95.8638 24.3592C98.677 24.3592 99.7456 22.462 99.7456 20.4993C99.7456 18.5802 98.677 16.6829 95.8638 16.6829C93.0288 16.6829 91.9603 18.5802 91.9603 20.4993ZM102.624 10.4023V26.2347H99.6147V24.6427H99.5711C99.3531 25.3406 97.543 26.6709 95.1442 26.6709C90.739 26.6709 88.82 23.4651 88.82 20.4993C88.82 17.5771 90.739 14.3713 95.1442 14.3713C96.9542 14.3713 98.677 14.9383 99.5711 16.334H99.6147V10.4023H102.624Z" fill="black"/>
<path d="M105.147 26.2347V14.6766H108.156V26.2347H105.147ZM105.147 12.8448V10.4023H108.156V12.8448H105.147Z" fill="black"/>
<path d="M123.679 18.7329H120.539C120.321 17.5334 119.056 16.5521 117.333 16.5521C114.542 16.5521 113.321 18.4494 113.321 20.4557C113.321 22.462 114.411 24.3592 117.006 24.3592C119.34 24.3592 119.972 23.4433 120.604 21.8077H123.745C123.047 26.6054 118.14 26.6709 117.333 26.6709C112.165 26.6709 110.18 23.6396 110.18 20.4557C110.18 16.7266 112.863 14.2405 117.333 14.2405C119.078 14.2405 123.047 14.8293 123.679 18.7329Z" fill="black"/>
<path d="M126.549 23.0072V16.8574H124.15V14.6766H126.549V11.1002H129.558V14.6766H132.698V16.8574H129.558V22.1349C129.558 23.4651 129.623 24.1848 130.648 24.1848C131.39 24.1848 132.088 24.163 132.807 24.1412V26.3219C132 26.431 131.412 26.4964 130.496 26.4964C126.832 26.4964 126.549 25.1879 126.549 23.0072Z" fill="black"/>
<path d="M134.862 26.2347V10.664H139.573L145.025 22.7455L150.433 10.664H155.1V26.2347H152.025L152.156 13.3682H152.112L146.355 26.2347H143.563L137.85 13.3682H137.806L137.937 26.2347H134.862Z" fill="black"/>
<path d="M170.326 18.1223V23.596C170.326 24.2284 170.784 24.2502 170.98 24.2502C171.264 24.2502 171.722 24.2284 171.962 24.1848V26.3001C171.373 26.4092 170.85 26.5618 169.825 26.5618C167.862 26.5618 167.644 25.515 167.557 25.0789C166.968 25.6459 165.507 26.6709 162.127 26.6709C159.117 26.6709 157.416 25.3188 157.416 23.0508C157.416 19.8669 160.687 19.5834 162.606 19.4089C166.924 18.9946 167.382 18.8419 167.382 17.9478C167.382 16.6175 165.856 16.2904 164.111 16.2904C162.127 16.2904 161.058 16.9228 160.949 18.2095H158.005C158.441 15.1782 160.687 14.2405 164.111 14.2405C170.152 14.2405 170.326 16.6175 170.326 18.1223ZM167.317 21.5897V20.4775C166.444 20.8482 165.507 20.9572 163.37 21.1971C161.102 21.4588 160.556 21.9604 160.556 22.9417C160.556 24.4683 161.952 24.7518 162.977 24.7518C164.591 24.7518 167.317 24.1412 167.317 21.5897Z" fill="black"/>
<path d="M173.272 26.2347V14.6766H176.282V16.9228H176.326C177.132 15.6144 178.375 14.3713 180.687 14.3713C181.145 14.3713 181.494 14.415 181.886 14.4804V17.4462C181.058 17.1845 180.491 17.1627 179.967 17.1627C178.441 17.1627 176.282 17.9696 176.282 20.6519V26.2347H173.272Z" fill="black"/>
<path d="M183.367 26.2347V10.4023H186.376V19.2999L191.719 14.6766H195.972L190.629 19.0382L196.43 26.2347H192.374L188.274 20.9572L186.376 22.5056V26.2347H183.367Z" fill="black"/>
<path d="M210.777 21.2189H199.873C199.938 22.5056 200.811 24.4901 203.798 24.4901C205.783 24.4901 206.655 23.7922 207.244 22.8327H210.515C209.861 24.1194 208.291 26.6709 203.885 26.6709C198.673 26.6709 196.733 23.6396 196.733 20.5647C196.733 16.7048 199.589 14.2405 203.689 14.2405C208.814 14.2405 210.777 17.4026 210.777 20.7828V21.2189ZM199.873 19.2999H207.636C207.266 16.9883 205.216 16.2904 203.733 16.2904C202.337 16.2904 200.374 16.9446 199.873 19.2999Z" fill="black"/>
<path d="M213.779 23.0072V16.8574H211.38V14.6766H213.779V11.1002H216.789V14.6766H219.929V16.8574H216.789V22.1349C216.789 23.4651 216.854 24.1848 217.879 24.1848C218.62 24.1848 219.318 24.163 220.038 24.1412V26.3219C219.231 26.431 218.642 26.4964 217.726 26.4964C214.063 26.4964 213.779 25.1879 213.779 23.0072Z" fill="black"/>
<path d="M221.133 22.6146H224.404C224.492 24.3592 226.498 24.6209 227.588 24.6209C229.093 24.6209 230.729 24.2284 230.729 23.138C230.729 22.2439 230.227 21.9386 226.978 21.5024C223.401 21.0227 221.526 20.6083 221.526 17.9696C221.526 14.6766 225.364 14.2405 227.305 14.2405C229.093 14.2405 233.389 14.5022 233.564 18.2095H230.423C230.183 16.4867 228.177 16.2904 227.152 16.2904C225.451 16.2904 224.535 17.0101 224.535 17.6207C224.535 18.5584 224.819 18.7111 227.719 19.1254C231.514 19.6706 234 20.0413 234 22.7237C234 25.6677 231.187 26.6709 227.61 26.6709C225.146 26.6709 221.242 26.1475 221.133 22.6146Z" fill="black"/>
</svg>
