<svg preserveAspectRatio="none" width="100%" height="100%" overflow="visible" style="display: block;" viewBox="0 0 20 20" fill="none" xmlns="http://www.w3.org/2000/svg">
<g id="Bitcoin logo" clip-path="url(#clip0_0_47)">
<path id="Vector" d="M19.7009 12.425C18.3644 17.7706 12.945 21.0375 7.575 19.7009C2.22937 18.3644 -1.0375 12.945 0.299063 7.575C1.63562 2.22937 7.055 -1.0375 12.425 0.299063C17.7706 1.63562 21.0375 7.055 19.7009 12.425Z" fill="var(--fill-0, #F7931A)"/>
<path id="Vector_2" d="M14.405 8.56469C14.6031 7.22844 13.5884 6.51062 12.2025 6.04062L12.6478 4.23438L11.5591 3.9625L11.1137 5.71969C10.8169 5.64531 10.52 5.57125 10.2231 5.52156L10.6684 3.76437L9.57969 3.4925L9.13437 5.29875C8.88687 5.24937 8.66406 5.19969 8.44156 5.12563L6.93219 4.75437L6.63531 5.9175L7.42719 6.11562C7.8725 6.21469 7.94688 6.51156 7.94688 6.75937L7.42625 8.8125C7.45125 8.8125 7.50063 8.8375 7.55 8.8375C7.525 8.8375 7.47563 8.8125 7.42625 8.8125L6.70844 11.6831C6.65906 11.8069 6.51031 12.0269 6.21344 11.955C6.21344 11.98 5.42156 11.7569 5.42156 11.7569L4.87719 13.0194L6.3125 13.3631C6.58438 13.4375 6.83219 13.5116 7.10437 13.5613L6.65906 15.3925L7.74781 15.6644L8.19313 13.8581L9.0625 14.0844L8.61719 15.8906L9.70594 16.1625L10.1513 14.3313C12.0319 14.675 13.4178 14.5541 14.0119 12.8469C14.4822 11.4859 13.9869 10.6906 12.9972 10.1741C13.7397 10.0256 14.2597 9.55531 14.4078 8.56563L14.405 8.56469ZM11.9056 12.1031C11.5619 13.4641 9.2825 12.7219 8.54 12.5484L9.13375 10.1234C9.87625 10.2966 12.2519 10.6678 11.9056 12.1031ZM12.2494 8.56437C11.9525 9.80187 10.0222 9.18312 9.40344 9.00969L9.94781 6.80719C10.5666 6.98031 12.5709 7.2525 12.2494 8.56437Z" fill="var(--fill-0, white)"/>
</g>
<defs>
<clipPath id="clip0_0_47">
<rect width="20" height="20" fill="white"/>
</clipPath>
</defs>
</svg>
