<svg preserveAspectRatio="none" width="100%" height="100%" overflow="visible" style="display: block;" viewBox="0 0 20 20" fill="none" xmlns="http://www.w3.org/2000/svg">
<g id="Payment Method Icon">
<circle id="Ellipse 19" cx="10" cy="10" r="10" fill="var(--fill-0, white)"/>
<g id="Payment Method Icon_2">
<path id="Vector" d="M7.28322 13.9637C4.89396 13.9637 2.95015 12.0198 2.95015 9.63058C2.95015 7.24132 4.89396 5.29751 7.28322 5.29751C9.6725 5.29751 11.6163 7.24132 11.6163 9.63058C11.6163 12.0198 9.6725 13.9637 7.28322 13.9637Z" fill="var(--fill-0, #EE2C3C)"/>
<path id="Vector_2" d="M12.4887 5.29751C11.0787 5.29751 9.83601 5.98474 9.04479 7.03074H10.7338C10.9374 7.29939 11.1186 7.58537 11.2555 7.89735H8.5239C8.39986 8.17537 8.30607 8.46591 8.24401 8.76397H11.5354C11.5918 9.04389 11.6221 9.3342 11.6221 9.63058H8.15562C8.15562 9.92696 8.18594 10.2173 8.24318 10.4972H11.5345C11.4725 10.7953 11.3787 11.0858 11.2546 11.3638H8.52307C8.65998 11.6758 8.84108 11.9617 9.04479 12.2304H10.7338C10.4922 12.5493 10.2079 12.8333 9.88885 13.0745C10.6345 13.648 11.548 13.9605 12.4887 13.9636C14.878 13.9636 16.8218 12.0198 16.8218 9.63058C16.8218 7.24132 14.878 5.29751 12.4887 5.29751Z" fill="var(--fill-0, #F99D3C)"/>
</g>
</g>
</svg>
