<svg preserveAspectRatio="none" width="100%" height="100%" overflow="visible" style="display: block;" viewBox="0 0 20 20" fill="none" xmlns="http://www.w3.org/2000/svg">
<g id="Solana (SOL)">
<path id="Vector" d="M10 20C15.5228 20 20 15.5228 20 10C20 4.47715 15.5228 0 10 0C4.47715 0 0 4.47715 0 10C0 15.5228 4.47715 20 10 20Z" fill="var(--fill-0, black)"/>
<g id="Group">
<g id="Vector_2">
<path d="M6.69453 11.8065C6.72694 11.7737 6.76591 11.7477 6.80903 11.7301C6.85215 11.7125 6.89851 11.7037 6.94526 11.7042H15.6613C15.6855 11.7054 15.7093 11.7112 15.7312 11.7214C15.7532 11.7316 15.7728 11.7459 15.789 11.7636C15.8052 11.7812 15.8177 11.8018 15.8257 11.8241C15.8337 11.8464 15.837 11.8701 15.8356 11.8937C15.8336 11.9368 15.8163 11.978 15.7866 12.01L14.0649 13.6834C13.9984 13.7483 13.9083 13.7851 13.8142 13.7858H5.09819C5.06019 13.7888 5.0222 13.7798 4.98983 13.7602C4.95745 13.7406 4.93239 13.7114 4.91835 13.6769C4.90431 13.6424 4.90202 13.6044 4.91183 13.5685C4.92163 13.5326 4.94301 13.5007 4.97282 13.4776L6.69453 11.8065Z" fill="url(#paint0_linear_0_14)"/>
<path d="M6.69506 5.54183C6.76139 5.47653 6.85149 5.43934 6.94579 5.43834H15.6618C15.6968 5.43882 15.731 5.44931 15.76 5.4685C15.789 5.4877 15.8115 5.51477 15.8249 5.54634C15.8382 5.57791 15.8418 5.6126 15.8351 5.64612C15.8284 5.67963 15.8117 5.71049 15.7872 5.73488L14.0654 7.41874C13.9989 7.48362 13.9089 7.52038 13.8147 7.52108H5.09872C5.04983 7.51837 5.00403 7.49691 4.97135 7.46138C4.93868 7.42585 4.92179 7.37916 4.9244 7.33153C4.92637 7.28841 4.94368 7.2473 4.97335 7.21524L6.69506 5.54183Z" fill="url(#paint1_linear_0_14)"/>
<path d="M14.0654 8.65291C14.0329 8.62016 13.994 8.59412 13.9509 8.57633C13.9078 8.55855 13.8615 8.5494 13.8147 8.54942H5.09872C5.04983 8.55212 5.00403 8.57358 4.97135 8.60911C4.93868 8.64464 4.92179 8.69134 4.9244 8.73897C4.92617 8.78213 4.94351 8.8233 4.97335 8.85526L6.69506 10.524C6.72758 10.5568 6.76655 10.5828 6.80962 10.6006C6.8527 10.6184 6.89901 10.6275 6.94579 10.6275H15.6618C15.6968 10.627 15.731 10.6165 15.76 10.5973C15.789 10.5781 15.8115 10.5511 15.8249 10.5195C15.8382 10.4879 15.8418 10.4532 15.8351 10.4197C15.8284 10.3862 15.8117 10.3553 15.7872 10.331L14.0654 8.65291Z" fill="url(#paint2_linear_0_14)"/>
</g>
</g>
</g>
<defs>
<linearGradient id="paint0_linear_0_14" x1="10.3813" y1="8.54942" x2="10.3813" y2="10.6275" gradientUnits="userSpaceOnUse">
<stop stop-color="#28D2BA"/>
<stop offset="0.466346" stop-color="#7686D7"/>
<stop offset="1" stop-color="#AC4DED"/>
</linearGradient>
<linearGradient id="paint1_linear_0_14" x1="10.3813" y1="8.54942" x2="10.3813" y2="10.6275" gradientUnits="userSpaceOnUse">
<stop stop-color="#28D2BA"/>
<stop offset="0.466346" stop-color="#7686D7"/>
<stop offset="1" stop-color="#AC4DED"/>
</linearGradient>
<linearGradient id="paint2_linear_0_14" x1="10.3813" y1="8.54942" x2="10.3813" y2="10.6275" gradientUnits="userSpaceOnUse">
<stop stop-color="#28D2BA"/>
<stop offset="0.466346" stop-color="#7686D7"/>
<stop offset="1" stop-color="#AC4DED"/>
</linearGradient>
</defs>
</svg>
