<svg preserveAspectRatio="none" width="100%" height="100%" overflow="visible" style="display: block;" viewBox="0 0 20 20" fill="none" xmlns="http://www.w3.org/2000/svg">
<g id="Payment Method Icon">
<circle id="Ellipse 19" cx="10" cy="10" r="10" fill="var(--fill-0, white)"/>
<g id="Group">
<path id="Vector" d="M8.17802 7.0878L7.30547 12.184H8.70101L9.57428 7.0878H8.17802ZM6.13532 7.09351L4.76849 10.569L4.62278 10.0442C4.35321 9.41193 3.58796 8.50385 2.68954 7.93157L3.93936 12.1815L5.41599 12.179L7.61377 7.09244L6.13532 7.09351Z" fill="var(--fill-0, #1434CB)"/>
<path id="Vector_2" d="M4.09014 7.45827C4.00902 7.14783 3.77391 7.05531 3.4821 7.04424H1.31842L1.30047 7.14569C2.98425 7.55221 4.09839 8.53174 4.56068 9.70952L4.09014 7.45827ZM12.3999 8.06484C12.7579 8.0569 13.1137 8.12334 13.4444 8.25989L13.5704 8.31883L13.7592 7.21428C13.4828 7.11104 13.0496 7.0003 12.509 7.0003C11.13 7.0003 10.158 7.69153 10.1504 8.68213C10.1415 9.41409 10.8428 9.82276 11.3726 10.0668C11.9164 10.3168 12.0987 10.4758 12.0962 10.6991C12.092 11.0402 11.6627 11.1967 11.2617 11.1967C10.7029 11.1967 10.406 11.1198 9.94766 10.9298L9.76779 10.8484L9.57145 11.989C9.89809 12.1315 10.5007 12.2541 11.1264 12.2605C12.5933 12.2605 13.5467 11.5775 13.5567 10.519C13.5628 9.93993 13.1906 9.49804 12.3841 9.13545C11.8959 8.89897 11.5973 8.74179 11.6002 8.50316C11.6002 8.29132 11.8536 8.06484 12.3999 8.06484ZM17.3407 7.09353H16.2624C15.9275 7.09353 15.6784 7.18427 15.5313 7.51649L13.4591 12.1869H14.9247C14.9247 12.1869 15.1637 11.5589 15.2179 11.4214L17.0051 11.4235C17.0467 11.6014 17.1752 12.1869 17.1752 12.1869H18.4699L17.3407 7.09353ZM15.6196 10.3783C15.7344 10.0857 16.1756 8.95398 16.1756 8.95398C16.1681 8.96791 16.2893 8.65926 16.3615 8.46743L16.4556 8.90682L16.7789 10.3783H15.6196Z" fill="var(--fill-0, #1434CB)"/>
</g>
</g>
</svg>
