<svg width="197" height="45" viewBox="0 0 197 45" fill="none" xmlns="http://www.w3.org/2000/svg">
<path d="M185.69 14.8477C185.699 12.8761 185.731 10.6655 185.694 8.90345C185.626 5.69231 185.393 4.41395 182.33 3.19908C182.011 3.07246 182.21 2.4912 181.808 2.15279L181.382 2.32187L181.304 2.14611C182.058 1.66623 189.598 0.149592 190.746 0.0427722C191.424 -0.0147839 192.106 0.0141815 192.777 0.12917C192.674 2.1882 192.768 4.82266 192.769 6.93132L192.768 20.2347L192.761 31.506C192.758 34.4413 192.559 38.3709 193.228 41.1378C194.746 42.4747 195.846 41.8348 196.426 42.6549L196.412 43.263L196.167 43.4208C195.496 42.7329 193.674 43.1758 192.767 43.3018C192.634 43.3202 191.762 43.4712 191.676 43.5242C190.398 43.4263 187.795 43.5278 186.405 43.4096C186.234 43.395 186.146 42.1869 186.114 41.9896C186.047 41.5928 186.079 41.0031 185.762 40.6883C185.152 40.5892 183.477 42.1068 182.788 42.5226C179.182 44.6989 173.882 44.3042 170.536 41.9259C161.888 35.7787 164.924 16.9874 175.914 15.2005C177.303 15.3541 182.986 15.4956 184.204 15.0513L184.314 14.8055C184.721 14.6962 185.26 14.7975 185.69 14.8477ZM180.252 39.9001C186.483 39.9652 185.684 38.4389 185.692 33.0914L185.685 25.0296C185.678 23.6867 185.289 19.3084 184.352 18.3834C181.609 15.6762 180.597 16.3349 177.385 16.0984C177.562 16.2688 177.72 16.4093 177.907 16.5686C177.564 16.9013 176.834 16.6815 175.836 17.3388C173.488 18.8848 172.856 21.0455 172.377 23.762C171.738 27.3883 172.272 32.9222 174.438 35.9883C175.499 37.4909 177.881 39.5279 179.805 39.8353C179.953 39.8587 180.103 39.8803 180.252 39.9001Z" fill="#ACACAC"/>
<path d="M85.6243 44.0176C85.4581 31.2933 85.8235 18.5214 85.4432 5.81828C85.3994 4.35487 83.4089 3.62595 82.4059 3.00075C82.3294 2.70084 82.3099 2.61506 82.1652 2.33124L81.9308 2.28247L81.625 2.68858L81.513 2.47495L81.7354 2.56642L81.5119 2.39387C81.5109 2.27294 81.5478 2.0947 81.5678 1.96944C82.2858 1.6168 89.3565 0.26553 90.6583 0.0296118C90.9207 -0.0179185 92.0691 0.00299985 92.4145 0.0157489C92.6487 2.61296 92.2892 16.7808 92.6992 17.724C92.8866 17.7151 93.9345 16.7876 94.2725 16.5536C98.0024 13.9692 102.597 13.5411 106.657 15.6547C116.408 20.7315 114.025 39.4286 103.705 42.6096C103.689 42.6109 103.673 42.612 103.657 42.6138C103.489 42.6322 103.389 42.6615 103.237 42.7305C102.161 43.2201 94.3065 43.0446 92.5483 43.1559C91.5428 43.0631 89.7855 42.3947 88.6381 42.4806C88.157 42.5166 87.387 43.5417 86.953 43.7413C86.8377 43.7944 85.8115 43.9826 85.6243 44.0176ZM101.25 41.486C108.197 40.0652 108.594 18.2853 97.2288 18.3441C96.1012 18.435 93.6328 18.5002 92.9967 19.4436C92.2292 20.5818 92.6237 23.759 92.5321 25.221C92.4845 25.9795 92.5819 26.6759 92.5408 27.4318C92.678 33.0421 91.016 41.9996 99.3417 42.0295C99.9631 42.0318 100.338 41.5377 101.25 41.486Z" fill="#ACACAC"/>
<path d="M130.49 14.1614C138.706 13.8786 145.605 20.2858 145.931 28.4992C146.256 36.7125 139.885 43.6457 131.674 44.014C123.402 44.385 116.406 37.9564 116.078 29.6823C115.75 21.4082 122.215 14.4462 130.49 14.1614ZM133.372 42.1701C137.828 41.2133 138.116 33.9003 138.03 30.2903C137.92 25.6928 137.311 19.5968 133.157 16.7708C132.186 16.1106 130.125 15.842 128.977 16.107C124.107 16.2862 123.782 25.3461 123.945 28.9122C124.159 33.6163 125.836 42.5937 132.009 42.2713C132.463 42.2447 132.918 42.211 133.372 42.1701Z" fill="#ACACAC"/>
<path d="M49.3241 17.103C49.3553 16.8708 49.3372 16.4927 49.5225 16.331C49.7712 16.1143 58.5184 14.314 59.2547 14.425C59.4114 14.4486 59.4687 14.511 59.5912 14.6045C59.7597 15.7388 59.5763 17.321 59.794 18.2357L59.9442 18.3208L60.0905 18.2342L60.0631 17.7515C60.4158 17.4747 61.3881 17.6001 61.6412 17.399C62.2126 16.945 62.6099 16.5652 63.2508 16.1492C65.4691 14.7073 68.1221 14.0876 70.7496 14.3974C72.6882 14.6252 74.9057 15.3268 76.1502 16.9246C79.8232 21.6397 76.2057 37.8027 78.8954 41.6716C80.3695 42.1977 81.1365 41.7621 81.2923 43.3922L81.1921 43.5895L80.9421 43.5475L80.7944 43.186C80.4816 43.086 79.9357 43.1834 79.5868 43.2224C79.7106 43.3831 80.1272 43.4623 80.3479 43.5253L80.2876 43.6006C79.5429 43.6205 78.8553 43.5816 78.1063 43.5513C74.8991 43.4211 71.6796 43.4659 68.4718 43.4212C68.2745 43.4184 67.9206 43.1829 67.785 43.0647L67.5667 43.124L67.4891 43.6277L67.3085 43.6827C67.0781 43.4435 66.9779 42.6033 66.9231 42.2271C67.6015 42.1829 68.3266 42.1475 68.9985 42.0782C69.5243 41.6137 69.6396 41.5334 70.2829 41.2404C71.3678 37.9561 70.9001 33.7311 70.9652 30.3325C71.0921 23.7069 71.7732 15.7202 62.2803 18.9218C61.751 19.0971 61.3265 19.3815 60.7687 19.536C60.4925 19.8904 60.1939 20.2929 59.891 20.6192C59.6664 23.5271 59.6759 26.6681 59.707 29.5952C59.7495 33.6139 59.3895 37.3559 60.5006 41.2535C61.645 41.9297 63.3547 42.1048 63.7284 42.6543L63.6466 43.2787L63.4569 43.3329C62.5102 42.5534 60.3119 43.3775 58.9878 43.3688L59.1745 43.5496C58.7733 43.469 56.5148 43.4636 56.007 43.4667C53.8261 43.4801 52.2108 43.4181 50.0499 43.1392C49.6333 43.3292 50.1014 43.3088 49.7848 43.706L49.5293 43.6612C49.2813 43.1364 49.395 42.0832 50.1532 42.1489C50.6656 42.1933 51.1747 42.0413 51.6656 41.8835C51.9685 41.4153 52.421 40.8421 52.5721 40.3052C53.2282 37.9753 53.3721 21.3435 52.2683 19.4147C51.7258 18.4668 50.3991 17.811 49.3718 17.5327L49.3241 17.103Z" fill="#ACACAC"/>
<path d="M0 2.50823C6.45601 2.45104 12.9124 2.44461 19.3684 2.48917C22.626 2.48904 26.6989 2.32727 29.8728 2.50266C30.2433 4.02499 31.6235 10.1039 31.3289 11.2606C31.2855 11.4312 31.2682 11.4202 31.1185 11.5072L31.1518 11.1995C30.801 10.7348 30.3458 10.9456 30.1592 10.6598C25.1546 2.9912 21.0413 3.86235 12.8571 4.71381C12.6773 6.174 12.7474 9.19415 12.7489 10.7416L12.7691 21.2418C16.1175 21.2563 23.9617 22.1554 24.0635 17.4076L24.1868 17.9246C24.3351 17.675 24.1139 17.4497 24.3308 17.074C24.4013 17.3354 24.476 17.4621 24.5959 17.6991L24.7038 17.6281C24.8232 17.262 24.7774 16.6486 24.7699 16.2442C24.7822 15.7624 24.7461 15.4772 25.0362 15.0924L25.2904 14.9488C26.0163 15.484 25.7497 25.2756 25.7066 26.9197C25.6906 27.5278 25.6943 29.2194 25.4033 29.7182L25.1954 29.8275C24.8052 29.5802 24.8086 29.3224 24.7959 28.8806C24.8082 28.4447 24.8131 28.0085 24.811 27.5723L24.5918 27.5026L24.6818 27.3261L24.288 27.7201L24.2979 27.7344C24.1501 27.5083 24.2117 27.2689 24.2146 26.9501L24.1355 27.1969C24.1165 27.0327 24.0902 26.7234 24.0519 26.5774C23.0331 22.6944 15.6193 23.7655 12.7812 23.4464C12.7438 26.2453 12.7323 29.0442 12.7467 31.8432C12.75 34.6313 12.3943 38.5561 14.081 40.9248C14.8409 41.9918 19.053 42.1068 19.3722 42.6646C18.5814 43.1227 16.2782 43.0373 15.2728 43.0561C15.18 43.0374 11.2424 43.1528 10.9817 43.1825C10.7687 43.2179 8.33112 43.2434 8.16774 43.2184C6.92847 43.0288 2.24904 43.7765 1.40946 43.4807L1.35178 43.2191L0.965344 43.0204L0.776706 43.1024L0.718902 43.6277L0.526798 43.6936C0.303627 43.4658 0.157816 42.6344 0.0601551 42.2554C2.12749 42.1297 2.57953 42.2183 4.36008 41.0816C4.62793 40.5832 5.0546 39.8077 5.1176 39.2715C5.62831 34.9179 5.54921 30.4274 5.53621 26.0548C5.51146 21.2923 5.58437 16.5209 5.49846 11.7598C5.47297 10.3463 5.33211 8.76589 5.19236 7.36684C5.10794 6.52157 4.76211 4.99169 4.04878 4.49646C3.56183 4.15842 2.53175 4.17241 1.98404 3.83413C2.0083 3.8491 1.98651 3.62828 1.8152 3.46861C1.59141 3.63324 1.44672 3.73449 1.20374 3.87782C1.19904 3.46762 1.25696 3.59722 1.03441 3.33976L0.754055 3.36712C0.652804 3.568 0.647483 3.60873 0.473822 3.74154L0 2.50823ZM18.1253 21.6512L18.1281 21.438C17.5865 21.33 13.436 21.3348 12.8071 21.4375C13.7713 21.8794 17.319 22.3347 18.1253 21.6512Z" fill="#ACACAC"/>
<path d="M12.807 21.4375C13.4359 21.3347 17.5864 21.3299 18.1281 21.4379L18.1252 21.6511C17.319 22.3346 13.7712 21.8793 12.807 21.4375Z" fill="#ACACAC"/>
<path d="M148.068 42.6241L148.11 42.3998C148.391 42.2124 148.508 42.2281 148.839 42.2231C151.466 42.2633 151.884 40.1478 151.934 37.9437C152.16 27.8208 152.027 17.6374 152.001 7.50777C151.994 5.10972 150.94 4.21024 149.021 3.08053C148.932 3.02767 149.017 2.73235 148.692 2.57626C148.612 2.78 148.527 2.96851 148.438 3.16792L148.244 3.14972C148.095 2.60882 148.085 2.48368 148.099 1.92223C148.498 1.70092 149.487 1.58407 149.978 1.48715C152.915 0.908619 155.913 -0.202898 158.936 0.0876065C158.819 8.22642 158.958 16.745 158.953 24.9161L158.946 33.461C158.946 35.8696 158.594 39.8076 160.035 41.7403C160.869 42.0469 162.191 42.2853 163.154 42.5677C162.106 43.2012 160.69 42.6159 159.67 43.1489C158.208 43.9125 148.737 42.8473 148.628 42.9412C148.569 42.9914 148.456 43.348 148.39 43.4528L148.25 43.3158C148.265 42.9926 148.241 42.8974 148.068 42.6241Z" fill="#ACACAC"/>
<path d="M35.6576 18.9471C34.6232 18.3836 33.5703 17.8548 32.5005 17.3616C32.5738 16.8584 32.5903 16.7333 32.7951 16.2729C33.7593 16.0379 34.9846 15.9114 35.9884 15.7423C37.9774 15.4075 41.372 14.322 43.2823 14.5694C43.9399 20.0387 42.5717 38.1028 44.1766 41.433C45.6036 42.0673 46.0396 42.0672 47.3679 42.5189L47.4509 42.8065C47.2174 42.8441 46.942 42.8982 46.7094 42.9086C45.136 42.7658 43.6227 43.1622 42.2964 43.244C40.7774 43.3377 33.7514 43.263 32.6922 42.7214L32.573 42.2953C33.4527 42.2392 35.0826 42.1319 35.7253 41.4236C37.0294 39.9865 36.8711 24.7055 36.5251 22.0636C36.3885 21.0197 36.208 19.864 35.6576 18.9471Z" fill="#ACACAC"/>
<path d="M38.4979 1.62437C44.9625 1.37892 45.4482 8.34941 40.4679 9.62084C35.6267 9.90504 33.8135 6.90889 36.1711 2.72512C36.7833 2.34747 37.8127 1.80706 38.4979 1.62437Z" fill="#ACACAC"/>
<path d="M163.154 42.5676L163.283 42.7792L163.204 42.9169C162.232 42.9767 161.248 43.1099 160.291 43.1433C160.776 43.217 162.533 43.4129 162.857 43.5401C162.415 43.803 160.869 43.6952 160.296 43.6675C157.751 43.5443 155.192 43.4883 152.644 43.4908C151.224 43.492 149.677 43.7259 148.281 43.6831C148.02 43.2795 148.094 43.1426 148.068 42.6241C148.241 42.8974 148.265 42.9926 148.25 43.3157L148.39 43.4528C148.456 43.3479 148.569 42.9913 148.628 42.9412C148.737 42.8472 158.208 43.9125 159.67 43.1489C160.69 42.6159 162.106 43.2011 163.154 42.5676Z" fill="#ACACAC"/>
<path d="M175.914 15.2005C176.275 15.1152 176.917 15.1156 177.208 15.0256C179.219 14.404 182.246 14.2124 184.314 14.8055L184.204 15.0513C182.986 15.4956 177.303 15.3541 175.914 15.2005Z" fill="#ACACAC"/>
<path d="M32.5831 43.6545C32.5385 43.2114 32.4975 42.9335 32.4052 42.4983L32.573 42.2953L32.6922 42.7215C33.7514 43.263 40.7774 43.3377 42.2964 43.244C43.6226 43.1622 45.136 42.7658 46.7094 42.9086C45.811 43.0797 45.0451 43.0705 44.166 43.167C44.9007 43.2814 47.039 43.3691 47.4505 43.6006C46.0345 43.856 43.5353 43.5709 42.0357 43.5435C39.81 43.5027 37.5721 43.4363 35.3444 43.5034L35.5232 43.3515C35.0167 43.1828 33.3861 42.946 32.9487 43.2303L32.9576 43.5645L32.5831 43.6545Z" fill="#ACACAC"/>
<path d="M92.5482 43.1558C94.3065 43.0446 102.161 43.2201 103.237 42.7304C103.389 42.6615 103.489 42.6321 103.657 42.6137C103.673 42.612 103.689 42.6109 103.705 42.6095C103.005 43.2706 102.285 42.9958 101.601 43.3031C100.113 42.9266 98.5532 43.1414 97.0282 43.2796C97.5877 43.3082 99.2835 43.3099 99.609 43.6459L99.4568 43.8304C96.4861 43.7864 95.5899 43.8277 92.5482 43.1558Z" fill="#ACACAC"/>
<path d="M10.9817 43.1825C11.2424 43.1528 15.18 43.0374 15.2728 43.0561C16.0601 43.5839 17.9395 43.1853 18.9206 43.508L18.9891 43.5855C18.0862 44.0304 12.3133 43.3148 10.9817 43.1825Z" fill="#ACACAC"/>
<path d="M191.676 43.5242C191.762 43.4712 192.634 43.3202 192.767 43.3018C193.674 43.1758 195.496 42.7329 196.167 43.4209L196.412 43.2631L196.298 43.6265C195.578 43.9159 192.345 43.6996 191.676 43.5242Z" fill="#ACACAC"/>
<path d="M59.1744 43.5496L58.9878 43.3689C60.3118 43.3776 62.5101 42.5535 63.4569 43.333L63.6465 43.2788L63.5849 43.595C62.7787 43.9417 60.1834 43.6286 59.1744 43.5496Z" fill="#ACACAC"/>
<path d="M97.0283 43.2797C98.5533 43.1414 100.113 42.9266 101.601 43.3032C100.56 43.3487 100.857 43.8667 99.4568 43.8305L99.6091 43.6459C99.2836 43.31 97.5878 43.3082 97.0283 43.2797Z" fill="#ACACAC"/>
<path d="M15.2728 43.0561C16.2782 43.0372 18.5814 43.1226 19.3722 42.6646L19.1919 42.9633L19.3561 43.1962C19.2253 43.2918 19.055 43.4252 18.9206 43.508C17.9395 43.1853 16.0601 43.5838 15.2728 43.0561Z" fill="#ACACAC"/>
<path d="M32.5831 43.6544L32.9576 43.5644L32.9486 43.2302C33.3861 42.9459 35.0167 43.1827 35.5232 43.3514L35.3444 43.5033C34.6952 43.6174 33.2163 43.8775 32.5831 43.6544Z" fill="#ACACAC"/>
<path d="M24.0635 17.4076C24.0872 16.9657 24.0837 16.1008 24.3327 15.7811L24.4353 15.7935C24.601 15.9592 24.6445 16.0443 24.7699 16.2442C24.7773 16.6486 24.8231 17.262 24.7038 17.628L24.5958 17.699C24.4759 17.462 24.4013 17.3354 24.3307 17.074C24.1139 17.4496 24.335 17.6749 24.1868 17.9246L24.0635 17.4076Z" fill="#ACACAC"/>
<path d="M24.1355 27.1968L24.2146 26.95C24.2117 27.2688 24.1501 27.5082 24.2979 27.7343L24.288 27.72L24.6818 27.326L24.5919 27.5025L24.8111 27.5722C24.8132 28.0084 24.8082 28.4446 24.796 28.8805C24.756 28.754 24.7587 28.6631 24.7481 28.5303L24.4793 28.3726L24.4998 28.2678L24.6691 28.3171L24.5816 28.2084C24.3745 28.4243 24.3596 28.9575 24.3063 29.3086C24.003 28.9549 24.1137 27.6665 24.1355 27.1968Z" fill="#ACACAC"/>
<path d="M47.4508 42.8064L47.2825 43.1139L47.4505 43.6006C47.039 43.369 44.9006 43.2813 44.166 43.167C45.0451 43.0704 45.811 43.0796 46.7094 42.9085C46.942 42.8981 47.2174 42.844 47.4508 42.8064Z" fill="#ACACAC"/>
<path d="M160.291 43.1434C161.248 43.11 162.232 42.9768 163.204 42.917L162.857 43.5402C162.533 43.413 160.776 43.217 160.291 43.1434Z" fill="#ACACAC"/>
<path d="M49.3718 17.5327C48.8898 17.5114 49.0031 17.5885 48.6959 17.3165C48.5644 16.8707 48.5371 16.6295 48.9062 16.329C49.2712 16.5352 49.1717 16.557 49.3242 17.1031L49.3718 17.5327Z" fill="#ACACAC"/>
</svg>
