<svg width="98" height="98" viewBox="0 0 98 98" fill="none" xmlns="http://www.w3.org/2000/svg">
<path d="M49 9.1875L4.59375 32.1562L26.0312 43.2446L70.4375 20.2759L49 9.1875Z" fill="#2104FF"/>
<path d="M49 9.1875V18.1534C49 20.8771 49.749 23.5485 51.1651 25.8752C52.5811 28.2019 54.6097 30.0945 57.029 31.3458C63.1443 34.5089 70.4375 30.0703 70.4375 23.1853V20.2759L49 9.1875Z" fill="#4161E0"/>
<path d="M26.0312 43.2446L70.4375 20.2759L93.4062 32.1563L49 55.125L26.0312 43.2446Z" fill="#1801C7"/>
<path d="M88.398 18.9815L77.0533 14.3594L70.4883 18.2987L75.7929 33.6874L90.3413 26.387L88.398 18.9815Z" fill="#EDEDED"/>
<path d="M70.4883 18.2985L90.3413 26.387L88.398 18.9815L77.0533 14.3594L70.4883 18.2985Z" fill="#BEBEBE"/>
<path d="M82.7296 16.6704L76.1646 20.6096L75.7969 33.6874L84.673 24.0759L82.7296 16.6704Z" fill="#DFDFDF"/>
<path d="M82.7293 16.6704L84.6725 24.0759L76.1641 20.6096L82.7293 16.6704Z" fill="#EDEDED"/>
<path d="M73.3086 41.3438C76.6913 41.3438 79.4336 38.6015 79.4336 35.2188C79.4336 31.836 76.6913 29.0938 73.3086 29.0938C69.9258 29.0938 67.1836 31.836 67.1836 35.2188C67.1836 38.6015 69.9258 41.3438 73.3086 41.3438Z" fill="#F2C34E"/>
<path d="M65.8438 35.2188C69.2265 35.2188 71.9688 32.4765 71.9688 29.0938C71.9688 25.711 69.2265 22.9688 65.8438 22.9688C62.461 22.9688 59.7188 25.711 59.7188 29.0938C59.7188 32.4765 62.461 35.2188 65.8438 35.2188Z" fill="#E2AC40"/>
<path d="M44.4062 42.875C47.789 42.875 50.5312 40.1327 50.5312 36.75C50.5312 33.3673 47.789 30.625 44.4062 30.625C41.0235 30.625 38.2812 33.3673 38.2812 36.75C38.2812 40.1327 41.0235 42.875 44.4062 42.875Z" fill="#E2AC40"/>
<path d="M52.0625 52.0625C55.4452 52.0625 58.1875 49.3202 58.1875 45.9375C58.1875 42.5548 55.4452 39.8125 52.0625 39.8125C48.6798 39.8125 45.9375 42.5548 45.9375 45.9375C45.9375 49.3202 48.6798 52.0625 52.0625 52.0625Z" fill="#F2C34E"/>
<path d="M39.8125 49C43.1952 49 45.9375 46.2577 45.9375 42.875C45.9375 39.4923 43.1952 36.75 39.8125 36.75C36.4298 36.75 33.6875 39.4923 33.6875 42.875C33.6875 46.2577 36.4298 49 39.8125 49Z" fill="#F2C34E"/>
<path d="M55.125 39.8125C58.5077 39.8125 61.25 37.0702 61.25 33.6875C61.25 30.3048 58.5077 27.5625 55.125 27.5625C51.7423 27.5625 49 30.3048 49 33.6875C49 37.0702 51.7423 39.8125 55.125 39.8125Z" fill="#F2C34E"/>
<path d="M62.7812 47.4688C66.164 47.4688 68.9062 44.7265 68.9062 41.3438C68.9062 37.961 66.164 35.2188 62.7812 35.2188C59.3985 35.2188 56.6562 37.961 56.6562 41.3438C56.6562 44.7265 59.3985 47.4688 62.7812 47.4688Z" fill="#E2AC40"/>
<path d="M49 55.125L26.0313 43.2446V76.6234C26.0312 77.1855 26.1859 77.7367 26.4784 78.2167C26.7708 78.6967 27.1897 79.087 27.6891 79.3448L47.5941 89.6184C48.0287 89.8426 48.5107 89.9595 48.9998 89.9593C49.4889 89.959 49.9708 89.8416 50.4052 89.6169L91.7507 68.2313C92.2496 67.9733 92.6679 67.583 92.9598 67.1033C93.2518 66.6235 93.4062 66.0727 93.4062 65.5111V32.1562L49 55.125Z" fill="#2104FF"/>
<path d="M55.125 59.5074V79.4137L87.2812 62.7812V42.875L55.125 59.5074Z" fill="#5A8FE3"/>
<path d="M4.59375 32.1562V41.1221C4.59375 43.8459 5.34274 46.5172 6.7588 48.8439C8.17487 51.1707 10.2035 53.0632 12.6228 54.3146C18.7381 57.4777 26.0312 53.039 26.0312 46.1541V43.2446L4.59375 32.1562Z" fill="#4161E0"/>
<path d="M65.8438 46.4125V58.6625L78.0938 52.3262V40.0762L65.8438 46.4125Z" fill="#1801C7"/>
<path d="M70.0508 49.5059L73.1126 47.9232L73.8154 49.283L70.7536 50.8656L70.0508 49.5059Z" fill="#5A8FE3"/>
<path d="M93.7569 78.7726L93.0533 77.4126L90.2073 78.8847C89.6503 78.2163 88.8818 77.7581 88.029 77.5858C87.1762 77.4135 86.2901 77.5375 85.5172 77.9372C84.7444 78.3369 84.1312 78.9884 83.779 79.784C83.4268 80.5796 83.3567 81.4716 83.5803 82.3124L71.6484 88.4841L72.352 89.8441L76.8974 87.493L79.284 92.2189L80.6508 91.5288L78.2574 86.7895L84.257 83.6863C84.8044 84.3948 85.5829 84.8888 86.457 85.0822C87.3312 85.2757 88.2455 85.1564 89.0407 84.7451C89.8359 84.3338 90.4616 83.6566 90.8088 82.8314C91.1561 82.0062 91.2028 81.0853 90.9409 80.2292L93.7569 78.7726ZM87.2801 83.6434C86.8258 83.6434 86.3817 83.5087 86.004 83.2563C85.6263 83.0039 85.3319 82.6452 85.1581 82.2255C84.9842 81.8058 84.9387 81.344 85.0274 80.8984C85.116 80.4529 85.3347 80.0436 85.656 79.7224C85.9772 79.4012 86.3865 79.1824 86.832 79.0938C87.2776 79.0052 87.7394 79.0506 88.1591 79.2245C88.5788 79.3983 88.9375 79.6927 89.1899 80.0704C89.4423 80.4482 89.577 80.8922 89.577 81.3465C89.5763 81.9555 89.3341 82.5393 88.9035 82.9699C88.4729 83.4005 87.8891 83.6427 87.2801 83.6434Z" fill="#F2C34E"/>
<path d="M66.7617 6.58398L67.9869 5.66512L72.5806 11.7901L71.3555 12.709L66.7617 6.58398Z" fill="#DFDFDF"/>
<path d="M75.8438 3.22217L77.3459 2.92204L78.8762 10.5815L77.3741 10.8817L75.8438 3.22217Z" fill="#DFDFDF"/>
<path d="M82.1406 10.1904L88.2647 4.06633L89.3473 5.14892L83.2232 11.273L82.1406 10.1904Z" fill="#DFDFDF"/>
<path d="M87.168 13.0513L94.8275 11.5209L95.1275 13.0229L87.4681 14.5532L87.168 13.0513Z" fill="#DFDFDF"/>
<path d="M33.6875 9.1875L32.6254 11.3116C31.3145 13.9334 29.3421 16.1678 26.9032 17.7937L26.0312 18.375L26.9032 18.9563C29.3421 20.5822 31.3145 22.8166 32.6254 25.4384L33.6875 27.5625L34.7496 25.4384C36.0605 22.8166 38.0329 20.5822 40.4718 18.9563L41.3438 18.375L40.4718 17.7937C38.0329 16.1678 36.0605 13.9334 34.7496 11.3116L33.6875 9.1875Z" fill="#FFD892"/>
<path d="M10.7188 61.25C9.72631 64.2273 7.76979 66.7889 5.15852 68.5297L4.59375 68.9062L5.15852 69.2828C7.76979 71.0236 9.72631 73.5852 10.7188 76.5625C11.7112 73.5852 13.6677 71.0236 16.279 69.2828L16.8438 68.9062L16.279 68.5297C13.6677 66.7889 11.7112 64.2273 10.7188 61.25Z" fill="#FFD892"/>
<path d="M26.0312 76.6234C26.0313 77.1855 26.1859 77.7367 26.4784 78.2167C26.7708 78.6967 27.1897 79.087 27.6891 79.3448L47.594 89.6184C48.0287 89.8427 48.5108 89.9596 49 89.9592V55.125L26.0312 43.2446V76.6234Z" fill="#2D17D5"/>
<path d="M30.149 75.4014L21.283 74.3442L13.7812 84.0284L17.0206 92.3487L25.8865 93.4058L33.3883 83.7216L30.149 75.4014Z" fill="#EDEDED"/>
<path d="M13.7812 84.0284L23.5849 83.8751L21.283 74.3442L13.7812 84.0284Z" fill="#BEBEBE"/>
<path d="M33.3894 83.7217L23.5859 83.8752L25.8876 93.4059L33.3894 83.7217Z" fill="#BEBEBE"/>
<path d="M23.5849 83.8755L17.0206 92.349L13.7812 84.0288L23.5849 83.8755Z" fill="#DFDFDF"/>
<path d="M23.5859 83.8746L30.15 75.4009L33.3894 83.7211L23.5859 83.8746Z" fill="#DFDFDF"/>
<path d="M42.875 69.1438C42.7526 69.1438 42.6319 69.1145 42.5232 69.0582L31.8045 63.514C31.6798 63.4495 31.5752 63.3519 31.5022 63.232C31.4292 63.1121 31.3906 62.9744 31.3906 62.834V55.125H32.9219V62.368L42.1094 67.1202V60.6653H43.6406V68.3782C43.6406 68.4787 43.6208 68.5783 43.5824 68.6712C43.5439 68.7641 43.4875 68.8485 43.4164 68.9196C43.3453 68.9907 43.2609 69.0471 43.168 69.0856C43.0751 69.124 42.9755 69.1438 42.875 69.1438Z" fill="#5A8FE3"/>
</svg>
