<svg width="92" height="92" viewBox="0 0 92 92" fill="none" xmlns="http://www.w3.org/2000/svg">
<path d="M60.375 41.6875L46 18.6875L31.625 41.6875H60.375Z" fill="#BCBEC0"/>
<path d="M60.375 41.6875H89.125L74.75 18.6875L60.375 41.6875Z" fill="#939598"/>
<path d="M17.25 18.6875L2.875 41.6875H31.625L17.25 18.6875Z" fill="#E6E7E8"/>
<path d="M74.75 18.6875H46L60.375 41.6875L74.75 18.6875Z" fill="#A7A9AC"/>
<path d="M46 18.6875H17.25L31.625 41.6875L46 18.6875Z" fill="#D1D3D4"/>
<path d="M2.875 41.6875L45.8462 87.1944L31.625 41.6875H2.875Z" fill="#F1F2F2"/>
<path d="M46.0781 87.4403L46.311 87.6875L89.1255 41.6875H60.3755L46.0781 87.4403Z" fill="#D1D3D4"/>
<path d="M31.625 41.6875L45.8462 87.1944L46.0776 87.4402L60.375 41.6875H31.625Z" fill="#E6E7E8"/>
<path d="M45.9976 87.6884L46.0752 87.4411L45.8438 87.1953L45.9976 87.6884Z" fill="#9BC9FF"/>
<path d="M46 14.375C45.6188 14.375 45.2531 14.2235 44.9835 13.954C44.7139 13.6844 44.5625 13.3187 44.5625 12.9375V4.3125C44.5625 3.93125 44.7139 3.56562 44.9835 3.29603C45.2531 3.02645 45.6188 2.875 46 2.875C46.3812 2.875 46.7469 3.02645 47.0165 3.29603C47.2861 3.56562 47.4375 3.93125 47.4375 4.3125V12.9375C47.4375 13.3187 47.2861 13.6844 47.0165 13.954C46.7469 14.2235 46.3812 14.375 46 14.375Z" fill="url(#paint0_radial_567_4662)"/>
<path d="M7.18692 69.0003C6.84138 69.0002 6.50745 68.8756 6.24628 68.6493C5.98511 68.4231 5.81418 68.1103 5.76477 67.7683C5.71537 67.4264 5.7908 67.078 5.97726 66.7871C6.16373 66.4962 6.44874 66.2822 6.78011 66.1843L14.084 64.028C14.266 63.9713 14.4575 63.9513 14.6472 63.9693C14.837 63.9872 15.0213 64.0428 15.1894 64.1326C15.3575 64.2225 15.506 64.3449 15.6264 64.4927C15.7468 64.6405 15.8365 64.8107 15.8905 64.9935C15.9444 65.1763 15.9615 65.3681 15.9407 65.5575C15.9198 65.747 15.8615 65.9304 15.7691 66.0972C15.6767 66.2639 15.5521 66.4106 15.4025 66.5287C15.2529 66.6468 15.0813 66.734 14.8977 66.7851L7.59373 68.9414C7.46168 68.9805 7.32466 69.0004 7.18692 69.0003Z" fill="url(#paint1_radial_567_4662)"/>
<path d="M24.4373 86.25C24.2138 86.25 23.9934 86.1978 23.7935 86.0977C23.5937 85.9975 23.4199 85.8522 23.2861 85.6731C23.1523 85.4941 23.062 85.2863 23.0226 85.0663C22.9831 84.8463 22.9955 84.6201 23.0588 84.4057L25.215 77.1003C25.3231 76.7347 25.572 76.427 25.907 76.2449C26.2419 76.0628 26.6355 76.0212 27.0011 76.1293C27.3667 76.2374 27.6744 76.4863 27.8565 76.8212C28.0386 77.1562 28.0802 77.5498 27.9721 77.9154L25.8159 85.2193C25.7281 85.5169 25.5464 85.778 25.2979 85.9638C25.0495 86.1496 24.7476 86.25 24.4373 86.25Z" fill="url(#paint2_radial_567_4662)"/>
<path d="M29.4654 14.4931C29.2129 14.4934 28.9647 14.4271 28.7459 14.3009C28.5271 14.1747 28.3454 13.9931 28.2191 13.7744L23.9066 6.29936C23.719 5.96937 23.6695 5.57857 23.769 5.21223C23.8684 4.8459 24.1088 4.53377 24.4375 4.34397C24.7662 4.15417 25.1567 4.1021 25.5237 4.19912C25.8907 4.29615 26.2044 4.53439 26.3964 4.86186L30.7089 12.3369C30.835 12.5553 30.9014 12.803 30.9015 13.0552C30.9015 13.3075 30.8352 13.5552 30.7092 13.7737C30.5832 13.9922 30.402 14.1737 30.1837 14.3C29.9653 14.4262 29.7176 14.4929 29.4654 14.4931Z" fill="url(#paint3_radial_567_4662)"/>
<path d="M62.5298 14.4931C62.2776 14.4929 62.0299 14.4262 61.8115 14.3C61.5932 14.1737 61.412 13.9922 61.286 13.7737C61.16 13.5552 61.0937 13.3075 61.0938 13.0552C61.0938 12.803 61.1602 12.5553 61.2863 12.3369L65.5988 4.86186C65.7908 4.53439 66.1045 4.29615 66.4715 4.19912C66.8385 4.1021 67.229 4.15417 67.5577 4.34397C67.8865 4.53377 68.1268 4.8459 68.2262 5.21223C68.3257 5.57857 68.2762 5.96937 68.0886 6.29936L63.7761 13.7744C63.6498 13.9931 63.4681 14.1747 63.2493 14.3009C63.0305 14.4271 62.7823 14.4934 62.5298 14.4931Z" fill="url(#paint4_radial_567_4662)"/>
<path d="M14.3747 79.0624C14.0904 79.0624 13.8126 78.978 13.5762 78.8201C13.3399 78.6621 13.1557 78.4376 13.0469 78.175C12.9381 77.9124 12.9097 77.6234 12.9651 77.3446C13.0205 77.0658 13.1574 76.8096 13.3584 76.6086L19.1084 70.8586C19.3795 70.5967 19.7426 70.4519 20.1195 70.4551C20.4964 70.4584 20.857 70.6096 21.1235 70.8761C21.39 71.1426 21.5412 71.5032 21.5445 71.8801C21.5477 72.257 21.4029 72.6201 21.141 72.8912L15.391 78.6412C15.1215 78.9108 14.7559 79.0623 14.3747 79.0624Z" fill="url(#paint5_radial_567_4662)"/>
<path d="M84.8092 69.0003C84.6715 69.0004 84.5345 68.9805 84.4024 68.9414L77.0985 66.7851C76.9149 66.734 76.7433 66.6468 76.5936 66.5287C76.444 66.4106 76.3194 66.2639 76.227 66.0972C76.1346 65.9304 76.0763 65.747 76.0555 65.5575C76.0347 65.3681 76.0517 65.1763 76.1057 64.9935C76.1596 64.8107 76.2494 64.6405 76.3697 64.4927C76.4901 64.3449 76.6387 64.2225 76.8068 64.1326C76.9749 64.0428 77.1592 63.9872 77.3489 63.9693C77.5387 63.9513 77.7301 63.9713 77.9121 64.028L85.216 66.1843C85.5474 66.2822 85.8324 66.4962 86.0189 66.7871C86.2053 67.078 86.2808 67.4264 86.2314 67.7683C86.182 68.1103 86.011 68.4231 85.7499 68.6493C85.4887 68.8756 85.1548 69.0002 84.8092 69.0003Z" fill="url(#paint6_radial_567_4662)"/>
<path d="M67.5625 86.25C67.2523 86.25 66.9504 86.1496 66.7019 85.9638C66.4535 85.778 66.2718 85.5169 66.184 85.2193L64.0277 77.9154C63.9196 77.5498 63.9612 77.1562 64.1433 76.8212C64.3254 76.4863 64.6331 76.2374 64.9988 76.1293C65.3644 76.0212 65.758 76.0628 66.0929 76.2449C66.4279 76.427 66.6768 76.7347 66.7849 77.1003L68.9411 84.4057C69.0044 84.6201 69.0168 84.8463 68.9773 85.0663C68.9378 85.2863 68.8476 85.4941 68.7138 85.6731C68.5799 85.8522 68.4062 85.9975 68.2064 86.0977C68.0065 86.1978 67.7861 86.25 67.5625 86.25Z" fill="url(#paint7_radial_567_4662)"/>
<path d="M77.623 79.0624C77.2417 79.0623 76.8762 78.9108 76.6066 78.6412L70.8566 72.8912C70.5948 72.6201 70.4499 72.257 70.4532 71.8801C70.4565 71.5032 70.6076 71.1426 70.8742 70.8761C71.1407 70.6096 71.5012 70.4584 71.8781 70.4551C72.255 70.4519 72.6182 70.5967 72.8893 70.8586L78.6393 76.6086C78.8403 76.8096 78.9771 77.0658 79.0325 77.3446C79.088 77.6234 79.0595 77.9124 78.9508 78.175C78.842 78.4376 78.6578 78.6621 78.4214 78.8201C78.1851 78.978 77.9072 79.0624 77.623 79.0624Z" fill="url(#paint8_radial_567_4662)"/>
<defs>
<radialGradient id="paint0_radial_567_4662" cx="0" cy="0" r="1" gradientUnits="userSpaceOnUse" gradientTransform="translate(46 8.625) rotate(90) scale(5.75 1.4375)">
<stop stop-color="#2E13FF"/>
<stop offset="1" stop-color="#2104FF"/>
</radialGradient>
<radialGradient id="paint1_radial_567_4662" cx="0" cy="0" r="1" gradientUnits="userSpaceOnUse" gradientTransform="translate(10.8496 66.4816) rotate(90) scale(2.51871 5.09963)">
<stop stop-color="#2E13FF"/>
<stop offset="1" stop-color="#2104FF"/>
</radialGradient>
<radialGradient id="paint2_radial_567_4662" cx="0" cy="0" r="1" gradientUnits="userSpaceOnUse" gradientTransform="translate(25.5156 81.1602) rotate(90) scale(5.08985 2.51556)">
<stop stop-color="#2E13FF"/>
<stop offset="1" stop-color="#2104FF"/>
</radialGradient>
<radialGradient id="paint3_radial_567_4662" cx="0" cy="0" r="1" gradientUnits="userSpaceOnUse" gradientTransform="translate(27.3101 9.32224) rotate(90) scale(5.17087 3.59135)">
<stop stop-color="#2E13FF"/>
<stop offset="1" stop-color="#2104FF"/>
</radialGradient>
<radialGradient id="paint4_radial_567_4662" cx="0" cy="0" r="1" gradientUnits="userSpaceOnUse" gradientTransform="translate(64.6851 9.32224) rotate(90) scale(5.17087 3.59135)">
<stop stop-color="#2E13FF"/>
<stop offset="1" stop-color="#2104FF"/>
</radialGradient>
<radialGradient id="paint5_radial_567_4662" cx="0" cy="0" r="1" gradientUnits="userSpaceOnUse" gradientTransform="translate(17.241 74.7587) rotate(90) scale(4.30367 4.30351)">
<stop stop-color="#2E13FF"/>
<stop offset="1" stop-color="#2104FF"/>
</radialGradient>
<radialGradient id="paint6_radial_567_4662" cx="0" cy="0" r="1" gradientUnits="userSpaceOnUse" gradientTransform="translate(81.1465 66.4816) rotate(90) scale(2.51871 5.09963)">
<stop stop-color="#2E13FF"/>
<stop offset="1" stop-color="#2104FF"/>
</radialGradient>
<radialGradient id="paint7_radial_567_4662" cx="0" cy="0" r="1" gradientUnits="userSpaceOnUse" gradientTransform="translate(66.4843 81.1602) rotate(90) scale(5.08985 2.51556)">
<stop stop-color="#2E13FF"/>
<stop offset="1" stop-color="#2104FF"/>
</radialGradient>
<radialGradient id="paint8_radial_567_4662" cx="0" cy="0" r="1" gradientUnits="userSpaceOnUse" gradientTransform="translate(74.7566 74.7587) rotate(90) scale(4.30367 4.30352)">
<stop stop-color="#2E13FF"/>
<stop offset="1" stop-color="#2104FF"/>
</radialGradient>
</defs>
</svg>
