<svg width="82" height="82" viewBox="0 0 82 82" fill="none" xmlns="http://www.w3.org/2000/svg">
<g clip-path="url(#clip0_567_4604)">
<path d="M5.76562 18.4648H76.2344V75.04H5.76562V18.4648Z" fill="#5A8FE3"/>
<path d="M41 18.4648H76.2344V75.04H41V18.4648Z" fill="#2104FF"/>
<path d="M3.36328 16.0625V71.8369H8.16797V20.8672H41L42.6016 18.4648L41 16.0625H3.36328Z" fill="#4161E0"/>
<path d="M78.6367 16.0625V71.8369H73.832V20.8672H41V16.0625H78.6367Z" fill="#5A8FE3"/>
<path d="M29.0908 71.7034V67.8789H0V72.2959C0 77.6553 4.34472 81.9999 9.70403 81.9999H41L44.2031 76.7343L41 71.7034H29.0908Z" fill="#2814BD"/>
<path d="M52.9092 67.8789V71.7034H41V81.9999H72.296C77.6553 81.9999 82 77.6552 82 72.2959V67.8789H52.9092Z" fill="#2D17D5"/>
<path d="M40.9996 20.8668C38.3458 20.8668 36.1949 18.7159 36.1949 16.0621C36.1949 13.4083 38.3458 11.2574 40.9996 11.2574L43.6386 6.42787L40.9996 0C32.1429 0 24.9375 7.20543 24.9375 16.0621C24.9375 22.1929 28.4193 27.7583 33.8774 30.4601V38.0035L36.8948 41.024L33.8774 44.043V47.1612L36.8948 50.1802L33.8774 53.1975V56.5255L40.9996 61.8684L44.4782 41.1044L40.9996 20.8668Z" fill="#FFE045"/>
<path d="M57.0621 16.0621C57.0621 22.1929 53.5803 27.7583 48.1221 30.4601V56.5255L41 61.8684V20.8668C41.8392 20.8668 42.6288 20.6505 43.3159 20.2726C44.8005 19.4542 45.8047 17.8766 45.8047 16.0621C45.8047 13.8615 44.3264 12.0069 42.3069 11.44C41.8921 11.3198 41.4532 11.2574 41 11.2574V0C49.8566 0 57.0621 7.20543 57.0621 16.0621Z" fill="#FCBE00"/>
</g>
<defs>
<clipPath id="clip0_567_4604">
<rect width="82" height="82" fill="white"/>
</clipPath>
</defs>
</svg>
