<svg width="143" height="42" viewBox="0 0 143 42" fill="none" xmlns="http://www.w3.org/2000/svg">
<g clip-path="url(#clip0_567_5359)">
<g clip-path="url(#clip1_567_5359)">
<mask id="mask0_567_5359" style="mask-type:luminance" maskUnits="userSpaceOnUse" x="0" y="0" width="142" height="42">
<path d="M141.362 0.87793H0.195312V41.7281H141.362V0.87793Z" fill="white"/>
</mask>
<g mask="url(#mask0_567_5359)">
<path d="M30.1273 10.9801C30.1273 11.1742 30.1449 11.2448 30.1625 11.1301C30.1803 11.0242 30.1803 10.8654 30.1625 10.7771C30.1362 10.6977 30.1184 10.786 30.1273 10.9801Z" fill="white"/>
<path d="M78.2812 21.216V28.4068H79.5959H80.9192L80.9457 25.954C80.9722 23.5718 80.981 23.5012 81.1752 23.1571C81.5192 22.5836 81.8015 22.3366 82.3662 22.1425C83.0367 21.9219 83.1867 21.9219 83.7779 22.1425C84.2279 22.3101 84.722 22.7424 84.9602 23.1659C85.1895 23.5806 85.2601 24.4276 85.2336 26.404L85.2072 28.4068H86.513H87.81V26.1216C87.81 24.8687 87.7658 23.6247 87.7217 23.3689C87.6159 22.7953 87.1305 21.7719 86.7865 21.3572C86.4865 21.0043 85.666 20.3779 85.2954 20.2102C84.2279 19.7338 83.1426 19.6544 82.1015 19.9809C81.7486 20.0956 81.378 20.2455 81.2634 20.3249C81.1574 20.4044 81.034 20.4661 80.9987 20.4661C80.9546 20.4661 80.9281 19.0192 80.9281 17.2457V14.0254H79.6046H78.2812V21.216Z" fill="white"/>
<path d="M110.031 21.216V28.4068H111.311H112.59V21.216V14.0254H111.311H110.031V21.216Z" fill="white"/>
<path d="M114.008 21.216V28.4068H115.331H116.655V21.216V14.0254H115.331H114.008V21.216Z" fill="white"/>
<path d="M48.457 16.1859V17.5535H50.3539H52.2508L52.2685 22.9532L52.2949 28.3616H53.6625H55.03L55.0565 22.9532L55.0741 17.5535H56.9711H58.868V16.1859V14.8184H53.6625H48.457V16.1859Z" fill="white"/>
<path d="M89.4943 18.8064L89.5207 22.8031L92.0529 22.8472L94.5763 22.8913L94.9203 23.1648C95.3438 23.5001 95.5645 23.9325 95.5645 24.4088C95.5645 24.8853 95.4233 25.203 95.0526 25.5559C94.7086 25.8999 94.3027 26.0235 93.5528 26.0235H92.997L93.0235 27.1881L93.0498 28.3615H93.7557C95.1056 28.3704 96.0673 27.9998 96.8878 27.1616C97.9643 26.0587 98.3613 24.4266 97.8848 23.0149C97.6555 22.3178 97.4437 21.9738 96.8967 21.3915L96.5349 21.0032L96.7644 20.5797C97.1437 19.8651 97.2848 18.8064 97.1173 17.9416C97.0555 17.6241 96.7466 16.9359 96.4908 16.5388C96.3144 16.2654 95.5645 15.5331 95.4585 15.5242C95.4233 15.5242 95.3438 15.4712 95.2821 15.4095C94.7968 14.9507 93.9674 14.8184 91.5764 14.8184H89.4766L89.4943 18.8064ZM93.7469 17.3064C94.3468 17.6152 94.5939 17.9681 94.5939 18.5417C94.5939 19.0887 94.4792 19.3622 94.1086 19.724C93.9322 19.8915 93.791 20.0239 93.7734 20.0327C93.7645 20.0415 93.3499 20.068 92.8469 20.1032L91.947 20.1562V18.6299V17.1035L92.6793 17.1211C93.1999 17.13 93.4998 17.183 93.7469 17.3064Z" fill="white"/>
<path d="M118.062 16.1869V17.5545H119.387H120.71V16.1869V14.8193H119.387H118.062V16.1869Z" fill="white"/>
<path d="M63.2531 19.7156C63.2354 19.7333 63.0061 19.7686 62.7414 19.7951C61.965 19.8833 60.9149 20.4568 60.2886 21.1273C59.7328 21.7096 59.2298 22.6007 59.1416 23.1742C59.0622 23.6242 59.0622 24.9388 59.1416 25.2741C59.221 25.5917 59.715 26.6063 59.9092 26.8446C60.8886 28.0356 62.0355 28.5827 63.5443 28.5827C64.4971 28.5827 65.2383 28.3622 65.9617 27.8503C66.4382 27.5239 66.8882 27.1358 66.8882 27.0652C66.8882 27.0474 66.747 26.9592 66.5793 26.871C66.4117 26.774 66.2705 26.6682 66.2705 26.6239C66.2705 26.5887 66.2176 26.5534 66.1559 26.5534C66.0853 26.5534 65.9617 26.474 65.8735 26.377C65.7852 26.2799 65.6794 26.2004 65.6353 26.2004C65.5912 26.2004 65.4412 26.1122 65.3 26.0064L65.0441 25.8212L64.6912 26.0505C63.6677 26.7299 62.5207 26.4475 61.8503 25.3623C61.7532 25.2123 61.6826 25.0711 61.6826 25.0447C61.6826 25.0183 63.0589 25.0005 64.7353 25.0005C67.3645 25.0094 67.7969 24.9918 67.8586 24.8771C67.9645 24.6653 67.9381 23.7037 67.7969 23.1125C67.4616 21.6479 66.2705 20.395 64.7353 19.9009C64.4354 19.8038 63.3148 19.6627 63.2531 19.7156ZM64.603 22.2743C64.9206 22.4773 65.1323 22.6978 65.3088 23.0154L65.5558 23.4654H63.5707H61.5856L61.8325 23.0419C62.3003 22.239 62.7237 21.9832 63.5795 21.9832C64.0648 21.9832 64.2147 22.0273 64.603 22.2743Z" fill="white"/>
<path d="M72.5429 19.9719C72.2253 20.0777 71.8724 20.2189 71.7489 20.2895C71.3166 20.5189 70.6372 21.0659 70.4254 21.3482C70.302 21.4983 70.1608 21.6747 70.1078 21.7276C69.9843 21.8688 69.552 22.7599 69.4815 23.0246C69.402 23.3334 69.402 25.0451 69.4815 25.3627C69.6755 26.0949 70.4343 27.189 71.0166 27.5861C71.2196 27.7184 71.396 27.8595 71.396 27.886C71.396 27.9655 72.1371 28.2743 72.7459 28.4507C73.1341 28.5654 73.487 28.5918 74.1576 28.5566C75.2428 28.5125 75.3486 28.486 76.0721 28.1331C76.6456 27.8595 76.8309 27.7007 76.6986 27.6125C76.628 27.5684 76.4515 27.2331 76.0898 26.4832C76.0104 26.3332 75.9133 26.2009 75.8781 26.2009C75.8427 26.2009 75.8075 26.1479 75.8075 26.0773C75.8075 26.0156 75.7456 25.9097 75.6751 25.848C75.5692 25.7598 75.5339 25.7685 75.4898 25.8744C75.4633 25.9538 75.2604 26.1038 75.0398 26.2097C74.1487 26.642 72.8871 26.342 72.2165 25.5303C71.8548 25.0804 71.7401 24.7186 71.7577 24.0834C71.8018 23.1041 72.5165 22.3188 73.6105 22.0541C74.1487 21.9218 74.8634 22.0629 75.2869 22.3629C75.4457 22.4864 75.6045 22.5835 75.6398 22.5835C75.7015 22.5835 76.0104 22.0629 76.5221 21.1189L76.7692 20.66L76.4427 20.4395C75.4987 19.7867 73.7252 19.5749 72.5429 19.9719Z" fill="white"/>
<path d="M125.562 19.8658C125.394 19.9099 125.218 19.954 125.165 19.9629C124.582 20.1217 123.18 21.0128 123.003 21.3392C122.96 21.4363 122.862 21.5686 122.809 21.6304C122.65 21.8068 122.5 22.0451 122.289 22.4862C121.883 23.3332 121.848 24.9919 122.218 25.6889C122.279 25.8036 122.324 25.9095 122.324 25.936C122.289 26.183 123.25 27.3477 123.842 27.7888C124.538 28.3094 125.491 28.5828 126.576 28.5828C127.688 28.5828 128.649 28.3094 129.293 27.8064C129.974 27.2682 130.856 26.2006 130.856 25.9095C130.856 25.8389 130.882 25.7595 130.917 25.7243C131.138 25.5125 131.262 23.7744 131.111 23.2009C130.987 22.7685 130.644 21.9656 130.583 21.9656C130.538 21.9656 130.503 21.9215 130.503 21.8774C130.503 21.7716 130.476 21.7451 130.035 21.2598C129.736 20.9246 129.011 20.3952 128.649 20.2275C128.473 20.1482 128.077 19.9981 128.077 20.0158C128.077 20.0158 127.9 19.9629 127.671 19.9011C127.23 19.7688 126.038 19.7423 125.562 19.8658ZM127.441 22.1245C127.741 22.2479 128.332 22.848 128.535 23.2274C128.729 23.5979 128.729 24.7096 128.535 25.1507C127.918 26.5624 126.091 26.8536 125.05 25.7243C124.644 25.283 124.468 24.7889 124.468 24.1185C124.476 23.342 125.058 22.4686 125.783 22.1333C126.17 21.9569 127.009 21.9569 127.441 22.1245Z" fill="white"/>
<path d="M136.281 19.9629C135.998 20.0599 135.575 20.2717 135.354 20.4306C135.124 20.5981 134.921 20.7305 134.904 20.7305C134.877 20.7305 134.79 20.5718 134.701 20.3776L134.542 20.0247H133.537H132.539V24.2156V28.4065H133.775H135.01L135.028 26.2625C135.028 25.0891 135.037 24.0656 135.028 23.995C135.01 23.6421 135.327 22.9803 135.716 22.5833C136.209 22.0716 136.731 21.9216 137.427 22.0716C138.143 22.2215 138.866 23.0863 138.936 23.8627C138.953 24.0039 138.963 25.0891 138.971 26.2625L138.98 28.4065H140.181H141.371L141.336 25.8213C141.318 24.4096 141.274 23.1304 141.239 22.9892C141.098 22.4069 140.612 21.5775 140.136 21.1011C139.466 20.4217 139.359 20.3511 138.671 20.0688C137.878 19.7511 137.004 19.7159 136.281 19.9629Z" fill="white"/>
<path d="M99.736 20.1567C99.7095 20.2362 99.7095 21.3744 99.7271 22.6977C99.7712 25.0888 99.7712 25.0975 100.018 25.7152C100.159 26.0505 100.301 26.3417 100.345 26.3593C100.38 26.3769 100.415 26.4386 100.415 26.5005C100.415 26.7739 101.545 27.7797 102.348 28.2209C102.983 28.5739 104.394 28.6885 105.224 28.4592C106.027 28.2386 106.397 28.0092 107.271 27.2239C107.632 26.8975 108.277 25.7858 108.418 25.23C108.453 25.1064 108.488 23.8889 108.506 22.5124L108.541 20.0244H107.262H105.974V22.2742C105.974 24.2948 105.956 24.5594 105.797 24.9564C105.586 25.5034 105.321 25.8122 104.897 26.0329C104.103 26.4386 103.053 26.1034 102.577 25.2829C102.295 24.7888 102.286 24.7094 102.277 22.2036L102.268 20.0244H101.033C100.001 20.0244 99.7801 20.0509 99.736 20.1567Z" fill="white"/>
<path d="M118.111 20.1303C118.086 20.1921 118.076 22.0713 118.086 24.3035L118.111 28.3621L119.418 28.3886L120.714 28.4151V24.2153V20.0244H119.435C118.49 20.0244 118.138 20.0509 118.111 20.1303Z" fill="white"/>
<path d="M19.4245 0.976488C18.3306 1.04707 16.2219 1.3647 16.0365 1.47939C15.9837 1.50587 15.869 1.52351 15.7896 1.51469C15.7014 1.49705 15.6308 1.51469 15.6308 1.5588C15.6308 1.5941 15.5425 1.63821 15.4278 1.63821C15.1543 1.65585 13.6985 2.12346 12.9838 2.42345C10.3282 3.53513 8.20183 4.9468 6.23433 6.92313C4.35504 8.80242 3.09337 10.6376 1.97286 13.1168C-0.303454 18.1635 -0.303454 24.4455 1.97286 29.4921C3.09337 31.9714 4.35504 33.8066 6.23433 35.6858C8.20183 37.6622 10.3282 39.0738 12.9838 40.1855C15.5602 41.2619 18.8335 41.8001 21.8068 41.6237C23.6684 41.5178 24.9565 41.2884 26.7035 40.7502C28.4416 40.212 30.5856 39.1885 32.0854 38.1739C35.5264 35.8446 38.2439 32.4038 39.7084 28.5217C40.6701 25.9807 41.0584 23.6867 40.9878 20.9515C40.9702 20.1223 40.9525 19.3458 40.9525 19.2134C40.9525 19.0811 40.9172 18.9576 40.8731 18.9223C40.8202 18.8959 40.8025 18.8164 40.8378 18.7458C40.8907 18.5959 40.7584 17.8282 40.4584 16.5136C39.382 11.864 36.497 7.6025 32.4825 4.70858C30.7179 3.44691 28.0005 2.17641 25.777 1.5941C24.8683 1.34705 23.2625 1.05589 22.9096 1.06472C22.6979 1.07354 21.1715 0.976488 20.7921 0.932375C20.6509 0.914728 20.0334 0.941195 19.4245 0.976488ZM30.0474 8.66125C30.2856 10.6464 30.2768 11.114 30.0474 13.3374L29.9944 13.8491H26.9593H23.9243V23.9866V34.1242L23.4655 34.186C23.2097 34.2124 22.7773 34.283 22.5038 34.336C21.6304 34.4948 17.8453 34.3183 17.4924 34.1065C17.4218 34.0624 17.3954 31.195 17.3954 23.9425V13.8491H14.3514C11.881 13.8491 11.3075 13.8226 11.3075 13.7344C11.3075 13.6638 11.2457 13.2227 11.1752 12.7375C11.034 11.7757 10.9899 10.5317 11.0693 10.0553C11.1046 9.88763 11.1487 9.57001 11.1752 9.34943C11.2369 8.82888 11.3252 8.35245 11.3693 8.26421C11.3869 8.22893 15.5867 8.20246 20.695 8.20246H29.9857L30.0474 8.66125Z" fill="#15406B"/>
</g>
</g>
</g>
<defs>
<clipPath id="clip0_567_5359">
<rect width="142.323" height="42" fill="white"/>
</clipPath>
<clipPath id="clip1_567_5359">
<rect width="142.333" height="42" fill="white" transform="translate(-0.00390625)"/>
</clipPath>
</defs>
</svg>
