<svg width="223" height="42" viewBox="0 0 223 42" fill="none" xmlns="http://www.w3.org/2000/svg">
<g clip-path="url(#clip0_567_5325)">
<path d="M33.0602 24.5516C32.3961 24.9865 31.6213 25.0656 31.031 24.7098C30.2931 24.2353 29.8504 23.1677 29.8504 21.7048V17.237C29.8504 15.1018 29.0755 13.5599 27.7474 13.1645C25.4968 12.4528 23.7996 15.4181 23.1724 16.5253L19.1878 23.3655V14.9438C19.1509 13.0063 18.5606 11.8597 17.4538 11.5039C16.7159 11.2666 15.609 11.3852 14.5391 13.1249L5.64746 28.3869C4.46682 25.9749 3.83963 23.2864 3.83963 20.5582C3.83963 11.3457 10.7389 3.87288 19.1878 3.87288C27.6367 3.87288 34.536 11.3457 34.536 20.5582V20.5978V20.6373C34.6097 22.4165 34.0932 23.8399 33.0602 24.5516ZM37.9303 20.5582V20.5187V20.4791C37.8934 9.28968 29.4814 0.15625 19.1878 0.15625C8.8573 0.15625 0.445312 9.28969 0.445312 20.5582C0.445312 31.7872 8.8573 40.9602 19.1878 40.9602C23.9472 40.9602 28.4483 39.0227 31.9165 35.5038C32.6175 34.7921 32.6544 33.6455 31.9902 32.8943C31.363 32.143 30.2931 32.1034 29.5921 32.7757C29.5921 32.7757 29.5921 32.7757 29.5553 32.8152C26.7512 35.662 22.988 37.2831 19.1141 37.2831C14.576 37.2831 10.5176 35.148 7.71356 31.7476L15.7198 17.9882V24.354C15.7198 27.3984 16.8266 28.3869 17.7489 28.6636C18.6713 28.9404 20.0733 28.7427 21.586 26.1727L25.9764 18.5418C26.124 18.3045 26.2347 18.0673 26.3823 17.9091V21.7839C26.3823 24.6307 27.4522 26.9239 29.297 28.031C30.9572 29.059 33.0602 28.9404 34.7943 27.7938C36.9342 26.2913 38.0779 23.6817 37.9303 20.5582ZM64.0517 13.5994C64.4945 13.8761 64.9004 14.5484 64.9004 15.1414C64.9004 16.0904 64.1624 16.8811 63.3138 16.8811C63.0925 16.8811 62.908 16.802 62.7235 16.7625C61.7274 15.9717 60.473 15.4577 59.1447 15.4577C56.0087 15.4577 53.8688 18.1859 53.8688 21.5862C53.8688 24.9865 56.0456 27.6751 59.1447 27.6751C60.6943 27.6751 62.0963 27.003 63.1294 25.9355C63.3877 25.7378 63.7197 25.6191 64.0517 25.6191C64.9004 25.6191 65.5644 26.3309 65.5644 27.2402C65.5644 27.8333 65.2324 28.3474 64.8265 28.6241C63.3138 30.008 61.2846 30.9173 59.1816 30.9173C54.3853 30.9173 50.4745 26.6867 50.4745 21.4676C50.4745 16.2484 54.3853 12.0179 59.1816 12.0179C60.9526 11.9783 62.6497 12.5713 64.0517 13.5994ZM72.8326 17.5532C76.1163 17.5532 78.8465 20.5187 78.8465 24.1958C78.8465 27.8333 76.0794 30.9568 72.8326 30.9568C69.4015 30.9568 66.5605 27.8729 66.5605 24.1958C66.5605 20.5187 69.4015 17.5532 72.8326 17.5532ZM72.7958 27.6751C74.2346 27.6751 75.4522 26.2122 75.4522 24.2353C75.4522 22.2584 74.2346 20.9932 72.7958 20.9932C71.2462 20.9932 69.9549 22.2189 69.9549 24.2353C69.9549 26.1727 71.2462 27.6751 72.7958 27.6751ZM80.9126 28.9008V19.5697C80.9126 18.5418 81.6505 17.7114 82.6098 17.7114C83.5321 17.7114 84.3069 18.5418 84.3069 19.5697V28.9008C84.3069 29.9289 83.5321 30.7592 82.6098 30.7592C81.6874 30.7592 80.9126 29.8893 80.9126 28.9008ZM80.6543 14.1924C80.6543 12.9667 81.5398 12.0179 82.6098 12.0179C83.7166 12.0179 84.6021 13.0063 84.6021 14.1924C84.6021 15.3787 83.7166 16.3275 82.6098 16.3275C81.503 16.288 80.6543 15.3391 80.6543 14.1924ZM90.8004 23.8399V28.9008C90.8004 29.9289 90.0256 30.7592 89.1032 30.7592C88.1808 30.7592 87.4061 29.9289 87.4061 28.9008V19.1348C87.4061 18.344 87.9964 17.7114 88.7343 17.7114C89.4721 17.7114 90.0256 18.3836 90.0256 19.1348C91.3907 17.751 92.6082 17.5532 93.7519 17.5532C97.1462 17.5532 98.6589 20.2815 98.6589 23.405V28.9008C98.6589 29.9289 97.8841 30.7592 96.9618 30.7592C96.0394 30.7592 95.2646 29.9289 95.2646 28.9008V23.8399C95.2646 22.2584 95.0802 20.9141 92.9403 20.9141C91.4276 20.9141 90.8004 22.2584 90.8004 23.8399ZM109.654 25.7773C109.248 25.7773 108.989 25.5796 108.768 25.3028L104.82 20.7163V28.9008C104.82 29.9289 104.046 30.7592 103.123 30.7592C102.201 30.7592 101.426 29.9289 101.426 28.9008V12.69C101.537 12.4133 101.795 12.2155 102.053 12.2155C102.348 12.2155 102.607 12.4924 102.791 12.69L109.1 20.2814C109.285 20.5187 109.506 20.6373 109.654 20.6373C109.764 20.6373 110.022 20.5187 110.207 20.2814L116.516 12.69C116.7 12.4924 116.922 12.2155 117.253 12.2155C117.549 12.2155 117.808 12.4133 117.881 12.69V28.9008C117.881 29.9289 117.143 30.7592 116.184 30.7592C115.262 30.7592 114.487 29.9289 114.487 28.9008V20.7163L110.539 25.3028C110.244 25.5796 109.986 25.7773 109.654 25.7773ZM125.961 27.6751C127.473 27.6751 128.765 26.2122 128.765 24.2353C128.765 22.2584 127.437 20.9536 125.961 20.9536C124.486 20.9536 123.268 22.2978 123.268 24.2353C123.268 26.1331 124.448 27.6751 125.961 27.6751ZM129.577 29.3358L129.502 28.9008C128.838 30.2847 126.736 30.9173 125.407 30.9173C122.235 30.9173 119.874 27.8333 119.874 24.1562C119.874 20.5187 122.271 17.5137 125.592 17.5137C126.146 17.5137 128.064 17.6719 129.54 19.5302L129.613 19.0952C129.613 18.3045 130.167 17.6719 130.905 17.6719C131.643 17.6719 132.233 18.344 132.233 19.0952V29.2962C132.233 30.087 131.643 30.7197 130.905 30.7197C130.13 30.7592 129.577 30.087 129.577 29.3358ZM141.568 20.9141H141.198C139.058 21.0327 138.652 22.3374 138.652 23.8399V28.9008C138.652 29.9289 137.878 30.7592 136.956 30.7592C136.033 30.7592 135.259 29.9289 135.259 28.9008V19.1348C135.259 18.344 135.849 17.7114 136.586 17.7114C137.325 17.7114 137.878 18.3836 137.878 19.1348C139.132 17.8695 140.166 17.5928 141.198 17.5532H141.531C142.343 17.5532 143.08 18.3045 143.08 19.2534C143.117 20.1233 142.379 20.9141 141.568 20.9141ZM154.665 28.031C154.813 28.3078 154.923 28.5845 154.923 28.9008C154.923 29.8498 154.112 30.7197 153.226 30.7197C152.636 30.7197 152.119 30.2452 151.713 29.6916L147.803 24.8283V28.8613C147.803 29.8893 147.028 30.7197 146.105 30.7197C145.183 30.7197 144.409 29.8893 144.409 28.8613V14.0343C144.409 13.0063 145.146 12.176 146.105 12.176C147.065 12.176 147.803 13.0063 147.803 14.0343V23.2864L151.713 18.6604C152.119 18.1859 152.599 17.6719 153.189 17.6719C154.037 17.6719 154.813 18.5022 154.813 19.4512C154.813 19.7279 154.738 20.0442 154.591 20.2814L151.492 23.919L154.665 28.031ZM161.306 20.9536C160.384 20.9536 158.871 21.4676 158.871 23.0096H163.778C163.742 21.4676 162.191 20.9536 161.306 20.9536ZM165.733 25.3424H158.871C158.871 27.517 160.826 27.8729 161.675 27.8729C162.302 27.8729 163.187 27.7542 163.889 27.3984C164.11 27.2402 164.442 27.1217 164.774 27.1217C165.513 27.1217 166.139 27.7938 166.139 28.6241C166.139 29.1777 165.808 29.6522 165.402 29.9289C164.368 30.7592 163.003 30.9568 161.712 30.9568C158.28 30.9568 155.44 28.9799 155.44 24.354C155.44 20.7163 157.173 17.5532 161.232 17.5532C164.516 17.5532 166.987 19.8466 167.062 23.919C167.062 24.6703 166.472 25.3424 165.733 25.3424ZM175.178 30.9173H174.256C171.674 30.9173 170.161 29.6916 170.161 25.3819V20.9141H169.275C168.463 20.9141 167.763 20.1233 167.763 19.2534C167.763 18.3045 168.5 17.5532 169.275 17.5532H170.161V14.1134C170.161 13.0854 170.899 12.2551 171.858 12.2551C172.78 12.2551 173.556 13.0854 173.556 14.1134V17.5532H174.957C175.769 17.5532 176.47 18.3045 176.47 19.2534C176.47 20.1233 175.731 20.9141 174.957 20.9141H173.556V24.6703C173.556 27.1612 173.665 27.6751 174.699 27.6751H175.178C175.99 27.6751 176.692 28.3869 176.692 29.2962C176.692 30.1661 175.99 30.9173 175.178 30.9173ZM191.597 13.5994C192.039 13.8761 192.445 14.5484 192.445 15.1414C192.445 16.0904 191.708 16.8811 190.858 16.8811C190.637 16.8811 190.452 16.802 190.268 16.7625C189.272 15.9717 188.018 15.4577 186.69 15.4577C183.554 15.4577 181.413 18.1859 181.413 21.5862C181.413 24.9865 183.59 27.6751 186.69 27.6751C188.239 27.6751 189.642 27.003 190.674 25.9355C190.932 25.7378 191.264 25.6191 191.597 25.6191C192.445 25.6191 193.109 26.3309 193.109 27.2402C193.109 27.8333 192.778 28.3474 192.372 28.6241C190.858 30.008 188.83 30.9173 186.726 30.9173C181.93 30.9173 178.019 26.6867 178.019 21.4676C178.019 16.2484 181.93 12.0179 186.726 12.0179C188.497 11.9783 190.232 12.5713 191.597 13.5994ZM200.193 27.6751C201.706 27.6751 202.998 26.2122 202.998 24.2353C202.998 22.2584 201.669 20.9536 200.193 20.9536C198.68 20.9536 197.5 22.2978 197.5 24.2353C197.5 26.1331 198.717 27.6751 200.193 27.6751ZM203.808 29.3358L203.735 28.9008C203.071 30.2847 200.968 30.9173 199.64 30.9173C196.467 30.9173 194.105 27.8333 194.105 24.1562C194.105 20.5187 196.504 17.5137 199.824 17.5137C200.377 17.5137 202.296 17.6719 203.772 19.5302L203.846 19.0952C203.846 18.3045 204.399 17.6719 205.137 17.6719C205.875 17.6719 206.465 18.344 206.465 19.0952V29.2962C206.465 30.087 205.875 30.7197 205.137 30.7197C204.363 30.7592 203.808 30.087 203.808 29.3358ZM215.726 27.6751C217.238 27.6751 218.419 26.1331 218.419 24.2353C218.419 22.2584 217.202 20.9536 215.726 20.9536C214.213 20.9536 212.921 22.2584 212.921 24.2353C212.921 26.2122 214.213 27.6751 215.726 27.6751ZM212.921 29.8498V34.4759C212.921 35.5038 212.147 36.3341 211.225 36.3341C210.302 36.3341 209.527 35.5038 209.527 34.4759V19.1348C209.527 18.344 210.118 17.7114 210.855 17.7114C211.594 17.7114 212.147 18.3836 212.147 19.293C213.401 17.9091 214.951 17.5532 216.132 17.5532C219.415 17.5532 221.85 20.5187 221.85 24.1958C221.85 27.8333 219.526 30.9568 216.316 30.9568C215.32 30.9173 213.844 30.601 212.921 29.8498Z" fill="#3861FA"/>
</g>
<defs>
<clipPath id="clip0_567_5325">
<rect width="222.833" height="42" fill="white" transform="translate(-0.0078125)"/>
</clipPath>
</defs>
</svg>
