<svg width="347" height="42" viewBox="0 0 347 42" fill="none" xmlns="http://www.w3.org/2000/svg">
<g clip-path="url(#clip0_567_5332)">
<path d="M50.3714 12.3545C50.5121 12.3748 52.7241 13.6162 52.8588 13.7281C53.5151 14.2732 54.1358 16.4831 54.0246 17.3696C53.9782 17.7414 53.6228 18.9816 53.4584 19.3023C53.3219 19.5685 51.8997 20.572 52.0991 20.8576C52.1494 20.9298 53.2008 21.3854 53.6025 21.7788C55.4507 23.5889 55.4254 27.1467 53.3098 28.6881C52.749 29.0967 50.5903 29.8421 49.9113 29.8421H40.017L39.6719 29.4969V12.3545C42.9697 12.6967 47.1884 11.8943 50.3714 12.3545ZM48.3005 15.8062C47.2015 15.6101 45.0583 15.8062 43.8136 15.8062C43.628 15.8062 43.8583 19.4878 44.0439 19.4878H48.4159C48.4354 19.4878 48.3782 19.1527 48.483 19.1063C49.5271 18.6419 50.6516 18.322 49.8077 16.8287C49.6155 16.4885 48.6749 15.8729 48.3005 15.8062ZM50.6502 23.4639C50.0862 22.6192 45.0534 22.4586 44.1909 22.7414C43.6673 22.9129 43.4249 26.2121 44.3886 26.3908C45.3635 26.5713 50.0629 26.4685 50.5906 25.691C50.8915 25.2482 50.9439 23.9037 50.6502 23.4639Z" fill="#F0B90B"/>
<path d="M71.77 12.3545C72.4241 12.4796 72.7406 13.6149 73.123 14.0966C75.2277 16.7455 77.315 19.4797 79.4099 22.1886C79.5595 22.3821 79.4053 22.6053 79.9381 22.479V12.3549H84.0798V29.4968C84.0798 30.4033 80.9277 30.2034 80.3298 29.854C79.9339 29.6224 79.6478 28.6632 79.3841 28.3243C77.4063 25.7819 75.095 22.4143 73.0169 20.1342C72.7664 19.8592 72.5238 19.3923 72.1144 19.4878V29.4968L71.7691 29.8421H68.3178L67.9727 29.4968V12.3545H71.77Z" fill="#F0B90B"/>
<path d="M111.797 12.3527C112.551 12.564 118.393 21.4804 119.735 22.4768V12.3527H123.877V29.725C123.877 30.2409 120.958 30.1514 120.43 29.9401L112.612 19.6559L111.912 19.2557V29.8404H108.345L108 29.4951V12.3527C109.022 12.5344 110.911 12.1047 111.797 12.3527Z" fill="#F0B90B"/>
<path d="M199.496 12.678C202.935 14.1108 205.387 18.4334 204.888 22.1441C204.749 23.1785 203.231 26.0746 203.254 26.4731C203.26 26.5761 204.789 27.7174 204.825 27.8141C205.069 28.4674 204.202 29.0489 203.81 29.4778C203.705 29.5926 203.756 29.9116 203.671 29.9991C202.859 30.8336 201.639 28.603 200.846 28.459C200.745 28.4408 200.774 28.8072 200.555 28.8988C196.345 30.6613 191.61 30.7533 188.551 26.8977C182.574 19.3608 190.5 8.92922 199.496 12.678ZM198.346 15.4376C190.796 11.8253 186.099 23.9294 193.749 26.7114C193.821 26.7376 193.843 27.0346 193.998 27.0709C194.453 27.1774 196.418 27.1575 196.948 27.0912C197.506 27.0211 198.789 26.6107 198.385 25.9711C198.128 25.5624 195.89 24.3447 195.674 23.743C195.639 23.6467 197.091 22.5628 197.225 22.4035C197.442 22.1453 196.976 21.3092 198.268 22.0207C199.175 22.5202 200.796 25.461 201.311 23.1742C201.936 20.4007 201.114 16.7622 198.345 15.438L198.346 15.4376Z" fill="white"/>
<path d="M160.24 12.3545V15.8057H150.806V19.0273H159.089V22.9387H150.806V26.1601H160.125C160.647 26.1601 160.647 29.8417 160.125 29.8417H147.24L146.895 29.4964V12.3545H160.24Z" fill="#F0B90B"/>
<path d="M86.6094 29.8425L93.954 12.4517C94.3305 11.9814 97.5777 11.9734 97.9073 12.273C100.227 17.0633 102.779 22.9483 104.755 27.9665C104.976 28.5458 105.25 29.2095 105.247 29.8425H101.451C100.773 29.8425 99.9803 26.657 99.698 25.9594L92.3585 26.0426L90.7511 29.8425H86.6094ZM93.7428 22.4794H98.1148C97.6736 21.4746 97.4065 20.0333 96.7538 19.3078L95.929 17.1846L93.7428 22.4794Z" fill="#F0B90B"/>
<path d="M256.084 12.3542C257.319 12.4945 259.497 13.8458 260.072 15.0323C260.342 15.5883 260.228 15.9196 260.357 16.3232C260.42 16.5196 260.754 16.4952 260.793 16.6582C261.28 18.6864 260.216 20.9575 258.608 22.2412C258.358 22.8294 256.81 22.7749 256.886 23.2862C256.878 24.2981 261.421 29.0073 261.03 29.8405C260.904 29.9636 257.932 29.8786 257.51 29.6251C256.194 27.5779 254.513 25.8049 253.438 23.6293H249.756C249.726 23.6293 249.526 24.1735 249.526 24.2043V29.4967C249.526 30.1376 246.305 29.7772 246.305 29.6115V12.3542C249.41 12.6107 253.046 12.0086 256.084 12.3542ZM255.854 15.3458C254.323 14.9583 251.244 15.6331 249.527 15.3458V20.8679H255.394C256.178 20.8679 257.535 19.2809 257.565 18.4214C257.6 17.3921 256.988 15.6327 255.854 15.3458Z" fill="white"/>
<path d="M142.883 13.8311C143.015 13.9431 143.642 14.5169 143.657 14.568C143.826 15.1453 141.336 17.806 140.925 17.6302C140.903 17.6209 140.928 17.3454 140.736 17.1949C138.483 15.4292 134.904 15.0202 133.007 17.4785C129.658 21.8184 133.38 28.194 139.195 25.9407C139.83 25.6943 141.006 24.4981 141.452 24.5852C141.595 24.6134 143.471 26.4452 143.555 26.6231C144.061 27.703 141.67 29.0395 140.834 29.4207C136.226 31.5224 129.747 29.4342 128.015 24.4427C124.758 15.0472 135.94 7.97982 142.883 13.8311Z" fill="#F0B90B"/>
<path d="M277.358 12.3545C277.459 12.4555 277.462 15.1157 277.012 15.1157H267.809L267.464 15.461V19.4878H276.207V22.479H267.464V26.7356L267.809 27.0808H277.588C277.543 27.5717 277.789 29.8421 277.243 29.8421H264.473V12.3545H277.358Z" fill="white"/>
<path d="M211.315 12.3545V23.054C211.315 24.0643 212.43 26.0895 213.347 26.597C215.874 27.9968 220.059 26.7686 220.059 23.5142V12.3545H223.281V23.5142C223.281 25.2651 221.609 27.9432 220.13 28.877C215.1 32.0516 208.094 29.1859 208.094 22.8242V12.3549L211.315 12.3545Z" fill="white"/>
<path d="M236.259 13.4229C238.751 18.2437 241.187 23.9065 243.199 28.9111C243.269 29.1258 243.391 29.7519 243.304 29.8402C243.219 29.9286 241.193 29.8944 240.878 29.852C239.282 29.6378 239.062 25.5637 238.136 25.4534C237.26 25.3491 230.904 25.2992 230.334 25.4565C230.059 25.532 228.952 29.2639 228.436 29.6277C228.038 29.907 225.977 29.9713 225.574 29.7334C224.977 29.3831 225.996 28.3546 226.026 28.2785C228.148 22.9314 230.562 17.7168 232.777 12.4127C233.09 12.0459 235.069 12.0239 235.551 12.1705C236.237 12.3797 236.02 12.9848 236.259 13.4229ZM231.569 22.9385C231.759 23.1311 236.224 22.9385 236.976 22.9385C237.001 22.9385 237.437 22.6039 237.207 22.4864L234.555 16.2654C233.644 16.437 233.967 16.9608 233.69 17.5761C233.378 18.272 231.3 22.6651 231.569 22.9385Z" fill="white"/>
<path d="M11.4661 24.6837C12.2021 25.3451 16.1897 29.505 16.5378 29.5532C17.1556 29.6389 22.1259 23.6588 22.5459 23.6177C23.0022 23.5733 26.541 26.9245 26.535 27.1958C26.5203 27.8951 17.6069 35.9913 16.54 36.9826L6.53125 27.195C7.2352 26.9756 9.87142 23.6359 10.1245 23.619C10.9282 23.5653 11.0325 24.2937 11.4661 24.6837Z" fill="#F0B90B"/>
<path d="M17.194 5.83042C20.2431 8.74763 23.2338 11.6458 26.2106 14.6442C26.3229 14.8157 26.3495 15.0042 26.328 15.2048C26.3052 15.4161 23.5118 18.1187 23.3217 18.215C22.9929 18.3815 22.8974 18.335 22.5696 18.2966C21.7418 18.1998 16.7322 12.0565 16.4275 12.3561C16.4101 12.373 16.4432 12.6054 16.2378 12.8027C14.4421 14.5326 12.6779 16.2975 10.9611 18.1009C10.5707 18.3806 10.2378 18.335 9.81099 18.1804C9.61578 18.1094 6.88321 15.4969 6.81519 15.3004C6.72307 15.0341 6.71885 14.8884 6.86589 14.6437L16.4284 4.99337C16.6591 4.88097 17.0233 5.66732 17.194 5.83042Z" fill="#F0B90B"/>
<path d="M182.929 14.7926C182.77 15.0503 181.841 16.5009 181.737 16.5157C181.312 16.5771 179.176 15.0474 178.296 14.9012C176.198 14.553 173.151 15.2232 174.342 17.9402C174.879 19.1617 178.904 19.7127 180.306 20.254C183.501 21.4864 184.882 24.5059 183.024 27.604C180.332 31.6172 173.542 30.0598 170.404 27.5102C170.12 27.0099 171.564 25.425 171.963 25.3366C172.95 25.1182 173.142 25.9087 173.832 26.2582C175.51 27.1084 178.873 27.945 180.23 26.24C181.9 24.14 179.202 23.0896 177.554 22.547C176.504 22.2014 175.318 22.2044 174.086 21.6428C171.239 20.3444 169.877 17.6769 171.563 14.8099C173.933 10.9319 179.901 11.6249 183.05 14.0747C183.345 14.4457 183.109 14.5023 182.93 14.7926H182.929Z" fill="white"/>
<path d="M63.1378 12.3545V29.4968L62.7925 29.8421H59.3408L58.9961 29.4968V12.3545H63.1378Z" fill="#F0B90B"/>
<path d="M32.7486 21.3081L28.9783 24.7724C28.4353 23.8619 25.2519 21.6318 25.3828 20.7689L28.9627 17.4524C29.307 17.4186 32.8453 20.9704 32.7486 21.3081Z" fill="#F0B90B"/>
<path d="M4.61796 17.734C4.90149 17.9296 7.70756 20.7416 7.6932 20.9643C7.65813 21.5111 4.38937 24.7608 4.11979 24.7156C3.76824 24.6564 0.499903 21.4472 0.59582 21.0188L3.99642 17.5168C4.22754 17.3917 4.44008 17.6111 4.61796 17.734Z" fill="#F0B90B"/>
<path d="M17.0435 17.7328C17.3491 18.3223 20.1251 20.6102 20.1209 20.966C20.1146 21.4963 16.8243 24.7597 16.5438 24.7203C16.2771 24.6831 12.8718 21.3692 12.9627 20.7696C12.9889 20.5959 13.4917 20.5148 13.6848 20.312C14.2134 19.7571 14.4715 19.6634 14.8273 19.3291C15.3357 18.8521 16.4085 17.0119 17.0435 17.7328Z" fill="#F0B90B"/>
</g>
<defs>
<clipPath id="clip0_567_5332">
<rect width="346.834" height="42" fill="white"/>
</clipPath>
</defs>
</svg>
