<svg preserveAspectRatio="none" width="100%" height="100%" overflow="visible" style="display: block;" viewBox="0 0 86.2505 84.8134" fill="none" xmlns="http://www.w3.org/2000/svg">
<g id="Layer 33">
<path id="Vector" opacity="0.3" d="M57.5 38.8125L43.125 15.8125L28.75 38.8125H57.5Z" fill="var(--fill-0, #0080ED)"/>
<path id="Vector_2" d="M57.5 38.8125H86.25L71.875 15.8125L57.5 38.8125Z" fill="var(--fill-0, #0080ED)"/>
<path id="Vector_3" opacity="0.1" d="M14.375 15.8125L0 38.8125H28.75L14.375 15.8125Z" fill="var(--fill-0, #0080ED)"/>
<path id="Vector_4" opacity="0.5" d="M71.875 15.8125H43.125L57.5 38.8125L71.875 15.8125Z" fill="var(--fill-0, #0080ED)"/>
<path id="Vector_5" opacity="0.2" d="M43.125 15.8125H14.375L28.75 38.8125L43.125 15.8125Z" fill="var(--fill-0, #0080ED)"/>
<path id="Vector_6" opacity="0.1" d="M0 38.8125L42.9712 84.3194L28.75 38.8125H0Z" fill="var(--fill-0, #0080ED)"/>
<path id="Vector_7" opacity="0.8" d="M43.2031 84.5652L43.436 84.8125L86.2505 38.8125H57.5005L43.2031 84.5652Z" fill="var(--fill-0, #0080ED)"/>
<path id="Vector_8" opacity="0.4" d="M28.75 38.8125L42.9712 84.3194L43.2026 84.5652L57.5 38.8125H28.75Z" fill="var(--fill-0, #0080ED)"/>
<path id="Vector_9" d="M43.1226 84.8134L43.2002 84.5661L42.9688 84.3203L43.1226 84.8134Z" fill="var(--fill-0, #9BC9FF)"/>
<g id="Group">
<path id="Vector_10" d="M43.125 11.5C42.7438 11.5 42.3781 11.3485 42.1085 11.079C41.8389 10.8094 41.6875 10.4437 41.6875 10.0625V1.4375C41.6875 1.05625 41.8389 0.690617 42.1085 0.421034C42.3781 0.15145 42.7438 0 43.125 0C43.5062 0 43.8719 0.15145 44.1415 0.421034C44.4111 0.690617 44.5625 1.05625 44.5625 1.4375V10.0625C44.5625 10.4437 44.4111 10.8094 44.1415 11.079C43.8719 11.3485 43.5062 11.5 43.125 11.5Z" fill="var(--fill-0, #F2C34E)"/>
<path id="Vector_11" d="M4.31192 66.1253C3.96638 66.1252 3.63245 66.0006 3.37128 65.7743C3.11011 65.5481 2.93918 65.2353 2.88977 64.8933C2.84037 64.5514 2.9158 64.203 3.10226 63.9121C3.28873 63.6212 3.57374 63.4072 3.90511 63.3093L11.209 61.153C11.391 61.0963 11.5825 61.0763 11.7722 61.0943C11.962 61.1122 12.1463 61.1678 12.3144 61.2576C12.4825 61.3475 12.631 61.4699 12.7514 61.6177C12.8718 61.7655 12.9615 61.9357 13.0155 62.1185C13.0694 62.3013 13.0865 62.4931 13.0657 62.6825C13.0448 62.872 12.9865 63.0554 12.8941 63.2222C12.8017 63.3889 12.6771 63.5356 12.5275 63.6537C12.3779 63.7718 12.2063 63.859 12.0227 63.9101L4.71873 66.0664C4.58668 66.1055 4.44966 66.1254 4.31192 66.1253Z" fill="var(--fill-0, #F2C34E)"/>
<path id="Vector_12" d="M21.5623 83.375C21.3388 83.375 21.1184 83.3228 20.9185 83.2227C20.7187 83.1225 20.5449 82.9772 20.4111 82.7981C20.2773 82.6191 20.187 82.4113 20.1476 82.1913C20.1081 81.9713 20.1205 81.7451 20.1838 81.5307L22.34 74.2253C22.4481 73.8597 22.697 73.552 23.032 73.3699C23.3669 73.1878 23.7605 73.1462 24.1261 73.2543C24.4917 73.3624 24.7994 73.6113 24.9815 73.9462C25.1636 74.2812 25.2052 74.6748 25.0971 75.0404L22.9409 82.3443C22.8531 82.6419 22.6714 82.903 22.4229 83.0888C22.1745 83.2746 21.8726 83.375 21.5623 83.375Z" fill="var(--fill-0, #F2C34E)"/>
<path id="Vector_13" d="M26.5904 11.6191C26.3379 11.6193 26.0897 11.553 25.8709 11.4269C25.6521 11.3007 25.4704 11.1191 25.3441 10.9003L21.0316 3.42534C20.844 3.09535 20.7945 2.70455 20.894 2.33821C20.9934 1.97187 21.2338 1.65975 21.5625 1.46994C21.8912 1.28014 22.2817 1.22807 22.6487 1.3251C23.0157 1.42212 23.3294 1.66037 23.5214 1.98784L27.8339 9.46284C27.96 9.68126 28.0264 9.92901 28.0265 10.1812C28.0265 10.4334 27.9602 10.6812 27.8342 10.8997C27.7082 11.1182 27.527 11.2997 27.3087 11.4259C27.0903 11.5522 26.8426 11.6188 26.5904 11.6191Z" fill="var(--fill-0, #F2C34E)"/>
<path id="Vector_14" d="M59.6548 11.6191C59.4026 11.6188 59.1549 11.5522 58.9365 11.4259C58.7182 11.2997 58.537 11.1182 58.411 10.8997C58.285 10.6812 58.2187 10.4334 58.2188 10.1812C58.2188 9.92901 58.2852 9.68126 58.4113 9.46284L62.7238 1.98784C62.9158 1.66037 63.2295 1.42212 63.5965 1.3251C63.9635 1.22807 64.354 1.28014 64.6827 1.46994C65.0115 1.65975 65.2518 1.97187 65.3512 2.33821C65.4507 2.70455 65.4012 3.09535 65.2136 3.42534L60.9011 10.9003C60.7748 11.1191 60.5931 11.3007 60.3743 11.4269C60.1555 11.553 59.9073 11.6193 59.6548 11.6191Z" fill="var(--fill-0, #F2C34E)"/>
<path id="Vector_15" d="M11.4997 76.1874C11.2154 76.1874 10.9376 76.103 10.7012 75.9451C10.4649 75.7871 10.2807 75.5626 10.1719 75.3C10.0631 75.0374 10.0347 74.7484 10.0901 74.4696C10.1455 74.1908 10.2824 73.9346 10.4834 73.7336L16.2334 67.9836C16.5045 67.7217 16.8676 67.5769 17.2445 67.5801C17.6214 67.5834 17.982 67.7346 18.2485 68.0011C18.515 68.2676 18.6662 68.6282 18.6695 69.0051C18.6727 69.382 18.5279 69.7451 18.266 70.0162L12.516 75.7662C12.2465 76.0358 11.8809 76.1873 11.4997 76.1874Z" fill="var(--fill-0, #F2C34E)"/>
<path id="Vector_16" d="M81.9342 66.1253C81.7965 66.1254 81.6595 66.1055 81.5274 66.0664L74.2235 63.9101C74.0399 63.859 73.8683 63.7718 73.7186 63.6537C73.569 63.5356 73.4444 63.3889 73.352 63.2222C73.2596 63.0554 73.2013 62.872 73.1805 62.6825C73.1597 62.4931 73.1767 62.3013 73.2307 62.1185C73.2846 61.9357 73.3744 61.7655 73.4947 61.6177C73.6151 61.4699 73.7637 61.3475 73.9318 61.2576C74.0999 61.1678 74.2842 61.1122 74.4739 61.0943C74.6637 61.0763 74.8551 61.0963 75.0371 61.153L82.341 63.3093C82.6724 63.4072 82.9574 63.6212 83.1439 63.9121C83.3303 64.203 83.4058 64.5514 83.3564 64.8933C83.307 65.2353 83.136 65.5481 82.8749 65.7743C82.6137 66.0006 82.2798 66.1252 81.9342 66.1253Z" fill="var(--fill-0, #F2C34E)"/>
<path id="Vector_17" d="M64.6875 83.375C64.3773 83.375 64.0754 83.2746 63.8269 83.0888C63.5785 82.903 63.3968 82.6419 63.309 82.3443L61.1527 75.0404C61.0446 74.6748 61.0862 74.2812 61.2683 73.9462C61.4504 73.6113 61.7581 73.3624 62.1238 73.2543C62.4894 73.1462 62.883 73.1878 63.2179 73.3699C63.5529 73.552 63.8018 73.8597 63.9099 74.2253L66.0661 81.5307C66.1294 81.7451 66.1418 81.9713 66.1023 82.1913C66.0628 82.4113 65.9726 82.6191 65.8388 82.7981C65.7049 82.9772 65.5312 83.1225 65.3314 83.2227C65.1315 83.3228 64.9111 83.375 64.6875 83.375Z" fill="var(--fill-0, #F2C34E)"/>
<path id="Vector_18" d="M74.748 76.1874C74.3667 76.1873 74.0012 76.0358 73.7316 75.7662L67.9816 70.0162C67.7198 69.7451 67.5749 69.382 67.5782 69.0051C67.5815 68.6282 67.7326 68.2676 67.9992 68.0011C68.2657 67.7346 68.6262 67.5834 69.0031 67.5801C69.38 67.5769 69.7432 67.7217 70.0143 67.9836L75.7643 73.7336C75.9653 73.9346 76.1021 74.1908 76.1575 74.4696C76.213 74.7484 76.1845 75.0374 76.0758 75.3C75.967 75.5626 75.7828 75.7871 75.5464 75.9451C75.3101 76.103 75.0322 76.1874 74.748 76.1874Z" fill="var(--fill-0, #F2C34E)"/>
</g>
</g>
</svg>
