<svg preserveAspectRatio="none" width="100%" height="100%" overflow="visible" style="display: block;" viewBox="0 0 84.6986 68.0928" fill="none" xmlns="http://www.w3.org/2000/svg">
<g id="g7740">
<path id="path10379" d="M79.8179 2.12447C79.8179 2.12447 76.2156 -1.51826 64.7873 0.736734C53.3591 2.99173 7.46304 8.94007 5.70845 14.3748C3.95386 19.8096 2.77785 53.9651 4.50689 58.4298C6.23593 62.8945 8.60165 65.1415 16.2576 66.1186C23.9136 67.0957 61.7308 38.5426 63.082 37.6541C64.4332 36.7655 86.9263 12.9343 79.8179 2.12447Z" fill="var(--fill-0, #0058A2)"/>
<path id="path10377" d="M79.8176 2.12452C79.8176 2.12452 84.5602 10.6873 63.4732 12.4169C42.3861 14.1466 9.03632 14.6228 7.71855 19.4059C6.40078 24.1891 6.01689 54.9091 8.10883 62.0726C10.2008 69.2361 14.8172 67.7032 23.258 68.0731C31.6988 68.443 73.219 63.5277 79.9973 58.911C86.7757 54.2942 85.7892 6.60013 79.8176 2.12452Z" fill="var(--fill-0, #0080ED)"/>
<path id="path10381" d="M18.2568 37.5499C15.9722 37.2003 12.5388 38.4452 9.88301 38.4709C8.62504 38.4831 7.4993 38.2759 6.56546 38.0054C6.56546 38.0054 4.02092 40.0655 4.48192 42.6885C4.94293 45.3114 6.77989 49.1994 6.77989 49.1994C9.88261 49.6 13.5492 49.2089 16.476 48.8171C21.3785 48.1607 21.827 40.8352 20.0869 38.5353C19.6519 37.9603 19.0183 37.6664 18.2568 37.5499Z" fill="var(--fill-0, #FFE045)"/>
<path id="path10383" d="M18.5171 43.6943C18.4527 44.1986 18.2897 44.6854 18.0372 45.1267C17.7847 45.5681 17.4477 45.9554 17.0456 46.2665C16.6434 46.5776 16.1839 46.8065 15.6933 46.94C15.2027 47.0736 14.6906 47.1092 14.1862 47.0448C13.6819 46.9805 13.1951 46.8174 12.7538 46.5649C12.3124 46.3124 11.9251 45.9755 11.614 45.5733C11.3029 45.1711 11.074 44.7116 10.9405 44.221C10.8069 43.7304 10.7713 43.2183 10.8357 42.7139C10.9657 41.6953 11.495 40.7701 12.3072 40.1417C13.1194 39.5134 14.1479 39.2334 15.1665 39.3634C16.1852 39.4934 17.1104 40.0227 17.7388 40.8349C18.3671 41.6471 18.6471 42.6756 18.5171 43.6943Z" fill="var(--fill-0, #0058A2)"/>
<path id="path10386" d="M3.94349 33.3137C-0.238946 33.1778 -1.25445 43.99 1.66939 47.0599C2.84769 48.297 4.68554 48.9287 6.77994 49.1994C6.60158 45.3544 6.56977 39.1787 6.56551 38.0054C4.87071 37.5147 3.81756 36.8124 3.81756 36.8124L3.94349 33.3137Z" fill="var(--fill-0, #FCBE00)"/>
<path id="path10711" d="M76.1947 13.8722C76.1877 13.8713 76.1806 13.8705 76.1735 13.87C76.0913 13.8634 76.0089 13.8796 75.9354 13.9167C75.8618 13.9539 75.8 14.0106 75.7566 14.0807C75.6275 14.2877 75.4479 14.4864 75.2468 14.6859C75.205 14.7273 75.1717 14.7767 75.1489 14.831C75.1262 14.8853 75.1144 14.9436 75.1141 15.0025C75.1139 15.0615 75.1253 15.1199 75.1477 15.1744C75.17 15.2289 75.2029 15.2784 75.2444 15.3202C75.286 15.362 75.3354 15.3952 75.3898 15.4179C75.4442 15.4405 75.5026 15.4523 75.5615 15.4524C75.6205 15.4525 75.6789 15.4409 75.7334 15.4184C75.7878 15.3959 75.8373 15.3629 75.8791 15.3213C76.1011 15.101 76.3299 14.8558 76.5172 14.5554C76.5486 14.5055 76.5699 14.4498 76.5798 14.3916C76.5896 14.3333 76.5879 14.2738 76.5747 14.2162C76.5615 14.1587 76.537 14.1043 76.5027 14.0562C76.4684 14.0082 76.425 13.9674 76.3748 13.9361C76.3203 13.9022 76.2585 13.8804 76.1947 13.8722ZM72.6515 16.5256C72.6378 16.5234 72.6239 16.522 72.61 16.5211C72.5357 16.5168 72.4615 16.5311 72.394 16.5627C72.1301 16.6863 71.8631 16.8042 71.5941 16.9127C71.5395 16.9347 71.4898 16.9673 71.4477 17.0085C71.4057 17.0497 71.3722 17.0988 71.3492 17.153C71.3261 17.2072 71.314 17.2654 71.3134 17.3243C71.3128 17.3832 71.3239 17.4416 71.3459 17.4962C71.3679 17.5508 71.4005 17.6005 71.4417 17.6426C71.4829 17.6846 71.532 17.7181 71.5862 17.7411C71.6404 17.7642 71.6986 17.7763 71.7575 17.7769C71.8163 17.7775 71.8748 17.7664 71.9294 17.7444C72.2147 17.6292 72.4969 17.5051 72.7742 17.3753C72.8275 17.3502 72.8753 17.3149 72.9149 17.2713C72.9545 17.2278 72.9851 17.1768 73.005 17.1214C73.0249 17.066 73.0337 17.0072 73.0309 16.9484C73.0281 16.8896 73.0137 16.8319 72.9886 16.7787C72.9575 16.7121 72.9105 16.6541 72.8517 16.61C72.7929 16.5658 72.7242 16.5369 72.6515 16.5256ZM68.4075 17.9582C68.3517 17.95 68.2948 17.9524 68.2399 17.9653C67.9517 18.0339 67.6656 18.0997 67.3803 18.1569C67.2642 18.1805 67.1622 18.249 67.0965 18.3476C67.0308 18.4461 67.0067 18.5667 67.0297 18.6829C67.0528 18.7993 67.1211 18.9017 67.2197 18.9678C67.3183 19.0339 67.439 19.0582 67.5554 19.0354C67.8562 18.975 68.1547 18.9071 68.4481 18.8373C68.5633 18.8095 68.6628 18.7371 68.7248 18.636C68.7869 18.5349 68.8063 18.4134 68.7789 18.298C68.7581 18.2107 68.7116 18.1317 68.6454 18.0711C68.5792 18.0105 68.4963 17.9712 68.4075 17.9582ZM63.964 18.7031C63.9343 18.7004 63.9044 18.7007 63.8747 18.7039C63.5816 18.7378 63.2892 18.7687 62.9963 18.794C62.878 18.8044 62.7686 18.8613 62.6922 18.9522C62.6158 19.0432 62.5786 19.1608 62.5888 19.2791C62.599 19.3976 62.6559 19.5071 62.7468 19.5836C62.8378 19.6601 62.9554 19.6973 63.0738 19.6871C63.3764 19.661 63.6767 19.6294 63.9773 19.5946C64.0359 19.588 64.0926 19.5699 64.1442 19.5413C64.1958 19.5127 64.2413 19.4743 64.278 19.4281C64.3146 19.3819 64.3419 19.329 64.3581 19.2723C64.3743 19.2155 64.3791 19.1562 64.3723 19.0976C64.3607 18.9996 64.3171 18.9082 64.2483 18.8375C64.1795 18.7668 64.0892 18.7208 63.9916 18.7067C63.9824 18.7052 63.9733 18.704 63.964 18.7031ZM59.5054 19.0029C59.4843 19.0004 59.4631 18.9994 59.4418 18.9999L58.5448 19.0274C58.4859 19.0292 58.4279 19.0425 58.3741 19.0667C58.3204 19.0908 58.2719 19.1253 58.2315 19.1683C58.1911 19.2112 58.1596 19.2616 58.1387 19.3167C58.1178 19.3718 58.108 19.4305 58.1098 19.4894C58.1115 19.5484 58.1249 19.6064 58.1491 19.6602C58.1733 19.714 58.2078 19.7625 58.2508 19.8029C58.2937 19.8433 58.3443 19.8749 58.3994 19.8957C58.4546 19.9166 58.5133 19.9263 58.5723 19.9245L59.4693 19.897C59.588 19.893 59.7003 19.8421 59.7815 19.7554C59.8627 19.6688 59.9062 19.5534 59.9024 19.4347C59.8992 19.3271 59.8572 19.2242 59.7843 19.1449C59.7114 19.0656 59.6124 19.0151 59.5054 19.0029ZM55.0311 19.1549C55.0274 19.1545 55.0237 19.1542 55.02 19.154C54.9989 19.1515 54.9776 19.1505 54.9564 19.1511L54.0622 19.186C54.0032 19.1881 53.9452 19.2018 53.8915 19.2264C53.8378 19.2511 53.7896 19.286 53.7494 19.3293C53.7093 19.3726 53.6782 19.4235 53.6577 19.4788C53.6373 19.5342 53.628 19.5931 53.6304 19.6521C53.6328 19.711 53.6467 19.7688 53.6715 19.8223C53.6962 19.8757 53.7312 19.9238 53.7745 19.9637C53.8178 20.0036 53.8686 20.0346 53.9239 20.0549C53.9792 20.0752 54.0379 20.0844 54.0968 20.082L54.9929 20.0474C55.1114 20.0425 55.2231 19.9909 55.3037 19.9039C55.3842 19.8168 55.4269 19.7013 55.4225 19.5828C55.4185 19.4767 55.377 19.3754 55.3053 19.2971C55.2336 19.2187 55.1365 19.1683 55.0311 19.1549ZM50.5392 19.3387C50.518 19.3364 50.4968 19.3355 50.4755 19.3362L50.1673 19.3501C50.1667 19.35 50.1661 19.3499 50.1654 19.3499L49.5785 19.3777C49.4598 19.3833 49.3481 19.4357 49.268 19.5236C49.1879 19.6115 49.1461 19.7276 49.1516 19.8464C49.1572 19.965 49.2098 20.0766 49.2977 20.1566C49.3855 20.2366 49.5016 20.2784 49.6203 20.2728L50.2072 20.245L50.5156 20.2329C50.5745 20.2304 50.6323 20.2162 50.6858 20.1913C50.7392 20.1663 50.7872 20.1311 50.8269 20.0876C50.8667 20.0441 50.8975 19.9931 50.9176 19.9377C50.9377 19.8822 50.9466 19.8234 50.9439 19.7645C50.939 19.6567 50.8953 19.5543 50.821 19.476C50.7466 19.3978 50.6466 19.3491 50.5392 19.3387ZM46.0584 19.5525C46.0373 19.55 46.016 19.549 45.9948 19.5496L45.099 19.5968C44.9804 19.6032 44.8692 19.6562 44.7898 19.7444C44.7103 19.8326 44.669 19.9487 44.6751 20.0673C44.6814 20.1859 44.7345 20.2972 44.8228 20.3767C44.9111 20.4562 45.0273 20.4974 45.146 20.4912L46.0402 20.4456C46.099 20.4427 46.1567 20.4282 46.2099 20.4029C46.2632 20.3776 46.3109 20.3421 46.3504 20.2984C46.3899 20.2547 46.4204 20.2036 46.4401 20.1481C46.4599 20.0926 46.4685 20.0337 46.4655 19.9749C46.4597 19.8673 46.4154 19.7654 46.3406 19.6879C46.2658 19.6103 46.1657 19.5622 46.0584 19.5525ZM41.5885 19.7938C41.5855 19.7935 41.5824 19.7933 41.5793 19.7931C41.5581 19.7912 41.5367 19.7908 41.5155 19.792L40.9458 19.8239L40.6211 19.8427C40.5622 19.846 40.5045 19.8609 40.4513 19.8865C40.3981 19.9122 40.3506 19.9481 40.3113 19.9921C40.2721 20.0362 40.2419 20.0876 40.2225 20.1433C40.2032 20.1991 40.195 20.2581 40.1986 20.3171C40.2058 20.4357 40.2599 20.5466 40.3489 20.6254C40.4379 20.7043 40.5545 20.7445 40.6732 20.7373L40.9983 20.7185L41.5662 20.6864C41.6848 20.6796 41.7959 20.6261 41.8751 20.5375C41.9543 20.4489 41.9951 20.3325 41.9885 20.2139C41.9824 20.1078 41.9388 20.0074 41.8656 19.9305C41.7923 19.8535 41.6942 19.8051 41.5885 19.7938ZM37.1119 20.0627C37.1081 20.0624 37.1042 20.0621 37.1004 20.0618C37.0798 20.0601 37.059 20.0598 37.0384 20.0609L36.1427 20.1184C36.0241 20.1264 35.9136 20.1811 35.8354 20.2705C35.7571 20.3599 35.7176 20.4768 35.7254 20.5953C35.7291 20.6541 35.7444 20.7117 35.7704 20.7646C35.7964 20.8175 35.8326 20.8648 35.8768 20.9037C35.9211 20.9426 35.9726 20.9725 36.0284 20.9914C36.0842 21.0104 36.1433 21.0182 36.2021 21.0144L37.0959 20.9566C37.1548 20.9529 37.2123 20.9376 37.2652 20.9116C37.3182 20.8856 37.3654 20.8495 37.4044 20.8052C37.4433 20.7609 37.4731 20.7094 37.4921 20.6536C37.5111 20.5978 37.5189 20.5388 37.515 20.4799C37.5082 20.3739 37.4639 20.2738 37.3901 20.1974C37.3162 20.121 37.2176 20.0732 37.1119 20.0627ZM32.6345 20.3671C32.6314 20.3668 32.6283 20.3666 32.6253 20.3664C32.6042 20.3645 32.583 20.3642 32.5619 20.3654L31.6671 20.4305C31.6083 20.4348 31.5509 20.4506 31.4983 20.4771C31.4456 20.5036 31.3987 20.5402 31.3602 20.5848C31.3217 20.6295 31.2924 20.6812 31.2739 20.7372C31.2555 20.7932 31.2482 20.8522 31.2526 20.911C31.2615 21.0294 31.3169 21.1394 31.4067 21.217C31.4965 21.2945 31.6134 21.3333 31.7318 21.3248L32.6266 21.2601C32.7449 21.2513 32.855 21.1959 32.9325 21.106C33.0101 21.0162 33.0489 20.8993 33.0404 20.7809C33.0326 20.6751 32.9876 20.5754 32.9133 20.4996C32.839 20.4238 32.7402 20.3768 32.6345 20.3671ZM28.1621 20.7127C28.1589 20.7124 28.1556 20.7122 28.1524 20.7119C28.1312 20.7107 28.1099 20.7109 28.0888 20.7127C27.7894 20.737 27.4906 20.7635 27.1924 20.7898C27.1338 20.7949 27.0766 20.8115 27.0244 20.8386C26.9721 20.8658 26.9257 20.9029 26.8878 20.948C26.8499 20.9931 26.8213 21.0452 26.8035 21.1014C26.7858 21.1576 26.7793 21.2167 26.7844 21.2753C26.7895 21.3341 26.8061 21.3913 26.8334 21.4437C26.8606 21.496 26.8979 21.5425 26.9432 21.5804C26.9884 21.6182 27.0407 21.6468 27.097 21.6645C27.1533 21.6821 27.2126 21.6884 27.2713 21.6831C27.5685 21.6569 27.8642 21.6311 28.1605 21.607C28.2193 21.6023 28.2765 21.586 28.329 21.5592C28.3814 21.5324 28.4281 21.4955 28.4663 21.4506C28.5044 21.4057 28.5334 21.3537 28.5515 21.2976C28.5695 21.2415 28.5764 21.1824 28.5716 21.1237C28.5631 21.0178 28.5173 20.9183 28.4423 20.843C28.3673 20.7678 28.268 20.7216 28.1621 20.7127ZM23.7055 21.1248C23.6758 21.1216 23.6457 21.1213 23.6159 21.1241L23.2298 21.1636C23.2293 21.1635 23.2288 21.1634 23.2283 21.1634L22.723 21.2175C22.6643 21.2236 22.6074 21.2412 22.5555 21.2693C22.5036 21.2974 22.4578 21.3354 22.4206 21.3813C22.3835 21.4272 22.3558 21.4799 22.339 21.5365C22.3223 21.5931 22.317 21.6524 22.3232 21.7111C22.3359 21.8293 22.395 21.9376 22.4876 22.0122C22.5801 22.0868 22.6984 22.1216 22.8166 22.109L23.3216 22.0566L23.706 22.017C23.7646 22.0111 23.8215 21.9937 23.8735 21.9658C23.9254 21.9379 23.9713 21.9001 24.0086 21.8544C24.0459 21.8088 24.0738 21.7562 24.0907 21.6998C24.1077 21.6433 24.1133 21.5841 24.1073 21.5254C24.0972 21.4273 24.055 21.3352 23.9872 21.2634C23.9195 21.1917 23.8299 21.1443 23.7325 21.1287C23.7235 21.1271 23.7146 21.1258 23.7055 21.1248ZM19.2666 21.6437C19.2276 21.6389 19.1881 21.6392 19.1492 21.6446C18.8494 21.6844 18.5506 21.7283 18.2533 21.7732C18.1363 21.7912 18.0311 21.8549 17.9608 21.9502C17.8905 22.0456 17.8609 22.1649 17.8782 22.282C17.8869 22.3404 17.907 22.3964 17.9374 22.4469C17.9678 22.4974 18.0078 22.5415 18.0553 22.5765C18.1027 22.6115 18.1565 22.6369 18.2138 22.6511C18.271 22.6653 18.3304 22.668 18.3887 22.6592C18.6825 22.6148 18.9752 22.5725 19.2679 22.5337C19.3263 22.5259 19.3826 22.5067 19.4335 22.4772C19.4845 22.4476 19.5291 22.4083 19.5649 22.3615C19.6007 22.3148 19.6269 22.2614 19.642 22.2044C19.6571 22.1475 19.6609 22.0882 19.6531 22.0298C19.6402 21.9319 19.5953 21.8409 19.5254 21.7711C19.4555 21.7013 19.3645 21.6565 19.2666 21.6437ZM14.8522 22.468C14.8483 22.4677 14.8445 22.4674 14.8406 22.4671C14.7841 22.4629 14.7274 22.4694 14.6733 22.4864C14.3871 22.5757 14.0616 22.675 13.7456 22.8645C13.6437 22.9258 13.5704 23.0251 13.5418 23.1405C13.5131 23.2558 13.5315 23.3779 13.5928 23.4797C13.6541 23.5816 13.7534 23.6549 13.8688 23.6835C13.9841 23.7122 14.1062 23.6938 14.208 23.6325C14.4055 23.5141 14.658 23.4296 14.9402 23.3415C15.0535 23.3059 15.148 23.2266 15.203 23.1213C15.258 23.0159 15.2688 22.8931 15.2333 22.7797C15.2071 22.6962 15.157 22.6223 15.0893 22.5669C15.0216 22.5116 14.9392 22.4771 14.8522 22.468ZM13.3785 26.2496C13.3752 26.2493 13.372 26.249 13.3687 26.2488C13.3651 26.249 13.3615 26.2491 13.3579 26.2494C13.2396 26.242 13.1232 26.2818 13.0342 26.3601C12.9451 26.4384 12.8907 26.5487 12.8829 26.667C12.8636 26.966 12.845 27.2661 12.83 27.5682C12.8269 27.6271 12.8355 27.6861 12.8553 27.7416C12.875 27.7972 12.9055 27.8483 12.9451 27.892C12.9846 27.9358 13.0324 27.9713 13.0857 27.9966C13.139 28.0218 13.1967 28.0363 13.2556 28.0392C13.3743 28.0449 13.4904 28.0032 13.5783 27.9233C13.6663 27.8435 13.7189 27.732 13.7247 27.6133C13.7394 27.3184 13.7587 27.0222 13.7779 26.7247C13.7855 26.6093 13.7481 26.4954 13.6737 26.4069C13.5992 26.3183 13.4935 26.2619 13.3785 26.2496ZM13.2019 30.7292C13.1901 30.7277 13.1782 30.7267 13.1663 30.7262C13.1627 30.7263 13.1591 30.7265 13.1555 30.7267C13.0967 30.7253 13.0381 30.7356 12.9832 30.7569C12.9283 30.7781 12.8781 30.81 12.8355 30.8507C12.793 30.8914 12.7588 30.94 12.735 30.9939C12.7113 31.0478 12.6984 31.1058 12.697 31.1647L12.6796 31.9672C12.6795 31.9678 12.6794 31.9685 12.6794 31.9691L12.6781 32.0628C12.6769 32.1217 12.6874 32.1803 12.7089 32.2351C12.7304 32.29 12.7625 32.3401 12.8034 32.3825C12.8443 32.4249 12.8931 32.4589 12.9471 32.4824C13.0011 32.506 13.0592 32.5187 13.1181 32.5197C13.177 32.5209 13.2356 32.5104 13.2904 32.4889C13.3453 32.4674 13.3954 32.4353 13.4378 32.3944C13.4802 32.3535 13.5142 32.3047 13.5378 32.2507C13.5613 32.1967 13.574 32.1386 13.575 32.0797L13.576 31.9878L13.5934 31.1852C13.5962 31.0743 13.5577 30.9662 13.4853 30.882C13.413 30.7978 13.312 30.7432 13.2019 30.7292ZM75.1929 53.4234C75.1112 53.4133 75.0283 53.4258 74.9533 53.4596C74.8783 53.4935 74.8141 53.5473 74.7676 53.6153C74.6104 53.8445 74.4376 54.0619 74.2501 54.2671C74.2104 54.3106 74.1797 54.3615 74.1597 54.4168C74.1396 54.4722 74.1307 54.5309 74.1334 54.5898C74.1361 54.6486 74.1504 54.7063 74.1754 54.7596C74.2004 54.8129 74.2356 54.8607 74.2791 54.9004C74.3667 54.9807 74.4826 55.0229 74.6013 55.0177C74.7201 55.0125 74.8319 54.9604 74.9122 54.8729C75.1278 54.6369 75.3271 54.3848 75.5079 54.1213C75.5411 54.0727 75.5644 54.018 75.5765 53.9604C75.5886 53.9028 75.5893 53.8433 75.5784 53.7855C75.5675 53.7276 75.5453 53.6725 75.5132 53.6232C75.481 53.5739 75.4394 53.5314 75.3908 53.4982C75.3317 53.4579 75.2638 53.4321 75.1929 53.4234ZM71.6457 56.0496C71.5805 56.0428 71.5147 56.0504 71.4527 56.0718C71.1937 56.1612 70.9168 56.232 70.6287 56.3034C70.5716 56.3176 70.5179 56.343 70.4705 56.378C70.4232 56.4131 70.3833 56.4571 70.353 56.5076C70.3227 56.558 70.3026 56.614 70.294 56.6722C70.2853 56.7305 70.2882 56.7898 70.3025 56.8469C70.331 56.962 70.4039 57.0611 70.5053 57.1226C70.6067 57.184 70.7283 57.2028 70.8435 57.1747C71.1353 57.1024 71.4388 57.0245 71.7449 56.9189C71.8572 56.8804 71.9496 56.7988 72.0019 56.6921C72.0541 56.5855 72.0619 56.4625 72.0235 56.3501C71.9972 56.2736 71.9507 56.2057 71.889 56.1535C71.8272 56.1013 71.7525 56.0668 71.6727 56.0536C71.6637 56.0523 71.6547 56.0512 71.6456 56.0504L71.6457 56.0496ZM67.271 57.0126C67.2673 57.0123 67.2636 57.012 67.2599 57.0118C67.2214 57.0081 67.1826 57.0094 67.1444 57.0157L66.5998 57.1144L66.2624 57.174C66.2043 57.1843 66.1489 57.206 66.0992 57.2378C66.0495 57.2696 66.0066 57.3109 65.9729 57.3593C65.9392 57.4077 65.9154 57.4623 65.9029 57.52C65.8903 57.5776 65.8893 57.6372 65.8998 57.6952C65.9207 57.8121 65.9872 57.9159 66.0845 57.9838C66.1819 58.0518 66.3022 58.0783 66.4191 58.0576L66.7565 57.9979C66.7571 57.998 66.7576 57.9981 66.7581 57.9981L67.3044 57.8974C67.4213 57.8761 67.5249 57.8092 67.5926 57.7116C67.6602 57.6139 67.6863 57.4933 67.6651 57.3764C67.6476 57.2812 67.5997 57.1942 67.5286 57.1284C67.4575 57.0627 67.367 57.0218 67.2707 57.0117L67.271 57.0126ZM13.2047 51.2493C13.1837 51.2465 13.1625 51.2452 13.1413 51.2454C13.0824 51.2463 13.0242 51.2588 12.9701 51.2823C12.9161 51.3057 12.8671 51.3396 12.8261 51.3819C12.7852 51.4243 12.7529 51.4743 12.7313 51.5292C12.7097 51.584 12.6991 51.6425 12.7001 51.7015C12.705 52.0074 12.7173 52.3106 12.7312 52.6111C12.7367 52.7298 12.7892 52.8415 12.8771 52.9216C12.965 53.0017 13.081 53.0435 13.1998 53.038C13.3186 53.0325 13.4302 52.98 13.5103 52.8921C13.5904 52.8042 13.6322 52.6881 13.6267 52.5694C13.613 52.2728 13.602 51.9778 13.5974 51.6861C13.5954 51.5783 13.5546 51.4749 13.4825 51.3947C13.4103 51.3146 13.3117 51.2627 13.2047 51.2493ZM62.8616 57.7726C62.8576 57.7722 62.8536 57.772 62.8496 57.7718C62.8109 57.7681 62.7719 57.7694 62.7336 57.7757L62.4261 57.8253L61.8504 57.9186C61.7921 57.9278 61.7362 57.9484 61.686 57.9793C61.6357 58.0101 61.592 58.0506 61.5574 58.0984C61.5228 58.1462 61.4979 58.2003 61.4843 58.2577C61.4707 58.3151 61.4685 58.3747 61.4779 58.4329C61.4873 58.491 61.5081 58.5468 61.5391 58.5969C61.5701 58.6469 61.6106 58.6905 61.6584 58.7249C61.7062 58.7593 61.7603 58.784 61.8176 58.7975C61.8749 58.811 61.9343 58.8131 61.9925 58.8036L62.57 58.7105C62.5706 58.7106 62.5712 58.7107 62.5718 58.7108L62.8782 58.6596C62.9363 58.6502 62.9921 58.6294 63.0422 58.5984C63.0924 58.5674 63.1359 58.5268 63.1703 58.479C63.2048 58.4312 63.2294 58.377 63.2429 58.3196C63.2564 58.2622 63.2584 58.2028 63.2489 58.1446C63.2332 58.049 63.187 57.9611 63.1171 57.8941C63.0473 57.827 62.9577 57.7844 62.8616 57.7726ZM58.4255 58.4708C58.3869 58.4666 58.348 58.4674 58.3097 58.4731L57.4345 58.6081L57.4253 58.6104C57.3079 58.6281 57.2023 58.6915 57.1317 58.7869C57.061 58.8822 57.0311 59.0017 57.0483 59.1191C57.057 59.1774 57.0771 59.2334 57.1075 59.284C57.1379 59.3345 57.1779 59.3785 57.2253 59.4136C57.2728 59.4486 57.3266 59.4739 57.3839 59.4881C57.4411 59.5023 57.5005 59.5051 57.5588 59.4963L57.5678 59.4956C57.5685 59.495 57.5692 59.4945 57.5699 59.494L58.447 59.3593C58.5642 59.3409 58.6693 59.2768 58.7393 59.181C58.8093 59.0852 58.8385 58.9656 58.8204 58.8484C58.8056 58.7506 58.7588 58.6604 58.6873 58.592C58.6159 58.5236 58.5238 58.4814 58.4255 58.4708ZM53.9952 59.1342C53.9569 59.1296 53.9183 59.1298 53.8801 59.135L53.0162 59.262L52.9948 59.2644C52.9364 59.2727 52.8802 59.2924 52.8295 59.3225C52.7787 59.3525 52.7344 59.3923 52.699 59.4395C52.6637 59.4867 52.638 59.5404 52.6234 59.5976C52.6089 59.6547 52.6057 59.7142 52.6142 59.7726C52.6312 59.89 52.694 59.996 52.7889 60.0672C52.8838 60.1384 53.0031 60.1691 53.1206 60.1525L53.144 60.1485C53.1447 60.1486 53.1453 60.1487 53.1459 60.1488L54.0099 60.0218C54.0681 60.0132 54.1241 59.9933 54.1747 59.9632C54.2253 59.933 54.2694 59.8932 54.3046 59.846C54.3397 59.7988 54.3653 59.7451 54.3797 59.688C54.3941 59.631 54.3971 59.5716 54.3886 59.5134C54.3742 59.4155 54.3278 59.3252 54.2566 59.2564C54.1855 59.1877 54.0936 59.1445 53.9953 59.1334L53.9952 59.1342ZM49.5604 59.7668C49.522 59.762 49.4832 59.7623 49.4449 59.7676L48.5566 59.8915C48.4982 59.8996 48.4421 59.9192 48.3913 59.9491C48.3405 59.979 48.2961 60.0186 48.2607 60.0656C48.2252 60.1127 48.1994 60.1663 48.1847 60.2233C48.1699 60.2804 48.1666 60.3397 48.1748 60.3981C48.1913 60.5158 48.2539 60.6222 48.3488 60.6938C48.4437 60.7654 48.5632 60.7963 48.681 60.7798L49.5693 60.6555C49.6276 60.6473 49.6837 60.6277 49.7345 60.5979C49.7852 60.568 49.8296 60.5284 49.865 60.4814C49.9005 60.4344 49.9263 60.3809 49.9411 60.3239C49.9558 60.2669 49.9592 60.2076 49.9511 60.1493C49.9373 60.0513 49.8916 59.9606 49.8209 59.8914C49.7502 59.8221 49.6586 59.7785 49.5604 59.7668ZM13.5512 55.7153C13.5122 55.7104 13.4727 55.7107 13.4338 55.7161C13.3755 55.7243 13.3194 55.7438 13.2687 55.7737C13.2179 55.8036 13.1736 55.8431 13.1381 55.8901C13.1027 55.9371 13.0768 55.9906 13.0621 56.0476C13.0473 56.1046 13.0439 56.164 13.0521 56.2223L13.1034 56.5997C13.1036 56.6018 13.1037 56.6039 13.1039 56.606L13.183 57.114C13.1918 57.1722 13.212 57.2281 13.2425 57.2785C13.273 57.3289 13.313 57.3727 13.3605 57.4076C13.4079 57.4425 13.4617 57.4677 13.5189 57.4818C13.576 57.4959 13.6354 57.4986 13.6936 57.4897C13.8111 57.4718 13.9166 57.4079 13.987 57.3121C14.0574 57.2163 14.0869 57.0965 14.0689 56.979L13.9916 56.4727L13.9402 56.099C13.9269 56.001 13.8815 55.9101 13.8112 55.8405C13.7408 55.7709 13.6494 55.7266 13.5512 55.7145L13.5512 55.7153ZM45.1215 60.3735C45.0832 60.3685 45.0444 60.3684 45.0061 60.3733L44.1171 60.492C44.0587 60.4998 44.0024 60.519 43.9515 60.5485C43.9005 60.578 43.8559 60.6173 43.8201 60.6641C43.7843 60.7109 43.7581 60.7643 43.743 60.8212C43.7279 60.8781 43.7241 60.9375 43.7319 60.9959C43.7397 61.0542 43.7589 61.1105 43.7884 61.1615C43.8179 61.2125 43.8572 61.2571 43.904 61.2929C43.9508 61.3286 44.0042 61.3548 44.0611 61.37C44.118 61.3851 44.1774 61.3889 44.2358 61.381L45.1248 61.2624C45.1832 61.2546 45.2395 61.2354 45.2904 61.2059C45.3414 61.1763 45.386 61.1371 45.4218 61.0903C45.4576 61.0435 45.4838 60.9901 45.4989 60.9332C45.514 60.8762 45.5178 60.8169 45.51 60.7585C45.4968 60.6605 45.4515 60.5696 45.3812 60.4999C45.311 60.4303 45.2196 60.3858 45.1215 60.3735ZM40.6789 60.9537C40.6407 60.9486 40.6019 60.9485 40.5636 60.9534L39.6736 61.065C39.6151 61.0723 39.5587 61.0912 39.5075 61.1204C39.4563 61.1496 39.4114 61.1886 39.3753 61.2352C39.3392 61.2817 39.3126 61.335 39.2971 61.3918C39.2816 61.4487 39.2775 61.5081 39.285 61.5665C39.2923 61.625 39.3112 61.6815 39.3404 61.7327C39.3696 61.784 39.4087 61.8289 39.4553 61.865C39.502 61.9011 39.5553 61.9277 39.6122 61.9431C39.6691 61.9586 39.7285 61.9627 39.787 61.9552L40.6754 61.8416C40.7932 61.8266 40.9002 61.7656 40.973 61.6718C41.0459 61.578 41.0785 61.4592 41.0638 61.3414C41.0514 61.2434 41.0069 61.1522 40.9373 61.0821C40.8677 61.012 40.7768 60.9669 40.6789 60.9537ZM36.2073 61.5021C36.1775 61.4994 36.1476 61.4996 36.118 61.5029L35.3581 61.5941L35.2286 61.6092C35.1701 61.6161 35.1135 61.6344 35.0621 61.6631C35.0106 61.6918 34.9653 61.7303 34.9288 61.7766C34.8923 61.8228 34.8652 61.8757 34.8492 61.9324C34.8332 61.9891 34.8284 62.0484 34.8353 62.1069C34.8422 62.1654 34.8604 62.222 34.8892 62.2735C34.9179 62.3249 34.9564 62.3702 35.0027 62.4067C35.0489 62.4432 35.1019 62.4703 35.1585 62.4863C35.2152 62.5024 35.2745 62.5071 35.333 62.5002L35.4644 62.4847L36.2242 62.3939C36.2828 62.3869 36.3394 62.3684 36.3908 62.3395C36.4422 62.3105 36.4874 62.2717 36.5238 62.2253C36.5601 62.1789 36.587 62.1257 36.6028 62.0689C36.6186 62.0121 36.6231 61.9527 36.6159 61.8941C36.6038 61.7965 36.5599 61.7055 36.4909 61.6352C36.422 61.5649 36.3318 61.5193 36.2344 61.5054C36.2254 61.5041 36.2163 61.5029 36.2073 61.5021ZM31.7571 62.0173C31.7279 62.0147 31.6984 62.015 31.6692 62.0181L30.9339 62.0998L30.7791 62.1156C30.661 62.1282 30.5527 62.1874 30.4781 62.2799C30.4034 62.3724 30.3686 62.4907 30.3813 62.6089C30.3875 62.6675 30.4052 62.7242 30.4334 62.7759C30.4615 62.8276 30.4996 62.8733 30.5454 62.9103C30.5912 62.9472 30.6439 62.9748 30.7004 62.9915C30.7568 63.0081 30.816 63.0135 30.8746 63.0072L31.0314 62.9898C31.0319 62.9899 31.0324 62.99 31.0329 62.99L31.7669 62.908C31.8848 62.8949 31.9928 62.8357 32.0671 62.7431C32.1414 62.6506 32.176 62.5324 32.1633 62.4144C32.1524 62.3162 32.1094 62.2243 32.0409 62.153C31.9723 62.0817 31.8821 62.0351 31.7844 62.0204C31.7754 62.0191 31.7662 62.0181 31.7571 62.0173ZM14.5433 60.0843C14.469 60.0729 14.3931 60.0804 14.3224 60.106C14.267 60.1259 14.216 60.1565 14.1725 60.1961C14.1289 60.2357 14.0935 60.2835 14.0684 60.3368C14.0433 60.3901 14.029 60.4478 14.0262 60.5066C14.0234 60.5654 14.0322 60.6242 14.0521 60.6796C14.157 60.9707 14.2735 61.2611 14.4093 61.5477C14.4346 61.6009 14.4701 61.6486 14.5138 61.6881C14.5575 61.7276 14.6085 61.758 14.664 61.7778C14.7194 61.7975 14.7782 61.8061 14.837 61.8032C14.8959 61.8002 14.9535 61.7856 15.0067 61.7604C15.0599 61.7353 15.1077 61.6999 15.1473 61.6563C15.1869 61.6128 15.2175 61.5618 15.2374 61.5064C15.2574 61.451 15.2662 61.3923 15.2633 61.3335C15.2605 61.2746 15.2462 61.217 15.2211 61.1637C15.1009 60.9102 14.994 60.6451 14.8964 60.374C14.8689 60.2985 14.8216 60.2318 14.7595 60.1808C14.6974 60.1298 14.6227 60.0966 14.5433 60.0843ZM27.3041 62.4859C27.2749 62.4829 27.2455 62.4827 27.2163 62.4854L26.8733 62.5196L26.3244 62.5718C26.2064 62.5834 26.0978 62.6411 26.0224 62.7325C25.9469 62.8239 25.9107 62.9414 25.9217 63.0595C25.9327 63.1777 25.9903 63.2867 26.0817 63.3625C26.173 63.4384 26.2908 63.4749 26.409 63.464L26.9598 63.412C26.9604 63.4121 26.9611 63.4121 26.9617 63.4122L27.3029 63.3779C27.3614 63.3722 27.4184 63.3551 27.4703 63.3274C27.5223 63.2997 27.5683 63.2621 27.6057 63.2166C27.6431 63.1712 27.6712 63.1188 27.6884 63.0625C27.7056 63.0062 27.7115 62.9471 27.7058 62.8885C27.6962 62.7899 27.6542 62.6973 27.5865 62.6252C27.5187 62.553 27.429 62.5052 27.3312 62.4894C27.3222 62.4881 27.3131 62.4867 27.3041 62.4859ZM22.8358 62.8759C22.8315 62.8756 22.8271 62.8754 22.8228 62.8752C22.8021 62.874 22.7813 62.8743 22.7606 62.876L22.5029 62.8964L21.8679 62.9392C21.8091 62.9433 21.7518 62.959 21.6991 62.9853C21.6464 63.0116 21.5994 63.048 21.5608 63.0925C21.5222 63.137 21.4928 63.1886 21.4741 63.2445C21.4555 63.3004 21.4481 63.3594 21.4522 63.4181C21.4564 63.4769 21.4721 63.5342 21.4984 63.5869C21.5247 63.6396 21.5611 63.6866 21.6056 63.7252C21.6501 63.7638 21.7017 63.7932 21.7576 63.8118C21.8135 63.8305 21.8724 63.8379 21.9312 63.8337L22.5658 63.7908C22.5671 63.7906 22.5684 63.7903 22.5697 63.79L22.8275 63.7714C22.8863 63.7671 22.9437 63.7512 22.9963 63.7247C23.049 63.6982 23.0958 63.6615 23.1343 63.6168C23.1728 63.5721 23.202 63.5203 23.2204 63.4643C23.2388 63.4083 23.246 63.3492 23.2415 63.2904C23.2339 63.1845 23.189 63.0847 23.1146 63.0088C23.0403 62.933 22.9415 62.8857 22.8358 62.8759ZM18.3816 63.0866C18.3611 63.0838 18.3406 63.0825 18.32 63.0826C18.0261 63.081 17.736 63.0736 17.4531 63.0532C17.3943 63.0491 17.3353 63.0566 17.2795 63.0752C17.2236 63.0939 17.172 63.1235 17.1275 63.1621C17.0831 63.2008 17.0467 63.2478 17.0204 63.3006C16.9941 63.3533 16.9785 63.4107 16.9745 63.4695C16.9662 63.5877 17.0051 63.7044 17.0827 63.7941C17.1603 63.8837 17.2702 63.939 17.3884 63.9478C17.7017 63.9704 18.0116 63.9778 18.3153 63.9792C18.3742 63.9795 18.4326 63.9682 18.4872 63.9459C18.5417 63.9237 18.5914 63.8909 18.6332 63.8494C18.6751 63.8079 18.7083 63.7586 18.7311 63.7043C18.7539 63.6499 18.7658 63.5917 18.766 63.5327C18.7666 63.4245 18.728 63.3197 18.6573 63.2377C18.5867 63.1557 18.4887 63.102 18.3816 63.0866Z" fill="var(--fill-0, white)"/>
<path id="path10726" d="M73.3328 23.9847C73.3328 23.9847 73.7101 39.0101 73.3968 45.2508C73.0835 51.4916 75.1239 44.0218 75.5712 37.6774C76.0186 31.3329 73.717 19.0816 73.3328 23.9847Z" fill="var(--fill-0, #0058A2)"/>
<path id="path14453" opacity="0.1" d="M15.8902 43.4145C15.8322 43.6311 15.6853 43.8401 15.458 44.0297C15.2306 44.2192 14.9272 44.3855 14.565 44.5191C14.2029 44.6527 13.7891 44.751 13.3473 44.8083C12.9055 44.8657 12.4443 44.881 11.9901 44.8533C11.536 44.8257 11.0976 44.7557 10.7002 44.6472C10.3027 44.5388 9.95398 44.3941 9.67381 44.2214C9.39363 44.0487 9.18753 43.8514 9.06728 43.6407C8.94702 43.4301 8.91496 43.2102 8.97292 42.9936C9.09 42.5562 9.56666 42.1588 10.2981 41.889C11.0294 41.6192 11.9557 41.499 12.8729 41.5548C13.7902 41.6106 14.6234 41.8379 15.1893 42.1867C15.7551 42.5355 16.0072 42.9771 15.8902 43.4145Z" fill="var(--fill-0, white)"/>
<path id="path14447" d="M51.737 42.6428C51.737 42.6428 59.5478 41.9361 64.0111 41.4154C68.4744 40.8947 68.6975 41.1179 69.4414 45.2092C70.1853 49.3006 69.066 51.2063 65.9452 52.1273C62.192 53.235 53.0016 54.7681 51.5882 52.834C50.1749 50.8999 49.1334 42.7916 51.737 42.6428Z" fill="var(--fill-0, white)"/>
<path id="path14449" d="M53.4108 45.2836C53.4108 45.2836 68.0653 43.0519 66.5775 44.1306C65.0898 45.2092 55.4565 46.2878 53.5968 46.4366C51.7371 46.5854 52.0718 45.6555 53.4108 45.2836Z" fill="var(--fill-0, #0080ED)"/>
<path id="path14451" d="M54.3409 49.3749C54.3409 49.3749 61.5193 48.1103 60.0316 49.1889C58.5438 50.2675 56.3865 50.3791 54.5268 50.5279C52.6671 50.6767 53.0019 49.7468 54.3409 49.3749Z" fill="var(--fill-0, #0080ED)"/>
</g>
</svg>
