<svg width="98" height="98" viewBox="0 0 98 98" fill="none" xmlns="http://www.w3.org/2000/svg">
<g clip-path="url(#clip0_3185_3205)">
<g clip-path="url(#clip1_3185_3205)">
<path d="M86.3257 85.6531C86.552 86.9757 85.6761 88.2279 84.3696 88.452L28.7595 97.966C27.4528 98.1888 26.2102 97.2988 25.9836 95.9769L11.6762 12.3471C11.4501 11.0253 12.3264 9.77177 13.6327 9.54821L69.2425 0.0343617C70.5499 -0.189201 71.7923 0.701604 72.0183 2.02346L86.3257 85.6531Z" fill="#0080ED"/>
<path d="M14.7285 14.9239L27.8077 90.3676L83.8966 80.0587L70.5826 6.11328L14.7285 14.9239Z" fill="white"/>
<path opacity="0.5" d="M37.1504 7.40535L45.2117 5.68652L45.3234 8.6583L37.5426 9.81994L37.1504 7.40535Z" fill="white"/>
<path opacity="0.5" d="M36.7933 93.5635L35.8984 90.6411L46.9935 88.6128V91.4161L36.7933 93.5635Z" fill="white"/>
<path opacity="0.5" d="M66.7776 87.6837L65.8828 84.7608L76.9779 82.7324V85.5356L66.7776 87.6837Z" fill="white"/>
<path opacity="0.5" d="M53.05 90.3676L52.1992 87.027L60.6104 85.2075L61.0743 88.6976L53.05 90.3676Z" fill="white"/>
<path d="M27.3691 96.9501L12.6074 10.9984L13.246 10.8896L27.8968 96.1942L85.53 85.6091L85.6469 86.2459L27.3691 96.9501Z" fill="#06006B"/>
<g opacity="0.1">
<path d="M54.6011 52.7056C56.5243 52.1903 57.9925 51.4335 57.8805 51.0152C57.7684 50.5969 56.1185 50.6756 54.1952 51.1909C52.272 51.7063 50.8037 52.4631 50.9158 52.8814C51.0279 53.2997 52.6778 53.221 54.6011 52.7056Z" fill="white"/>
</g>
<path d="M49.9442 53.6806C47.9679 54.2101 45.9291 53.0332 45.3995 51.0567C44.8699 49.0802 46.0471 47.0416 48.0233 46.512C49.0511 46.2366 50.1108 45.6905 51.1016 46.2883C52.0134 46.8384 52.6505 48.2809 53.1066 50.8265C53.4855 52.9403 51.8008 53.143 49.9442 53.6806ZM48.1685 47.0538C46.4909 47.5033 45.4917 49.234 45.9412 50.9116C46.3907 52.5892 48.1214 53.5884 49.799 53.1389C51.5079 52.6619 52.8493 52.5699 52.5548 50.9256C52.1349 48.5829 51.5647 47.2228 50.8118 46.7685C50.0565 46.3132 49.0858 46.808 48.1685 47.0538Z" fill="#FCBE00"/>
<path d="M46.682 43.9829L43.714 43.9038C43.5986 43.9007 43.4966 43.8271 43.4576 43.7185L37.1255 26.2014C37.1106 26.1606 37.1055 26.116 37.1108 26.0726L37.8085 20.3344C37.8437 20.0447 38.2484 19.995 38.3501 20.2712L46.9525 43.6053C47.0204 43.7896 46.882 43.9879 46.682 43.9829ZM43.9201 43.3485L46.283 43.4111L38.2252 21.5539L37.6756 26.0738L43.9201 43.3485Z" fill="#FCBE00"/>
<path d="M46.6899 43.7028L52.0551 41.7596L48.8795 20.8308L38.4495 19.8957C38.1918 19.8725 37.9979 20.1257 38.0874 20.3684L46.6899 43.7028Z" fill="#FFE045"/>
<path opacity="0.1" d="M46.4269 43.7995L37.8244 20.4649C37.771 20.3195 37.8452 20.1585 37.9907 20.1047C38.1371 20.0533 38.2972 20.1258 38.3508 20.2711L46.8568 43.3435L51.9598 41.4953C52.1076 41.4416 52.266 41.5176 52.319 41.6633C52.3719 41.809 52.2965 41.9699 52.151 42.0225L46.7856 43.9659C46.6282 44.0195 46.4773 43.9358 46.4269 43.7995Z" fill="white"/>
<path d="M51.8083 53.0824C53.8189 52.5437 55.012 50.477 54.4733 48.4664C53.9346 46.4558 51.8679 45.2626 49.8573 45.8014C47.8467 46.3401 46.6535 48.4068 47.1923 50.4174C47.731 52.428 49.7977 53.6212 51.8083 53.0824Z" fill="#FFE045"/>
<path opacity="0.1" d="M54.6764 49.6602C54.5 49.7075 54.326 49.5763 54.3232 49.3936C54.2913 47.121 52.1204 45.4862 49.9317 46.0727C49.7819 46.1128 49.6283 46.0241 49.5882 45.8744C49.5481 45.7247 49.6368 45.5711 49.7865 45.5309C51.9432 44.9531 54.1678 46.2372 54.7457 48.3942C54.8328 48.719 54.8793 49.0524 54.884 49.3851C54.8858 49.5168 54.7976 49.6277 54.6764 49.6602Z" fill="white"/>
<path d="M43.6162 30.1445C43.5483 30.1628 43.476 30.1271 43.4497 30.0605L40.2384 21.8808C40.2103 21.8086 40.2458 21.7274 40.3179 21.699C40.3829 21.6731 40.4708 21.7059 40.4996 21.7784L43.7108 29.9576C43.7389 30.03 43.7035 30.1115 43.6313 30.1394C43.6264 30.1413 43.6215 30.1431 43.6162 30.1445Z" fill="white"/>
<path d="M41.6705 23.4258L41.1632 22.3061C41.1313 22.2355 41.1623 22.1524 41.2328 22.1204C41.3042 22.0883 41.3868 22.1194 41.4185 22.19L41.9258 23.3098C41.9578 23.3806 41.9265 23.4638 41.856 23.4958C41.7796 23.5284 41.7006 23.4924 41.6705 23.4258Z" fill="white"/>
<path d="M53.3098 49.1168C53.1154 47.9894 51.9855 47.0725 50.8425 47.1145C50.6597 47.1207 50.6438 46.8447 50.832 46.8339C52.13 46.7866 53.3654 47.7892 53.5861 49.0688C53.6181 49.253 53.3413 49.3004 53.3098 49.1168Z" fill="white"/>
<path d="M51.983 48.5546C51.916 48.3701 51.6798 48.2633 51.4933 48.3246C51.4205 48.3515 51.3399 48.313 51.314 48.2405C51.2876 48.1676 51.3253 48.0872 51.3982 48.0609C51.7272 47.9364 52.1261 48.1267 52.2466 48.459C52.3099 48.6343 52.0467 48.7302 51.983 48.5546Z" fill="white"/>
<path d="M30.0508 71.5633L76.846 62.8174L78.5426 72.0851L32.0089 81.3528L30.0508 71.5633Z" fill="#FF5151"/>
<path d="M36.7605 65.3984C36.7804 65.8574 37.0298 66.6805 36.4713 66.9008C35.7652 67.1657 34.8476 67.4248 34.1256 67.6059L34.3008 68.8682C33.8973 68.9609 33.4846 68.9787 33.0871 69.1025C32.852 67.6691 32.531 66.264 32.2422 64.8407C33.5667 64.557 35.0333 63.8674 36.3888 64.2898C36.604 64.5543 36.6805 65.0763 36.7605 65.3984ZM35.066 65.656C35.0199 64.7329 34.0018 65.247 33.4532 65.3952C33.5725 65.817 33.6127 66.2402 33.7227 66.6651C34.2497 66.5268 35.3441 66.4653 35.066 65.656Z" fill="#0058A2"/>
<path d="M41.866 67.5922L40.975 67.8929C40.7752 67.5059 40.5714 67.1273 40.378 66.7376L38.9056 67.0547L38.8615 67.8891L37.9338 68.0543C37.8027 66.6696 37.6919 65.3085 37.5605 63.926C38.4582 63.5866 39.3929 63.4014 40.3417 63.2764C40.8393 64.7205 41.2945 66.1752 41.866 67.5922ZM40.0216 65.9559C39.7935 65.4373 39.8599 64.807 39.1056 65.0848C38.7327 65.1699 38.954 65.8935 38.8707 66.1913L40.0216 65.9559Z" fill="#0058A2"/>
<path d="M46.8316 65.6352C46.8559 67.2273 43.6901 67.0761 42.5489 67.3782C42.4881 66.9661 42.4036 66.5628 42.2963 66.1677C43.265 65.9644 44.3099 65.9725 45.2366 65.645C45.3714 64.9224 44.5191 65.2771 44.1022 65.2936C42.7593 65.5925 41.8141 65.4597 41.8164 63.8505C42.0352 62.174 44.3948 62.255 45.6933 62.2021C45.7575 62.6709 45.8382 63.1398 45.9839 63.5918C44.9779 63.7981 43.9954 63.9621 42.9949 64.2228C42.7084 65.5397 46.3914 63.341 46.8316 65.6352Z" fill="#0058A2"/>
<path d="M51.984 64.7199C52.0087 66.3105 48.8419 66.1615 47.7013 66.4621C47.6404 66.0505 47.556 65.6467 47.4486 65.2516C48.4175 65.0497 49.4614 65.0562 50.389 64.7294C50.5237 64.0069 49.6716 64.3608 49.2545 64.378C47.9109 64.6757 46.967 64.5453 46.9688 62.935C47.1875 61.2577 49.547 61.3393 50.8461 61.2866C50.9096 61.7556 50.9908 62.2239 51.1362 62.6762C50.13 62.8814 49.1481 63.047 48.1474 63.3067C47.8594 64.6251 51.5445 62.4247 51.984 64.7199Z" fill="#0058A2"/>
<path d="M57.18 60.3594C57.2786 61.9027 57.275 63.3091 57.2015 64.8555C56.9021 64.9181 56.6047 64.9792 56.2975 64.9782C55.9453 64.4794 55.5527 64.0215 55.2101 63.512C55.0635 64.18 54.7285 64.7872 54.5204 65.4372L53.5345 65.5873C52.8483 64.052 52.2297 62.5071 51.5117 60.9872L53.2591 60.6769C53.5257 61.6211 53.787 62.5515 54.075 63.4896C54.1529 62.5205 54.3294 61.5683 54.4391 60.6034L54.734 60.5515C55.1722 61.4791 55.6687 62.3439 56.2192 63.2086C56.2685 62.2981 56.2351 61.3882 56.2435 60.4763L57.18 60.3594Z" fill="#0058A2"/>
<path d="M63.112 61.1827C63.3993 63.1523 63.637 63.9093 61.3191 64.1367C59.5222 64.4102 58.7747 64.8478 58.2321 62.7274C58.0459 61.9279 57.9211 60.8971 58.2332 60.1292C58.6369 59.8678 59.2555 59.7677 59.7293 59.6304C60.605 59.4132 61.5463 59.2978 62.4338 59.4633C62.9816 59.7401 62.9223 60.6575 63.112 61.1827ZM62.0694 61.5734C61.9861 60.478 60.2537 61.2329 59.6054 61.4168C59.1566 61.6314 59.5048 62.7107 59.6688 63.0681C60.4015 63.1959 61.2366 62.9881 61.9345 62.7193C62.3797 62.5584 62.0702 61.911 62.0694 61.5734Z" fill="#0058A2"/>
<path d="M68.1763 59.8114C68.3026 60.4719 67.9093 60.9491 67.2725 61.0896C67.7875 61.6816 68.2557 62.2987 68.676 62.9413L66.9249 63.2958C66.7415 62.6509 66.542 62.1835 66.1962 61.6112C65.9376 61.6707 65.6807 61.7496 65.4242 61.8099L65.6968 63.1717C65.2474 63.2741 64.7932 63.367 64.334 63.4022C64.2144 61.994 63.9648 60.6117 63.7695 59.2136C65.1635 58.9945 67.6903 57.7364 68.1763 59.8114ZM66.7614 59.9634C66.7446 58.9841 65.6601 59.5235 65.0887 59.6759L65.4587 60.8153C66.0023 60.7981 67.0707 60.7606 66.7614 59.9634Z" fill="#0058A2"/>
<path d="M73.233 59.8069C73.3578 60.3809 73.4484 61.1592 72.7823 61.4319C71.8074 61.8638 70.6565 62.2896 69.6641 62.6652C69.2679 61.2149 68.8789 59.8148 68.5547 58.3449C69.817 58.2182 71.1674 57.866 72.4353 58.0465C73.0696 58.3631 73.1004 59.1992 73.233 59.8069ZM71.7466 60.1518C71.6055 58.878 70.7836 59.1427 69.8346 59.3232C70.0107 59.9401 70.1673 60.5226 70.3198 61.1446C70.7804 60.9697 71.8764 60.8386 71.7466 60.1518Z" fill="#0058A2"/>
<path d="M40.7138 75.308C40.218 75.3574 39.7313 75.3872 39.2555 75.3966C38.7787 75.4062 38.2925 75.4213 37.7971 75.4403C38.2246 75.722 38.6257 76.0208 39.0003 76.3374C39.3745 76.6526 39.756 76.9673 40.1449 77.2781L38.3507 78.386C38.2437 78.1814 38.1269 77.9391 38.0012 77.6573C37.8749 77.3744 37.7529 77.102 37.6365 76.84C37.4999 76.5385 37.364 76.2271 37.2285 75.9069C37.0043 76.1601 36.7758 76.412 36.5429 76.6647C36.3482 76.8894 36.139 77.1325 35.9152 77.3939C35.6924 77.6573 35.4974 77.9149 35.3326 78.167L33.9614 76.84C34.4087 76.6071 34.8194 76.3879 35.1936 76.1829C35.568 75.9796 35.9445 75.7124 36.3239 75.3815C35.9152 75.08 35.4974 74.799 35.0694 74.5357C34.642 74.2736 34.2094 74.0152 33.7715 73.762L35.1131 72.5669C35.3958 72.9175 35.6896 73.2747 35.9956 73.6393C36.3021 74.0039 36.6493 74.3123 37.0382 74.5655C37.1354 74.2838 37.2183 74.0357 37.2865 73.8217C37.3542 73.6077 37.4105 73.3989 37.4539 73.1951C37.4976 72.9899 37.5391 72.7786 37.5784 72.56C37.6165 72.3416 37.6656 72.0908 37.724 71.8091C38.045 71.8966 38.3608 71.9921 38.6724 72.0933C38.9829 72.1959 39.2989 72.2757 39.6199 72.3339C39.4348 72.5575 39.2698 72.7619 39.124 72.9468C38.9783 73.1317 38.8401 73.3114 38.7082 73.4862C38.5775 73.6609 38.4456 73.8456 38.3149 74.0407C38.1836 74.2357 38.0398 74.4534 37.8844 74.6964L40.4079 73.6759L40.7138 75.308Z" fill="#FAE2B3"/>
<path d="M49.3952 73.8417C48.9001 73.8911 48.4137 73.9209 47.9371 73.9303C47.4607 73.9404 46.9741 73.9544 46.4786 73.9734C46.9066 74.2557 47.3074 74.5545 47.6822 74.8705C48.0564 75.1865 48.438 75.5004 48.8271 75.8113L47.0333 76.9197C46.9259 76.7153 46.8095 76.4722 46.6828 76.191C46.5565 75.9081 46.435 75.6357 46.3182 75.3737C46.1821 75.0722 46.0462 74.7608 45.9101 74.4406C45.6864 74.6932 45.458 74.9465 45.2245 75.1984C45.0302 75.4225 44.8216 75.6656 44.5974 75.9276C44.3739 76.191 44.1787 76.4481 44.0144 76.7005L42.6434 75.3737C43.0903 75.1408 43.5009 74.9216 43.876 74.7172C44.2497 74.5126 44.6265 74.2455 45.0055 73.9163C44.5975 73.6137 44.1787 73.3325 43.7516 73.0694C43.324 72.8073 42.8911 72.5489 42.4531 72.2957L43.7953 71.1006C44.0772 71.4512 44.371 71.8076 44.6778 72.173C44.9837 72.5371 45.3319 72.8454 45.7204 73.0986C45.8177 72.8175 45.9 72.5688 45.9685 72.3554C46.0366 72.1414 46.0923 71.9326 46.136 71.7287C46.18 71.5236 46.2208 71.3121 46.2604 71.0937C46.2985 70.8753 46.3477 70.6245 46.4057 70.3428C46.7267 70.4295 47.0423 70.5252 47.3541 70.627C47.6649 70.729 47.9811 70.8087 48.3012 70.8676C48.1168 71.091 47.9517 71.2956 47.806 71.4797C47.6601 71.6652 47.5218 71.8451 47.3901 72.0197C47.2586 72.1944 47.128 72.3793 46.9963 72.573C46.8652 72.7692 46.7215 72.9865 46.5664 73.2296L49.0894 72.209L49.3952 73.8417Z" fill="#FAE2B3"/>
<path d="M58.8577 71.8841C58.362 71.9335 57.8753 71.9626 57.3994 71.9722C56.9224 71.9829 56.4368 71.9963 55.9407 72.0158C56.3681 72.2976 56.7693 72.5969 57.1439 72.9124C57.5185 73.229 57.8996 73.5423 58.2889 73.8531L56.4948 74.9623C56.3882 74.7579 56.2711 74.5141 56.1449 74.2331C56.0184 73.9502 55.8971 73.6784 55.7803 73.4163C55.6442 73.1143 55.5081 72.8029 55.372 72.4827C55.1485 72.7353 54.9201 72.9886 54.687 73.2404C54.4923 73.4652 54.2828 73.7077 54.059 73.9697C53.8362 74.2331 53.6415 74.4901 53.4756 74.7426L52.1053 73.4163C52.5526 73.1821 52.9634 72.9644 53.338 72.7592C53.7122 72.5554 54.0889 72.2882 54.468 71.9576C54.059 71.6564 53.6415 71.3746 53.2136 71.1112C52.786 70.8492 52.3532 70.5914 51.916 70.3381L53.2576 69.1428C53.5397 69.4923 53.8337 69.8501 54.1398 70.2153C54.4462 70.5787 54.7934 70.8877 55.1822 71.1409C55.2796 70.8586 55.3627 70.6103 55.4306 70.3963C55.498 70.1837 55.5546 69.9741 55.5981 69.7695C55.6417 69.5651 55.6829 69.3541 55.7221 69.1352C55.7608 68.9162 55.8102 68.6668 55.868 68.3843C56.1886 68.4723 56.5046 68.5667 56.816 68.6693C57.1269 68.7705 57.4429 68.8504 57.7641 68.9091C57.5788 69.1327 57.4136 69.3371 57.2677 69.5212C57.1221 69.7073 56.9835 69.8859 56.852 70.0606C56.7213 70.2354 56.5894 70.4214 56.4585 70.6151C56.3272 70.8102 56.1834 71.028 56.028 71.2716L58.5505 70.2505L58.8577 71.8841Z" fill="#FAE2B3"/>
<path d="M67.6036 70.2524C67.1073 70.3018 66.6211 70.3309 66.1449 70.3405C65.6675 70.3506 65.1819 70.3652 64.6862 70.3849C65.1138 70.6666 65.5152 70.9654 65.889 71.2814C66.2638 71.5973 66.6452 71.9113 67.0342 72.2216L65.2403 73.3308C65.1329 73.1264 65.0162 72.8833 64.8904 72.6016C64.7639 72.3192 64.6416 72.0471 64.5248 71.785C64.3893 71.4836 64.2536 71.1721 64.1168 70.8519C63.893 71.1046 63.665 71.357 63.4317 71.6097C63.2367 71.8344 63.0279 72.0763 62.8041 72.3384C62.5809 72.6017 62.3859 72.86 62.2207 73.112L60.85 71.7852C61.2973 71.5523 61.7079 71.3331 62.0827 71.1281C62.4561 70.9243 62.8336 70.6578 63.2127 70.3267C62.8041 70.0252 62.3859 69.7435 61.9587 69.4809C61.5311 69.2188 61.0987 68.9604 60.6602 68.7072L62.0019 67.5119C62.2842 67.862 62.5782 68.2197 62.8847 68.5843C63.1907 68.9476 63.5383 69.2573 63.9275 69.5105C64.0247 69.2275 64.1076 68.9807 64.1755 68.7665C64.2437 68.5526 64.2994 68.3437 64.343 68.1385C64.3866 67.9347 64.4278 67.7232 64.4674 67.5048C64.5053 67.2864 64.5541 67.0357 64.6131 66.7539C64.9335 66.8414 65.2493 66.9356 65.5607 67.0381C65.8716 67.1394 66.1878 67.2204 66.5088 67.2787C66.3237 67.5023 66.1587 67.7067 66.0128 67.8916C65.8672 68.0759 65.7286 68.2563 65.5973 68.431C65.4666 68.6058 65.3349 68.7907 65.2032 68.9849C65.0728 69.1792 64.9283 69.3984 64.7737 69.6415L67.2962 68.6209L67.6036 70.2524Z" fill="#FAE2B3"/>
<path d="M76.4163 68.2296C75.921 68.2784 75.4348 68.3087 74.9584 68.3177C74.4818 68.3278 73.9954 68.3418 73.5001 68.3607C73.9275 68.6431 74.3285 68.9426 74.7031 69.2584C75.0774 69.5737 75.4593 69.8878 75.8482 70.1986L74.0538 71.3071C73.9468 71.1032 73.8303 70.8601 73.7037 70.5778C73.5772 70.2961 73.4562 70.0233 73.3395 69.7613C73.2036 69.4598 73.0669 69.1484 72.9312 68.828C72.7075 69.0806 72.4795 69.3331 72.2458 69.5863C72.0511 69.8105 71.8425 70.053 71.6187 70.315C71.395 70.5776 71.2003 70.8354 71.0353 71.0879L69.6647 69.7611C70.1112 69.5281 70.5222 69.309 70.8966 69.104C71.2708 68.9007 71.6476 68.6337 72.0266 68.3026C71.6185 68.0011 71.2001 67.7195 70.7727 67.4567C70.3447 67.1947 69.9118 66.9363 69.4746 66.6836L70.8166 65.4877C71.0985 65.8378 71.3923 66.1956 71.6987 66.5602C72.0052 66.9242 72.353 67.2332 72.7415 67.4856C72.839 67.2039 72.9213 66.9558 72.99 66.7424C73.0574 66.5284 73.114 66.3196 73.1575 66.1155C73.2015 65.9104 73.2421 65.699 73.2815 65.4805C73.3201 65.2621 73.369 65.0113 73.4271 64.729C73.7478 64.8171 74.0638 64.912 74.3756 65.014C74.6864 65.1166 75.0026 65.1957 75.3226 65.2546C75.1381 65.4774 74.9729 65.682 74.8273 65.8675C74.6816 66.0524 74.543 66.2315 74.4117 66.4069C74.2806 66.5816 74.1493 66.7665 74.0176 66.9608C73.8865 67.1551 73.7432 67.3742 73.5877 67.6173L76.1103 66.5967L76.4163 68.2296Z" fill="#FAE2B3"/>
</g>
</g>
<defs>
<clipPath id="clip0_3185_3205">
<rect width="98" height="98" fill="white"/>
</clipPath>
<clipPath id="clip1_3185_3205">
<rect width="98" height="98" fill="white"/>
</clipPath>
</defs>
</svg>
