<svg preserveAspectRatio="none" width="100%" height="100%" overflow="visible" style="display: block;" viewBox="0 0 90.5338 90.4845" fill="none" xmlns="http://www.w3.org/2000/svg">
<g id="FLAT">
<path id="Vector" d="M44.4062 6.26514L0 29.2339L21.4375 40.3222L65.8438 17.3535L44.4062 6.26514Z" fill="var(--fill-0, #0080ED)"/>
<path id="Vector_2" d="M44.4062 6.26514V15.231C44.4063 17.9548 45.1552 20.6261 46.5713 22.9528C47.9874 25.2796 50.016 27.1721 52.4353 28.4235C58.5506 31.5865 65.8438 27.1479 65.8438 20.263V17.3535L44.4062 6.26514Z" fill="var(--fill-0, #4161E0)"/>
<path id="Vector_3" opacity="0.7" d="M21.4375 40.3218L65.8438 17.353L88.8125 29.2334L44.4062 52.2022L21.4375 40.3218Z" fill="var(--fill-0, #0080ED)"/>
<path id="Vector_4" d="M83.8042 16.0591L72.4596 11.437L65.8945 15.3763L71.1992 30.765L85.7476 23.4646L83.8042 16.0591Z" fill="var(--fill-0, #4161E0)"/>
<path id="Vector_5" d="M65.8945 15.3762L85.7476 23.4646L83.8042 16.0591L72.4596 11.437L65.8945 15.3762Z" fill="var(--fill-0, #0080ED)"/>
<path id="Vector_6" d="M78.1359 13.7476L71.5708 17.6867L71.2031 30.7645L80.0792 21.1531L78.1359 13.7476Z" fill="var(--fill-0, #4DA7F3)"/>
<path id="Vector_7" d="M78.1355 13.7476L80.0787 21.1531L71.5703 17.6867L78.1355 13.7476Z" fill="var(--fill-0, #4DA7F3)"/>
<path id="Vector_8" d="M68.7148 38.4214C72.0976 38.4214 74.8398 35.6791 74.8398 32.2964C74.8398 28.9136 72.0976 26.1714 68.7148 26.1714C65.3321 26.1714 62.5898 28.9136 62.5898 32.2964C62.5898 35.6791 65.3321 38.4214 68.7148 38.4214Z" fill="var(--fill-0, #F2C34E)"/>
<path id="Vector_9" d="M61.25 32.2964C64.6327 32.2964 67.375 29.5541 67.375 26.1714C67.375 22.7886 64.6327 20.0464 61.25 20.0464C57.8673 20.0464 55.125 22.7886 55.125 26.1714C55.125 29.5541 57.8673 32.2964 61.25 32.2964Z" fill="var(--fill-0, #E2AC40)"/>
<path id="Vector_10" d="M39.8125 39.9526C43.1952 39.9526 45.9375 37.2104 45.9375 33.8276C45.9375 30.4449 43.1952 27.7026 39.8125 27.7026C36.4298 27.7026 33.6875 30.4449 33.6875 33.8276C33.6875 37.2104 36.4298 39.9526 39.8125 39.9526Z" fill="var(--fill-0, #E2AC40)"/>
<path id="Vector_11" d="M47.4688 49.1401C50.8515 49.1401 53.5938 46.3979 53.5938 43.0151C53.5938 39.6324 50.8515 36.8901 47.4688 36.8901C44.086 36.8901 41.3438 39.6324 41.3438 43.0151C41.3438 46.3979 44.086 49.1401 47.4688 49.1401Z" fill="var(--fill-0, #F2C34E)"/>
<path id="Vector_12" d="M35.2188 46.0776C38.6015 46.0776 41.3438 43.3354 41.3438 39.9526C41.3438 36.5699 38.6015 33.8276 35.2188 33.8276C31.836 33.8276 29.0938 36.5699 29.0938 39.9526C29.0938 43.3354 31.836 46.0776 35.2188 46.0776Z" fill="var(--fill-0, #F2C34E)"/>
<path id="Vector_13" d="M50.5312 36.8901C53.914 36.8901 56.6562 34.1479 56.6562 30.7651C56.6562 27.3824 53.914 24.6401 50.5312 24.6401C47.1485 24.6401 44.4062 27.3824 44.4062 30.7651C44.4062 34.1479 47.1485 36.8901 50.5312 36.8901Z" fill="var(--fill-0, #F2C34E)"/>
<path id="Vector_14" d="M58.1875 44.5464C61.5702 44.5464 64.3125 41.8041 64.3125 38.4214C64.3125 35.0386 61.5702 32.2964 58.1875 32.2964C54.8048 32.2964 52.0625 35.0386 52.0625 38.4214C52.0625 41.8041 54.8048 44.5464 58.1875 44.5464Z" fill="var(--fill-0, #E2AC40)"/>
<path id="Vector_15" opacity="0.7" d="M44.4062 52.2026L21.4375 40.3223V73.701C21.4375 74.2631 21.5922 74.8143 21.8846 75.2943C22.177 75.7744 22.5959 76.1646 23.0954 76.4224L43.0003 86.696C43.4349 86.9203 43.917 87.0372 44.406 87.0369C44.8951 87.0366 45.377 86.9192 45.8114 86.6946L87.157 65.3089C87.6558 65.0509 88.0741 64.6607 88.3661 64.1809C88.6581 63.7012 88.8125 63.1504 88.8125 62.5888V29.2339L44.4062 52.2026Z" fill="var(--fill-0, #4DA7F3)"/>
<path id="Vector_16" d="M50.5312 56.5851V76.4913L82.6875 59.8589V39.9526L50.5312 56.5851Z" fill="var(--fill-0, #5A8FE3)"/>
<path id="Vector_17" d="M0 29.2339V38.1998C2.64432e-07 40.9235 0.748989 43.5949 2.16505 45.9216C3.58112 48.2483 5.60973 50.1408 8.02902 51.3922C14.1443 54.5553 21.4375 50.1166 21.4375 43.2317V40.3222L0 29.2339Z" fill="var(--fill-0, #4161E0)"/>
<path id="Vector_18" d="M61.25 43.4901V55.7401L73.5 49.4038V37.1538L61.25 43.4901Z" fill="var(--fill-0, #0080ED)"/>
<path id="Vector_19" d="M65.457 46.5835L68.5188 45.0009L69.2217 46.3606L66.1599 47.9432L65.457 46.5835Z" fill="var(--fill-0, #5A8FE3)"/>
<g id="Group">
<path id="Vector_20" d="M62.168 3.66162L63.3931 2.74275L67.9869 8.86775L66.7617 9.78662L62.168 3.66162Z" fill="var(--fill-0, #DFDFDF)"/>
<path id="Vector_21" d="M71.25 0.300293L72.7522 0.000168184L74.2825 7.65966L72.7803 7.95979L71.25 0.300293Z" fill="var(--fill-0, #DFDFDF)"/>
<path id="Vector_22" d="M77.5469 7.26905L83.671 1.14495L84.7536 2.22754L78.6295 8.35164L77.5469 7.26905Z" fill="var(--fill-0, #DFDFDF)"/>
<path id="Vector_23" d="M82.5742 10.1284L90.2337 8.59808L90.5338 10.1001L82.8743 11.6304L82.5742 10.1284Z" fill="var(--fill-0, #DFDFDF)"/>
</g>
<path id="Vector_24" d="M29.0938 6.26514L28.0317 8.38927C26.7208 11.0111 24.7484 13.2454 22.3094 14.8714L21.4375 15.4526L22.3094 16.0339C24.7484 17.6599 26.7208 19.8942 28.0317 22.516L29.0938 24.6401L30.1558 22.516C31.4667 19.8942 33.4391 17.6599 35.8781 16.0339L36.75 15.4526L35.8781 14.8714C33.4391 13.2454 31.4667 11.0111 30.1558 8.38927L29.0938 6.26514Z" fill="var(--fill-0, #FFD892)"/>
<path id="Vector_25" d="M6.125 58.3276C5.13256 61.3049 3.17604 63.8665 0.564771 65.6074L0 65.9839L0.564769 66.3604C3.17604 68.1013 5.13256 70.6628 6.125 73.6401C7.11744 70.6628 9.07396 68.1013 11.6852 66.3604L12.25 65.9839L11.6852 65.6074C9.07396 63.8665 7.11744 61.3049 6.125 58.3276Z" fill="var(--fill-0, #FFD892)"/>
<path id="Vector_26" d="M21.4375 73.7005C21.4375 74.2626 21.5922 74.8138 21.8846 75.2938C22.177 75.7739 22.5959 76.1641 23.0954 76.4219L43.0003 86.6955C43.435 86.9199 43.9171 87.0367 44.4062 87.0364V52.2021L21.4375 40.3218V73.7005Z" fill="var(--fill-0, #0080ED)"/>
<path id="Vector_27" d="M25.5552 72.4785L16.6893 71.4214L9.1875 81.1056L12.4269 89.4258L21.2928 90.483L28.7946 80.7988L25.5552 72.4785Z" fill="var(--fill-0, #4DA7F3)"/>
<path id="Vector_28" d="M9.1875 81.1056L18.9911 80.9523L16.6893 71.4214L9.1875 81.1056Z" fill="var(--fill-0, #0080ED)"/>
<path id="Vector_29" d="M28.7956 80.8003L18.9922 80.9538L21.2938 90.4845L28.7956 80.8003Z" fill="var(--fill-0, #0080ED)"/>
<path id="Vector_30" d="M18.9911 80.9526L12.4269 89.4262L9.1875 81.106L18.9911 80.9526Z" fill="var(--fill-0, #5A8FE3)"/>
<path id="Vector_31" d="M18.9922 80.9518L25.5563 72.478L28.7956 80.7983L18.9922 80.9518Z" fill="var(--fill-0, #5A8FE3)"/>
<path id="Vector_32" d="M38.2812 66.2215C38.1588 66.2215 38.0382 66.1921 37.9295 66.1359L27.2107 60.5916C27.086 60.5271 26.9814 60.4296 26.9085 60.3096C26.8355 60.1897 26.7969 60.052 26.7969 59.9116V52.2026H28.3281V59.4456L37.5156 64.1979V57.743H39.0469V65.4558C39.0469 65.5564 39.0271 65.6559 38.9886 65.7488C38.9501 65.8417 38.8937 65.9261 38.8226 65.9972C38.7515 66.0683 38.6671 66.1247 38.5742 66.1632C38.4814 66.2017 38.3818 66.2215 38.2812 66.2215Z" fill="var(--fill-0, #4161E0)"/>
</g>
</svg>
