<svg width="22" height="23" viewBox="0 0 22 23" fill="none" xmlns="http://www.w3.org/2000/svg">
<path fill-rule="evenodd" clip-rule="evenodd" d="M18.8928 18.1317H19.115C19.4832 18.1317 19.7816 18.4303 19.7817 18.7984C19.7817 19.1666 19.4832 19.4651 19.115 19.4651H2.67057C2.30239 19.4651 2.00391 19.1666 2.00391 18.7984C2.004 18.4303 2.30244 18.1317 2.67057 18.1317H2.8928V10.5762H18.8928V18.1317ZM8.00391 12.3539C7.63577 12.3539 7.33733 12.6525 7.33724 13.0206V18.1317H8.67057V13.0206C8.67048 12.6525 8.37204 12.3539 8.00391 12.3539ZM13.7817 12.3539C13.4135 12.3539 13.1151 12.6525 13.115 13.0206V18.1317H14.4483V13.0206C14.4483 12.6525 14.1499 12.3539 13.7817 12.3539Z" fill="white"/>
<path fill-rule="evenodd" clip-rule="evenodd" d="M10.622 2.61214C10.7943 2.53554 10.9913 2.53554 11.1636 2.61214L19.3859 6.26579C19.6265 6.37279 19.7816 6.61181 19.7817 6.87516V8.57569C19.7813 8.94355 19.483 9.24235 19.115 9.24235H2.67057C2.30248 9.24235 2.00405 8.94289 2.00391 8.57482V6.87516C2.00398 6.61181 2.1591 6.37279 2.39974 6.26579L10.622 2.61214ZM10.8928 5.6868C10.4019 5.6868 10.0039 6.08476 10.0039 6.57569C10.0043 7.06628 10.4021 7.46458 10.8928 7.46458C11.3835 7.46458 11.7813 7.06628 11.7817 6.57569C11.7817 6.08476 11.3837 5.6868 10.8928 5.6868Z" fill="white"/>
</svg>
