<svg width="22" height="23" viewBox="0 0 22 23" fill="none" xmlns="http://www.w3.org/2000/svg">
<path d="M14.9453 4.09073C14.9453 3.58865 15.3524 3.18164 15.8544 3.18164H18.2817C18.7838 3.18164 19.1908 3.58865 19.1908 4.09073V18.6362C19.1908 19.1383 18.7838 19.5453 18.2817 19.5453H15.8544C15.3524 19.5453 14.9453 19.1383 14.9453 18.6362V4.09073Z" fill="white"/>
<path d="M9.79188 8.18164C9.28979 8.18164 8.88281 8.58865 8.88281 9.09073V18.6362C8.88281 19.1383 9.28979 19.5453 9.79188 19.5453H12.2192C12.7213 19.5453 13.1283 19.1383 13.1283 18.6362V9.09073C13.1283 8.58865 12.7213 8.18164 12.2192 8.18164H9.79188Z" fill="white"/>
<path d="M3.7294 13.1816C3.22733 13.1816 2.82031 13.5886 2.82031 14.0907V18.6362C2.82031 19.1383 3.22733 19.5453 3.7294 19.5453H6.15667C6.65875 19.5453 7.06576 19.1383 7.06576 18.6362V14.0907C7.06576 13.5886 6.65875 13.1816 6.15667 13.1816H3.7294Z" fill="white"/>
</svg>
