<svg width="22" height="23" viewBox="0 0 22 23" fill="none" xmlns="http://www.w3.org/2000/svg">
<path d="M9.8468 13.8067C10.6607 14.0217 12.4394 14.4915 12.7223 13.3552C13.012 12.1933 11.2869 11.8062 10.4452 11.6173C10.3511 11.5962 10.2681 11.5775 10.2001 11.5605L9.65234 13.7563C9.70816 13.7701 9.77362 13.7875 9.8468 13.8067Z" fill="white"/>
<path d="M10.6166 10.5987C11.2952 10.7798 12.7753 11.1748 13.0332 10.142C13.2964 9.08555 11.8579 8.7671 11.1553 8.61157C11.0763 8.59407 11.0065 8.57864 10.9496 8.56445L10.4531 10.5559C10.5 10.5676 10.555 10.5823 10.6166 10.5987Z" fill="white"/>
<path fill-rule="evenodd" clip-rule="evenodd" d="M8.80028 20.2729C13.671 21.4874 18.6036 18.5236 19.8178 13.6534C21.032 8.78299 18.0684 3.84952 13.198 2.63532C8.32868 1.42113 3.39607 4.38531 2.18245 9.25599C0.967679 14.1258 3.93158 19.0587 8.80028 20.2729ZM13.0035 7.86544C14.2629 8.29924 15.1839 8.94952 15.0029 10.1592C14.872 11.0446 14.3811 11.4734 13.7294 11.6236C14.6243 12.0896 15.0796 12.804 14.6458 14.0426C14.1074 15.581 12.8285 15.7108 11.1277 15.3889L10.7149 17.0432L9.71742 16.7946L10.1248 15.1626C9.86634 15.0983 9.60216 15.0301 9.32997 14.9563L8.92116 16.596L7.92486 16.3475L8.33764 14.6901C8.24452 14.6663 8.1508 14.6418 8.05643 14.6172C7.91472 14.5803 7.7715 14.5429 7.62656 14.5066L6.32858 14.183L6.82374 13.0413C6.82374 13.0413 7.55867 13.2367 7.54873 13.2222C7.83111 13.2921 7.95639 13.108 8.00582 12.9853L8.65809 10.3703C8.68258 10.3761 8.70657 10.3822 8.72971 10.3879C8.74118 10.3908 8.75247 10.3936 8.76349 10.3964C8.72372 10.3805 8.68763 10.3703 8.65978 10.3632L9.12513 8.4964C9.13735 8.28447 9.06434 8.01714 8.66037 7.9163C8.67598 7.90578 7.93594 7.73618 7.93594 7.73618L8.20126 6.67085L9.57679 7.01432L9.5757 7.01942C9.78252 7.07085 9.99561 7.11972 10.2126 7.16914L10.6214 5.53109L11.6183 5.77967L11.2177 7.38562C11.4854 7.4467 11.7546 7.50834 12.0169 7.57369L12.4146 5.97824L13.412 6.22682L13.0035 7.86544Z" fill="white"/>
</svg>
