<svg width="22" height="23" viewBox="0 0 22 23" fill="none" xmlns="http://www.w3.org/2000/svg">
<path d="M18.3257 4.87018C17.8054 3.76278 16.7554 3 15.5492 3H4.13277C2.41404 3 1.00781 4.54617 1.00781 6.43594V16.5641C1.00781 18.4538 2.41404 20 4.13277 20H15.5492C15.9801 20 16.391 19.9028 16.7657 19.7272C18.1826 19.1785 19.3529 17.8488 19.6191 16.2988L20.9522 8.55317C21.2813 6.6366 20.1169 5.04919 18.3257 4.87018ZM15.5492 18.2817H4.13277C3.27122 18.2817 2.57029 17.511 2.57029 16.5637V6.43594C2.57029 5.48865 3.27122 4.71797 4.13277 4.71797H15.5492C16.4107 4.71797 17.1116 5.48865 17.1116 6.43594V16.5641C17.1116 17.511 16.4107 18.2817 15.5492 18.2817ZM5.15494 11.863H8.12365C8.63927 11.863 9.06113 11.3988 9.06113 10.8322V7.56843C9.06113 7.0015 8.63927 6.53764 8.12365 6.53764H5.15494C4.63932 6.53764 4.21745 7.0015 4.21745 7.56843V10.8322C4.21745 11.3988 4.63964 11.863 5.15494 11.863ZM14.6692 6.57029H10.6967C10.353 6.57029 10.0717 6.87918 10.0717 7.25747V7.59694C10.0717 7.97524 10.353 8.28413 10.6967 8.28413H14.6692C15.0129 8.28413 15.2942 7.97524 15.2942 7.59694V7.25747C15.2942 6.87952 15.0126 6.57029 14.6692 6.57029ZM14.6692 10.1815H10.6967C10.353 10.1815 10.0717 10.4907 10.0717 10.8686V11.2085C10.0717 11.5864 10.353 11.8956 10.6967 11.8956H14.6692C15.0129 11.8956 15.2942 11.5864 15.2942 11.2085V10.8686C15.2942 10.4907 15.0126 10.1815 14.6692 10.1815ZM14.6692 14.3565H4.81432C4.47058 14.3565 4.18933 14.6657 4.18933 15.0437V15.3852C4.18933 15.7631 4.47058 16.0724 4.81432 16.0724H14.6692C15.0129 16.0724 15.2942 15.7631 15.2942 15.3852V15.0437C15.2942 14.666 15.0126 14.3565 14.6692 14.3565Z" fill="white"/>
</svg>
