<svg width="22" height="22" viewBox="0 0 22 22" fill="none" xmlns="http://www.w3.org/2000/svg">
<path fill-rule="evenodd" clip-rule="evenodd" d="M14.0198 4.03985L11.2846 6.02708C11.051 6.19684 10.7346 6.19684 10.501 6.02708L7.76576 4.03985C6.83253 4.46473 6.00035 5.07429 5.31625 5.82216L6.36031 9.03542C6.44956 9.31009 6.35178 9.61098 6.11813 9.78076L3.38413 11.7672C3.4999 12.8059 3.82619 13.7807 4.3195 14.6484H7.69971C7.98853 14.6484 8.24449 14.8344 8.33375 15.109L9.37839 18.324C9.86719 18.4234 10.3736 18.4757 10.8928 18.4757C11.412 18.4757 11.9184 18.4234 12.4072 18.324L13.4518 15.109C13.5411 14.8344 13.7971 14.6484 14.0859 14.6484H17.4661C17.9594 13.7807 18.2857 12.8059 18.4015 11.7672L15.6675 9.78076C15.4338 9.61098 15.336 9.31009 15.4252 9.03542L16.4693 5.82216C15.7852 5.07429 14.9531 4.46473 14.0198 4.03985ZM7.60536 2.65913C8.62313 2.2538 9.73279 2.03125 10.8928 2.03125C12.0528 2.03125 13.1625 2.2538 14.1803 2.65913C15.5728 3.21377 16.7913 4.1097 17.7329 5.243C19.012 6.78257 19.7817 8.76234 19.7817 10.9201C19.7817 11.112 19.7756 11.3026 19.7636 11.4916C19.6664 13.0223 19.1815 14.4485 18.4062 15.6719C17.209 17.5613 15.3179 18.9689 13.0887 19.5355C12.3857 19.7143 11.6499 19.809 10.8928 19.809C10.1357 19.809 9.39991 19.7143 8.69687 19.5355C6.46766 18.9689 4.57658 17.5613 3.37934 15.6719C2.60412 14.4485 2.11924 13.0223 2.022 11.4916C2.01 11.3025 2.00391 11.112 2.00391 10.9201C2.00391 8.76234 2.77361 6.78257 4.05275 5.243C4.99433 4.1097 6.21276 3.21377 7.60536 2.65913ZM10.501 7.49191C10.7346 7.32214 11.051 7.32214 11.2846 7.49191L14.0322 9.48805C14.2658 9.65783 14.3636 9.95872 14.2743 10.2335L13.2249 13.4633C13.1356 13.738 12.8796 13.924 12.5908 13.924H9.19475C8.90593 13.924 8.64996 13.738 8.56071 13.4633L7.51126 10.2335C7.42201 9.95872 7.51978 9.65783 7.75344 9.48805L10.501 7.49191Z" fill="white"/>
</svg>
