<svg xmlns="http://www.w3.org/2000/svg" width="19" height="19" viewBox="0 0 19 19" fill="none">
  <path fill-rule="evenodd" clip-rule="evenodd" d="M6.89012 17.9096C11.7608 19.1241 16.6934 16.1603 17.9076 11.2901C19.1218 6.41971 16.1582 1.48624 11.2878 0.27204C6.41852 -0.94215 1.48591 2.02203 0.272289 6.89271C-0.942477 11.7625 2.02142 16.6954 6.89012 17.9096ZM11.0933 5.50216C12.3527 5.93596 13.2737 6.58624 13.0927 7.79592C12.9618 8.68132 12.4709 9.11012 11.8192 9.26032C12.7141 9.72632 13.1694 10.4407 12.7356 11.6793C12.1972 13.2177 10.9183 13.3475 9.21752 13.0256L8.80472 14.6799L7.80727 14.4313L8.21462 12.7993C7.95618 12.735 7.692 12.6668 7.41981 12.593L7.011 14.2327L6.0147 13.9842L6.42748 12.3268C6.33436 12.303 6.24064 12.2785 6.14627 12.2539C6.00456 12.217 5.86135 12.1796 5.71641 12.1433L4.41842 11.8197L4.91358 10.678C4.91358 10.678 5.64851 10.8734 5.63857 10.8589C5.92095 10.9288 6.04623 10.7447 6.09566 10.622L6.74793 8.00702C6.77242 8.01282 6.79642 8.01892 6.81956 8.02462C6.83103 8.02752 6.84231 8.03032 6.85333 8.03312C6.81356 8.01722 6.77748 8.00702 6.74963 7.99992L7.21497 6.13312C7.22719 5.92119 7.15418 5.65386 6.75021 5.55302C6.76582 5.5425 6.02578 5.3729 6.02578 5.3729L6.29111 4.30757L7.66663 4.65104L7.66554 4.65614C7.87236 4.70757 8.08545 4.75644 8.30242 4.80586L8.71122 3.16781L9.70812 3.41639L9.30752 5.02234C9.57522 5.08342 9.84442 5.14506 10.1067 5.21041L10.5044 3.61496L11.5018 3.86354L11.0933 5.50216Z" fill="white"/>
</svg>

