<svg width="22" height="23" viewBox="0 0 22 23" fill="none" xmlns="http://www.w3.org/2000/svg">
<path fill-rule="evenodd" clip-rule="evenodd" d="M3.15512 3.38601C3.36697 3.21337 3.64526 3.14519 3.91293 3.20037C8.73724 4.19476 13.2671 4.19476 18.0914 3.20037C18.3591 3.14519 18.6374 3.21337 18.8492 3.38601C19.0611 3.55865 19.184 3.81745 19.184 4.09074V12.2725C19.184 16.7913 15.5209 20.4544 11.0022 20.4544C6.48344 20.4544 2.82031 16.7913 2.82031 12.2725V4.09074C2.82031 3.81745 2.94325 3.55865 3.15512 3.38601ZM7.55556 13.6992C7.31052 13.3377 7.72646 12.9396 8.13056 13.1051C10.045 13.889 11.9594 13.889 13.8737 13.1051C14.2778 12.9396 14.6938 13.3377 14.4487 13.6992C12.6053 16.4182 9.39904 16.4182 7.55556 13.6992ZM10.0931 10.096C10.0931 10.5835 9.83258 10.4815 9.43231 10.3245C9.17074 10.222 8.84943 10.096 8.50213 10.096C8.15483 10.096 7.83352 10.222 7.57191 10.3245C7.17169 10.4815 6.91122 10.5835 6.91122 10.096C6.91122 9.28978 7.62349 8.63618 8.50213 8.63618C9.38076 8.63618 10.0931 9.28978 10.0931 10.096ZM14.4324 10.3245C14.8326 10.4815 15.0931 10.5835 15.0931 10.096C15.0931 9.28978 14.3808 8.63618 13.5022 8.63618C12.6235 8.63618 11.9113 9.28978 11.9113 10.096C11.9113 10.5835 12.1717 10.4815 12.572 10.3245C12.8335 10.222 13.1549 10.096 13.5022 10.096C13.8494 10.096 14.1708 10.222 14.4324 10.3245Z" fill="white"/>
</svg>
