<svg width="22" height="22" viewBox="0 0 22 22" fill="none" xmlns="http://www.w3.org/2000/svg">
<path d="M10.999 9.08984C9.99426 9.08984 9.17969 9.90437 9.17969 10.9092C9.17969 11.9139 9.99426 12.7285 10.999 12.7285C12.0038 12.7285 12.8183 11.9139 12.8183 10.9092C12.8183 9.90437 12.0038 9.08984 10.999 9.08984Z" fill="white"/>
<path fill-rule="evenodd" clip-rule="evenodd" d="M8.27379 2.72354C8.27379 2.22147 7.86678 1.81445 7.3647 1.81445C6.86263 1.81445 6.45561 2.22147 6.45561 2.72354V3.63619H4.63743C4.13536 3.63619 3.72834 4.04321 3.72834 4.54528V6.36346H2.81925C2.31718 6.36346 1.91016 6.77048 1.91016 7.27255C1.91016 7.77463 2.31718 8.18164 2.81925 8.18164H3.72834V9.99983H2.81925C2.31718 9.99983 1.91016 10.4068 1.91016 10.9089C1.91016 11.411 2.31718 11.818 2.81925 11.818H3.72834V13.6362H2.81925C2.31718 13.6362 1.91016 14.0432 1.91016 14.5453C1.91016 15.0474 2.31718 15.4544 2.81925 15.4544H3.72834V17.2726C3.72834 17.7746 4.13536 18.1816 4.63743 18.1816H6.45561V19.0907C6.45561 19.5928 6.86263 19.9998 7.3647 19.9998C7.86678 19.9998 8.27379 19.5928 8.27379 19.0907V18.1816H10.092V19.0907C10.092 19.5928 10.499 19.9998 11.0011 19.9998C11.5032 19.9998 11.9102 19.5928 11.9102 19.0907V18.1816H13.7284V19.0907C13.7284 19.5928 14.1354 19.9998 14.6374 19.9998C15.1395 19.9998 15.5465 19.5928 15.5465 19.0907V18.1816H17.3647C17.8668 18.1816 18.2738 17.7746 18.2738 17.2726V15.4544H19.1829C19.685 15.4544 20.092 15.0474 20.092 14.5453C20.092 14.0432 19.685 13.6362 19.1829 13.6362H18.2738V11.818H19.1829C19.685 11.818 20.092 11.411 20.092 10.9089C20.092 10.4068 19.685 9.99983 19.1829 9.99983H18.2738V8.18164H19.1829C19.685 8.18164 20.092 7.77463 20.092 7.27255C20.092 6.77048 19.685 6.36346 19.1829 6.36346H18.2738V4.54528C18.2738 4.04321 17.8668 3.63619 17.3647 3.63619H15.5465V2.7271C15.5465 2.22503 15.1395 1.81801 14.6374 1.81801C14.1354 1.81801 13.7284 2.22503 13.7284 2.7271V3.63619H11.9102V2.72354C11.9102 2.22147 11.5032 1.81445 11.0011 1.81445C10.499 1.81445 10.092 2.22147 10.092 2.72354V3.63619H8.27379V2.72354ZM7.36359 10.9092C7.36359 8.90023 8.99216 7.27166 11.0011 7.27166C13.0101 7.27166 14.6386 8.90023 14.6386 10.9092C14.6386 12.9181 13.0101 14.5466 11.0011 14.5466C8.99216 14.5466 7.36359 12.9181 7.36359 10.9092Z" fill="white"/>
</svg>
