<svg preserveAspectRatio="none" width="100%" height="100%" overflow="visible" style="display: block;" viewBox="0 0 12.8048 11.4669" fill="none" xmlns="http://www.w3.org/2000/svg">
<g id="Group">
<path id="Vector" d="M5.39143 11.4669C5.38964 11.4669 5.38755 11.4669 5.38576 11.4669C5.3117 11.4654 5.24183 11.4338 5.19166 11.3794L0.0716764 5.81211C-0.0161152 5.71655 -0.0241777 5.57262 0.0525654 5.46781C0.129308 5.36329 0.269058 5.32746 0.386711 5.3824L5.07282 7.5766C5.11223 7.59511 5.15882 7.58616 5.18897 7.5548L12.3371 0.0838492C12.4339 -0.01738 12.5921 -0.0284286 12.702 0.0587659C12.8119 0.14596 12.8373 0.302433 12.7606 0.419787L5.65003 11.3125C5.63988 11.3283 5.62793 11.3427 5.61479 11.3561L5.58344 11.3875C5.53238 11.4382 5.4631 11.4669 5.39143 11.4669Z" fill="var(--fill-0, #0080ED)"/>
</g>
</svg>
