<svg width="267" height="42" viewBox="0 0 267 42" fill="none" xmlns="http://www.w3.org/2000/svg">
<rect width="41.6675" height="41.6675" rx="6.12758" fill="#0080ED"/>
<path d="M24.8574 8.38348C24.8574 7.76692 25.3572 7.26709 25.9738 7.26709H31.0171V11.8365C31.0171 12.4531 30.5172 12.9529 29.9007 12.9529H24.8574V8.38348Z" fill="white"/>
<path d="M17.7559 8.38348C17.7559 7.76692 18.2557 7.26709 18.8723 7.26709H23.9155V11.8365C23.9155 12.4531 23.4157 12.9529 22.7991 12.9529H17.7559V8.38348Z" fill="white"/>
<path d="M24.8574 15.0163C24.8574 14.3997 25.3572 13.8999 25.9738 13.8999H31.0171V18.4693C31.0171 19.0859 30.5172 19.5857 29.9007 19.5857H24.8574V15.0163Z" fill="white"/>
<path d="M17.7559 21.6491C17.7559 21.0325 18.2557 20.5327 18.8723 20.5327H23.9155V25.1021C23.9155 25.7187 23.4157 26.2185 22.7991 26.2185H17.7559V21.6491Z" fill="white"/>
<path d="M10.6465 8.38348C10.6465 7.76692 11.1463 7.26709 11.7629 7.26709H16.8061V11.8365C16.8061 12.4531 16.3063 12.9529 15.6897 12.9529H10.6465V8.38348Z" fill="white"/>
<path d="M10.6465 15.0163C10.6465 14.3997 11.1463 13.8999 11.7629 13.8999H16.8061V18.4693C16.8061 19.0859 16.3063 19.5857 15.6897 19.5857H10.6465V15.0163Z" fill="white"/>
<path d="M10.6465 28.2819C10.6465 27.6654 11.1463 27.1655 11.7629 27.1655H16.8061V31.735C16.8061 32.3515 16.3063 32.8513 15.6897 32.8513H10.6465V28.2819Z" fill="white"/>
<path d="M10.6465 21.6491C10.6465 21.0325 11.1463 20.5327 11.7629 20.5327H16.8061V25.1021C16.8061 25.7187 16.3063 26.2185 15.6897 26.2185H10.6465V21.6491Z" fill="white"/>
<path d="M56.3738 14.7307V20.0739H62.2808C64.3642 20.0739 65.4916 19.5102 65.4916 17.4268C65.4916 15.2699 63.972 14.7307 62.5504 14.7307H56.3738ZM52.6973 29.4859V11.9855H63.4818C67.7711 11.9855 69.1682 14.6081 69.1682 17.4268C69.1682 20.0984 67.477 22.8191 63.5308 22.8191H56.3738V29.4859H52.6973Z" fill="black"/>
<path d="M71.3575 29.4859V16.4954H74.7399V19.02H74.7889C75.6958 17.5494 77.0929 16.1523 79.691 16.1523C80.2057 16.1523 80.5978 16.2013 81.039 16.2748V19.6082C80.1076 19.3141 79.4704 19.2896 78.8821 19.2896C77.1664 19.2896 74.7399 20.1965 74.7399 23.2113V29.4859H71.3575Z" fill="black"/>
<path d="M98.071 23.8485H85.8159C85.8894 25.2946 86.8698 27.5251 90.2277 27.5251C92.4582 27.5251 93.4386 26.7407 94.1003 25.6623H97.7769C97.0416 27.1084 95.2768 29.9761 90.3258 29.9761C84.4678 29.9761 82.2864 26.5692 82.2864 23.1132C82.2864 18.7749 85.4972 16.0052 90.1052 16.0052C95.8651 16.0052 98.071 19.5592 98.071 23.3583V23.8485ZM85.8159 21.6916H94.5415C94.1249 19.0935 91.8209 18.3092 90.1542 18.3092C88.5855 18.3092 86.3796 19.0445 85.8159 21.6916Z" fill="black"/>
<path d="M103.357 23.0397C103.357 25.2456 104.558 27.378 107.745 27.378C110.907 27.378 112.108 25.2456 112.108 23.0397C112.108 20.8828 110.907 18.7504 107.745 18.7504C104.558 18.7504 103.357 20.8828 103.357 23.0397ZM115.343 11.6914V29.4859H111.961V27.6966H111.911C111.666 28.481 109.632 29.9761 106.936 29.9761C101.985 29.9761 99.8279 26.3731 99.8279 23.0397C99.8279 19.7553 101.985 16.1523 106.936 16.1523C108.97 16.1523 110.907 16.7896 111.911 18.3582H111.961V11.6914H115.343Z" fill="black"/>
<path d="M118.178 29.4859V16.4954H121.561V29.4859H118.178ZM118.178 14.4366V11.6914H121.561V14.4366H118.178Z" fill="black"/>
<path d="M139.007 21.0543H135.478C135.233 19.7063 133.811 18.6033 131.875 18.6033C128.738 18.6033 127.365 20.7357 127.365 22.9907C127.365 25.2456 128.591 27.378 131.507 27.378C134.13 27.378 134.841 26.3486 135.551 24.5103H139.081C138.297 29.9026 132.782 29.9761 131.875 29.9761C126.066 29.9761 123.836 26.5692 123.836 22.9907C123.836 18.7994 126.85 16.0052 131.875 16.0052C133.836 16.0052 138.297 16.667 139.007 21.0543Z" fill="black"/>
<path d="M142.232 25.8584V18.9465H139.536V16.4954H142.232V12.4757H145.615V16.4954H149.144V18.9465H145.615V24.878C145.615 26.3731 145.688 27.1819 146.84 27.1819C147.674 27.1819 148.458 27.1574 149.267 27.1329V29.5839C148.36 29.7065 147.698 29.78 146.669 29.78C142.551 29.78 142.232 28.3094 142.232 25.8584Z" fill="black"/>
<path d="M151.576 29.4859V11.9855H156.87L162.998 25.5642L169.077 11.9855H174.322V29.4859H170.866L171.013 15.0248H170.964L164.493 29.4859H161.356L154.934 15.0248H154.885L155.032 29.4859H151.576Z" fill="black"/>
<path d="M191.435 20.3681V26.5201C191.435 27.2309 191.95 27.2555 192.171 27.2555C192.489 27.2555 193.004 27.2309 193.274 27.1819V29.5594C192.612 29.682 192.024 29.8535 190.872 29.8535C188.666 29.8535 188.421 28.677 188.323 28.1868C187.661 28.8241 186.019 29.9761 182.219 29.9761C178.837 29.9761 176.925 28.4565 176.925 25.9074C176.925 22.3289 180.602 22.0102 182.759 21.8142C187.612 21.3485 188.126 21.1769 188.126 20.172C188.126 18.6768 186.411 18.3092 184.45 18.3092C182.219 18.3092 181.018 19.02 180.896 20.4661H177.587C178.077 17.0592 180.602 16.0052 184.45 16.0052C191.239 16.0052 191.435 18.6768 191.435 20.3681ZM188.053 24.2652V23.0152C187.073 23.4318 186.019 23.5544 183.617 23.824C181.068 24.1181 180.455 24.6819 180.455 25.7848C180.455 27.5006 182.023 27.8192 183.175 27.8192C184.989 27.8192 188.053 27.1329 188.053 24.2652Z" fill="black"/>
<path d="M194.747 29.4859V16.4954H198.129V19.02H198.178C199.085 17.5494 200.482 16.1523 203.08 16.1523C203.595 16.1523 203.987 16.2013 204.428 16.2748V19.6082C203.497 19.3141 202.86 19.2896 202.271 19.2896C200.556 19.2896 198.129 20.1965 198.129 23.2113V29.4859H194.747Z" fill="black"/>
<path d="M206.092 29.4859V11.6914H209.475V21.6916L215.48 16.4954H220.259L214.254 21.3975L220.774 29.4859H216.215L211.607 23.5544L209.475 25.2946V29.4859H206.092Z" fill="black"/>
<path d="M236.899 23.8485H224.644C224.717 25.2946 225.698 27.5251 229.056 27.5251C231.286 27.5251 232.266 26.7407 232.928 25.6623H236.605C235.87 27.1084 234.105 29.9761 229.154 29.9761C223.296 29.9761 221.114 26.5692 221.114 23.1132C221.114 18.7749 224.325 16.0052 228.933 16.0052C234.693 16.0052 236.899 19.5592 236.899 23.3583V23.8485ZM224.644 21.6916H233.369C232.953 19.0935 230.649 18.3092 228.982 18.3092C227.413 18.3092 225.208 19.0445 224.644 21.6916Z" fill="black"/>
<path d="M240.273 25.8584V18.9465H237.577V16.4954H240.273V12.4757H243.656V16.4954H247.185V18.9465H243.656V24.878C243.656 26.3731 243.729 27.1819 244.881 27.1819C245.715 27.1819 246.499 27.1574 247.308 27.1329V29.5839C246.401 29.7065 245.739 29.78 244.71 29.78C240.592 29.78 240.273 28.3094 240.273 25.8584Z" fill="black"/>
<path d="M248.539 25.4172H252.216C252.314 27.378 254.569 27.6721 255.794 27.6721C257.485 27.6721 259.324 27.2309 259.324 26.0054C259.324 25.0005 258.76 24.6574 255.108 24.1672C251.088 23.6279 248.98 23.1622 248.98 20.1965C248.98 16.4954 253.294 16.0052 255.475 16.0052C257.485 16.0052 262.314 16.2993 262.51 20.4661H258.98C258.711 18.5298 256.456 18.3092 255.304 18.3092C253.392 18.3092 252.363 19.118 252.363 19.8043C252.363 20.8583 252.681 21.0298 255.941 21.4955C260.206 22.1083 263 22.525 263 25.5397C263 28.8486 259.838 29.9761 255.819 29.9761C253.049 29.9761 248.662 29.3878 248.539 25.4172Z" fill="black"/>
</svg>
