<svg width="47" height="47" viewBox="0 0 47 47" fill="none" xmlns="http://www.w3.org/2000/svg">
<rect x="0.5" y="0.5" width="46" height="46" rx="23" stroke="black"/>
<g clip-path="url(#clip0_1775_7583)">
<g clip-path="url(#clip1_1775_7583)">
<g clip-path="url(#clip2_1775_7583)">
<path d="M27.901 14.5234C29.2808 14.5234 30.6039 15.0715 31.5796 16.0472C32.5552 17.0228 33.1033 18.346 33.1033 19.7257V28.0494C33.1033 29.4292 32.5552 30.7524 31.5796 31.728C30.6039 32.7037 29.2808 33.2517 27.901 33.2517H19.5773C18.1976 33.2517 16.8743 32.7037 15.8987 31.728C14.9231 30.7524 14.375 29.4292 14.375 28.0494V19.7257C14.375 18.346 14.9231 17.0228 15.8987 16.0472C16.8743 15.0715 18.1976 14.5234 19.5773 14.5234H27.901ZM23.7392 19.7257C22.6354 19.7257 21.5768 20.1642 20.7963 20.9447C20.0158 21.7252 19.5773 22.7838 19.5773 23.8876C19.5773 24.9914 20.0158 26.0499 20.7963 26.8305C21.5768 27.6109 22.6354 28.0494 23.7392 28.0494C24.8429 28.0494 25.9015 27.6109 26.6821 26.8305C27.4625 26.0499 27.901 24.9914 27.901 23.8876C27.901 22.7838 27.4625 21.7252 26.6821 20.9447C25.9015 20.1642 24.8429 19.7257 23.7392 19.7257ZM23.7392 21.8067C24.291 21.8067 24.8204 22.0259 25.2106 22.4162C25.6008 22.8064 25.82 23.3357 25.82 23.8876C25.82 24.4395 25.6008 24.9688 25.2106 25.359C24.8204 25.7493 24.291 25.9685 23.7392 25.9685C23.1873 25.9685 22.658 25.7493 22.2677 25.359C21.8775 24.9688 21.6582 24.4395 21.6582 23.8876C21.6582 23.3357 21.8775 22.8064 22.2677 22.4162C22.658 22.0259 23.1873 21.8067 23.7392 21.8067ZM28.4212 18.1651C28.1452 18.1651 27.8807 18.2747 27.6855 18.4698C27.4903 18.6649 27.3808 18.9296 27.3808 19.2055C27.3808 19.4815 27.4903 19.7461 27.6855 19.9412C27.8807 20.1364 28.1452 20.246 28.4212 20.246C28.6972 20.246 28.9618 20.1364 29.1569 19.9412C29.3521 19.7461 29.4617 19.4815 29.4617 19.2055C29.4617 18.9296 29.3521 18.6649 29.1569 18.4698C28.9618 18.2747 28.6972 18.1651 28.4212 18.1651Z" fill="black"/>
</g>
</g>
</g>
<defs>
<clipPath id="clip0_1775_7583">
<rect width="18.7283" height="18.7283" fill="white" transform="translate(14.375 14.5234)"/>
</clipPath>
<clipPath id="clip1_1775_7583">
<rect width="18.7283" height="18.7283" fill="white" transform="translate(14.375 14.5234)"/>
</clipPath>
<clipPath id="clip2_1775_7583">
<rect width="18.7283" height="18.7283" fill="white" transform="translate(14.375 14.5234)"/>
</clipPath>
</defs>
</svg>
