<svg width="47" height="47" viewBox="0 0 47 47" fill="none" xmlns="http://www.w3.org/2000/svg">
<rect x="0.5" y="0.5" width="46" height="46" rx="23" stroke="black"/>
<g clip-path="url(#clip0_1775_7589)">
<g clip-path="url(#clip1_1775_7589)">
<g clip-path="url(#clip2_1775_7589)">
<path d="M23.9062 13.7832C18.162 13.7832 13.5 18.4452 13.5 24.1895C13.5 29.9337 18.162 34.5957 23.9062 34.5957C29.6505 34.5957 34.3125 29.9337 34.3125 24.1895C34.3125 18.4452 29.6505 13.7832 23.9062 13.7832ZM28.7348 20.8595C28.5787 22.5036 27.9023 26.4996 27.5588 28.3415C27.4132 29.122 27.1218 29.3822 26.8512 29.4134C26.2477 29.4654 25.7898 29.018 25.207 28.6329C24.2913 28.0294 23.771 27.6547 22.8864 27.072C21.8562 26.3956 22.5222 26.021 23.1154 25.4174C23.2715 25.2613 25.9355 22.8366 25.9875 22.6181C25.9947 22.585 25.9937 22.5506 25.9847 22.518C25.9757 22.4854 25.9587 22.4554 25.9355 22.4308C25.873 22.3788 25.7898 22.3996 25.7169 22.41C25.6233 22.4308 24.1664 23.3986 21.3255 25.3133C20.9093 25.5943 20.5346 25.74 20.2016 25.7296C19.827 25.7192 19.1194 25.5215 18.5887 25.3445C17.9331 25.1364 17.4232 25.022 17.4648 24.6577C17.4856 24.4704 17.7457 24.2831 18.2348 24.0854C21.2735 22.7638 23.2923 21.8897 24.3017 21.4734C27.1946 20.2663 27.7878 20.0582 28.1832 20.0582C28.2665 20.0582 28.4642 20.079 28.5891 20.183C28.6931 20.2663 28.7243 20.3808 28.7348 20.464C28.7243 20.5265 28.7452 20.7138 28.7348 20.8595Z" fill="black"/>
</g>
</g>
</g>
<defs>
<clipPath id="clip0_1775_7589">
<rect width="20.8125" height="20.8125" fill="white" transform="translate(13.5 13.7832)"/>
</clipPath>
<clipPath id="clip1_1775_7589">
<rect width="20.8125" height="20.8125" fill="white" transform="translate(13.5 13.7832)"/>
</clipPath>
<clipPath id="clip2_1775_7589">
<rect width="20.8125" height="20.8125" fill="white" transform="translate(13.5 13.7832)"/>
</clipPath>
</defs>
</svg>
