<svg width="47" height="47" viewBox="0 0 47 47" fill="none" xmlns="http://www.w3.org/2000/svg">
<rect x="0.5" y="0.5" width="46" height="46" rx="23" stroke="black"/>
<g clip-path="url(#clip0_1775_7595)">
<g clip-path="url(#clip1_1775_7595)">
<g clip-path="url(#clip2_1775_7595)">
<path d="M17.3167 14.2246C15.8493 14.2246 14.6562 15.4176 14.6562 16.885V30.1872C14.6562 31.6546 15.8493 32.8477 17.3167 32.8477H30.6188C32.0862 32.8477 33.2793 31.6546 33.2793 30.1872V16.885C33.2793 15.4176 32.0862 14.2246 30.6188 14.2246H17.3167ZM29.6669 17.7164L25.3521 22.6466L30.4276 29.3558H26.4536L23.3442 25.2862L19.7817 29.3558H17.8072L22.4214 24.0807L17.5536 17.7164H21.6274L24.4416 21.4369L27.6924 17.7164H29.6669ZM28.0956 28.1753L21.033 18.8346H19.8566L26.9982 28.1753H28.0914H28.0956Z" fill="black"/>
</g>
</g>
</g>
<defs>
<clipPath id="clip0_1775_7595">
<rect width="18.623" height="18.623" fill="white" transform="translate(14.6562 14.2246)"/>
</clipPath>
<clipPath id="clip1_1775_7595">
<rect width="18.623" height="18.623" fill="white" transform="translate(14.6562 14.2246)"/>
</clipPath>
<clipPath id="clip2_1775_7595">
<rect width="18.623" height="18.623" fill="white" transform="translate(14.6562 14.2246)"/>
</clipPath>
</defs>
</svg>
