<svg width="45" height="45" viewBox="0 0 45 45" fill="none" xmlns="http://www.w3.org/2000/svg">
<rect width="45" height="45" rx="7.2606" fill="#0080ED"/>
<path d="M27.2652 8.66462C27.2652 7.93405 27.8574 7.3418 28.588 7.3418H34.5638V12.7561C34.5638 13.4867 33.9715 14.079 33.241 14.079H27.2652V8.66462Z" fill="white"/>
<path d="M18.8511 8.66462C18.8511 7.93405 19.4434 7.3418 20.174 7.3418H26.1497V12.7561C26.1497 13.4867 25.5575 14.079 24.8269 14.079H18.8511V8.66462Z" fill="white"/>
<path d="M27.2652 16.5279C27.2652 15.7973 27.8574 15.2051 28.588 15.2051H34.5638V20.6194C34.5638 21.35 33.9715 21.9422 33.241 21.9422H27.2652V16.5279Z" fill="white"/>
<path d="M18.8511 24.3873C18.8511 23.6567 19.4434 23.0645 20.174 23.0645H26.1497V28.4788C26.1497 29.2094 25.5575 29.8016 24.8269 29.8016H18.8511V24.3873Z" fill="white"/>
<path d="M10.4293 8.66462C10.4293 7.93405 11.0215 7.3418 11.7521 7.3418H17.7278V12.7561C17.7278 13.4867 17.1356 14.079 16.405 14.079H10.4293V8.66462Z" fill="white"/>
<path d="M10.4293 16.5279C10.4293 15.7973 11.0215 15.2051 11.7521 15.2051H17.7278V20.6194C17.7278 21.35 17.1356 21.9422 16.405 21.9422H10.4293V16.5279Z" fill="white"/>
<path d="M10.4293 32.2427C10.4293 31.5122 11.0215 30.9199 11.7521 30.9199H17.7278V36.3343C17.7278 37.0648 17.1356 37.6571 16.405 37.6571H10.4293V32.2427Z" fill="white"/>
<path d="M10.4293 24.3873C10.4293 23.6567 11.0215 23.0645 11.7521 23.0645H17.7278V28.4788C17.7278 29.2094 17.1356 29.8016 16.405 29.8016H10.4293V24.3873Z" fill="white"/>
</svg>
