<svg width="38" height="38" viewBox="0 0 38 38" fill="none" xmlns="http://www.w3.org/2000/svg">
<rect width="37.073" height="37.073" rx="5.45191" fill="#2104FF"/>
<path d="M22.1211 8.14728C22.1211 7.5987 22.5658 7.15399 23.1144 7.15399H27.6015V11.2196C27.6015 11.7681 27.1568 12.2129 26.6082 12.2129H22.1211V8.14728Z" fill="white"/>
<path d="M15.7969 8.14728C15.7969 7.5987 16.2416 7.15399 16.7902 7.15399H21.2773V11.2196C21.2773 11.7681 20.8326 12.2129 20.284 12.2129H15.7969V8.14728Z" fill="white"/>
<path d="M22.1211 14.0493C22.1211 13.5007 22.5658 13.056 23.1144 13.056H27.6015V17.1216C27.6015 17.6702 27.1568 18.1149 26.6082 18.1149H22.1211V14.0493Z" fill="white"/>
<path d="M15.7969 19.9514C15.7969 19.4028 16.2416 18.9581 16.7902 18.9581H21.2773V23.0236C21.2773 23.5722 20.8326 24.0169 20.284 24.0169H15.7969V19.9514Z" fill="white"/>
<path d="M9.47266 8.14728C9.47266 7.5987 9.91737 7.15399 10.4659 7.15399H14.9531V11.2196C14.9531 11.7681 14.5084 12.2129 13.9598 12.2129H9.47266V8.14728Z" fill="white"/>
<path d="M9.47266 14.0493C9.47266 13.5007 9.91737 13.056 10.4659 13.056H14.9531V17.1216C14.9531 17.6702 14.5084 18.1149 13.9598 18.1149H9.47266V14.0493Z" fill="white"/>
<path d="M9.47266 25.8533C9.47266 25.3048 9.91737 24.86 10.4659 24.86H14.9531V28.9256C14.9531 29.4742 14.5084 29.9189 13.9598 29.9189H9.47266V25.8533Z" fill="white"/>
<path d="M9.47266 19.9514C9.47266 19.4028 9.91737 18.9581 10.4659 18.9581H14.9531V23.0236C14.9531 23.5722 14.5084 24.0169 13.9598 24.0169H9.47266V19.9514Z" fill="white"/>
</svg>
