<svg width="21" height="21" viewBox="0 0 21 21" fill="none" xmlns="http://www.w3.org/2000/svg">
<g clip-path="url(#clip0_1775_3478)">
<path d="M10.4034 20.8067C16.149 20.8067 20.8067 16.149 20.8067 10.4034C20.8067 4.65774 16.149 0 10.4034 0C4.65774 0 0 4.65774 0 10.4034C0 16.149 4.65774 20.8067 10.4034 20.8067Z" fill="url(#paint0_linear_1775_3478)"/>
<path fill-rule="evenodd" clip-rule="evenodd" d="M8.14493 9.47331L10.4014 7.21578L12.6641 9.47851L13.9781 8.16457L10.4014 4.58789L6.82994 8.15832L8.14493 9.47331ZM4.58594 10.4034L5.89988 9.08942L7.21383 10.4034L5.89988 11.7173L4.58594 10.4034ZM8.14493 11.3397L10.4014 13.591L12.6641 11.3282L13.9781 12.6422L10.4014 16.2199L6.82994 12.6484L8.14493 11.3397ZM13.589 10.4034L14.9029 9.08942L16.2179 10.4034L14.9029 11.7173L13.589 10.4034ZM11.7393 10.4034L10.4014 11.735L9.06978 10.4034L9.30178 10.1703L9.4183 10.0549L10.4014 9.07174L11.7393 10.4034Z" fill="white"/>
</g>
<defs>
<linearGradient id="paint0_linear_1775_3478" x1="10.4034" y1="20.8067" x2="10.4034" y2="0" gradientUnits="userSpaceOnUse">
<stop stop-color="#C28900"/>
<stop offset="1" stop-color="#FFCE59"/>
</linearGradient>
<clipPath id="clip0_1775_3478">
<rect width="20.8067" height="20.8067" fill="white"/>
</clipPath>
</defs>
</svg>
