<svg width="20" height="20" viewBox="0 0 20 20" fill="none" xmlns="http://www.w3.org/2000/svg">
<g clip-path="url(#clip0_1775_3500)">
<path d="M10 20C15.5417 20 20 15.5417 20 10C20 4.4583 15.5417 0 10 0C4.4583 0 0 4.4583 0 10C0 15.5417 4.4583 20 10 20Z" fill="#2775CA"/>
<path d="M12.7552 11.584C12.7552 10.1257 11.8802 9.62568 10.1302 9.41738C8.88018 9.25068 8.63018 8.91738 8.63018 8.33398C8.63018 7.75058 9.04688 7.37568 9.88018 7.37568C10.6302 7.37568 11.0469 7.62568 11.2552 8.25068C11.2969 8.37568 11.4219 8.45898 11.5469 8.45898H12.2135C12.3802 8.45898 12.5052 8.33398 12.5052 8.16738V8.12568C12.3385 7.20898 11.5885 6.50068 10.6302 6.41738V5.41738C10.6302 5.25068 10.5052 5.12568 10.2969 5.08398H9.67188C9.50517 5.08398 9.38018 5.20898 9.33848 5.41738V6.37568C8.08848 6.54238 7.29688 7.37568 7.29688 8.41738C7.29688 9.79238 8.13018 10.334 9.88018 10.5424C11.0469 10.7507 11.4219 11.0007 11.4219 11.6674C11.4219 12.3341 10.8385 12.7924 10.0469 12.7924C8.96347 12.7924 8.58848 12.334 8.46348 11.709C8.42188 11.5424 8.29688 11.459 8.17188 11.459H7.46348C7.29688 11.459 7.17188 11.584 7.17188 11.7507V11.7924C7.33847 12.834 8.00518 13.584 9.38018 13.7924V14.7924C9.38018 14.959 9.50518 15.084 9.71348 15.1257H10.3385C10.5052 15.1257 10.6302 15.0007 10.6719 14.7924V13.7924C11.9219 13.584 12.7552 12.709 12.7552 11.584Z" fill="white"/>
<path d="M7.87972 15.9576C4.62972 14.791 2.96302 11.166 4.17142 7.95762C4.79642 6.20762 6.17142 4.87432 7.87972 4.24932C8.04642 4.16602 8.12972 4.04102 8.12972 3.83262V3.24932C8.12972 3.08262 8.04642 2.95762 7.87972 2.91602C7.83802 2.91602 7.75472 2.91602 7.71302 2.95762C3.75472 4.20762 1.58802 8.41602 2.83802 12.3743C3.58802 14.7076 5.37972 16.4993 7.71302 17.2493C7.87972 17.3326 8.04642 17.2493 8.08802 17.0826C8.12972 17.041 8.12972 16.9993 8.12972 16.916V16.3326C8.12972 16.2076 8.00472 16.041 7.87972 15.9576ZM12.2964 2.95762C12.1297 2.87432 11.963 2.95762 11.9214 3.12432C11.8797 3.16602 11.8797 3.20762 11.8797 3.29102V3.87432C11.8797 4.04102 12.0047 4.20762 12.1297 4.29102C15.3797 5.45762 17.0464 9.08262 15.838 12.291C15.213 14.041 13.838 15.3743 12.1297 15.9993C11.963 16.0826 11.8797 16.2076 11.8797 16.416V16.9993C11.8797 17.166 11.963 17.291 12.1297 17.3326C12.1714 17.3326 12.2547 17.3326 12.2964 17.291C16.2547 16.041 18.4214 11.8326 17.1714 7.87432C16.4214 5.49932 14.588 3.70762 12.2964 2.95762Z" fill="white"/>
</g>
<defs>
<clipPath id="clip0_1775_3500">
<rect width="20" height="20" fill="white"/>
</clipPath>
</defs>
</svg>
