<svg width="21" height="22" viewBox="0 0 21 22" fill="none" xmlns="http://www.w3.org/2000/svg">
<path d="M10.1959 21.8067C15.8269 21.8067 20.3918 17.149 20.3918 11.4034C20.3918 5.65774 15.8269 1 10.1959 1C4.56485 1 0 5.65774 0 11.4034C0 17.149 4.56485 21.8067 10.1959 21.8067Z" fill="black"/>
<path d="M7.05869 13.367C7.08637 13.3376 7.11965 13.3143 7.15647 13.2986C7.19329 13.2828 7.23289 13.275 7.27281 13.2754H14.7158C14.7365 13.2765 14.7568 13.2817 14.7756 13.2908C14.7943 13.2999 14.811 13.3128 14.8249 13.3285C14.8387 13.3443 14.8494 13.3627 14.8562 13.3827C14.863 13.4027 14.8659 13.4239 14.8647 13.445C14.863 13.4836 14.8482 13.5203 14.8229 13.549L13.3526 15.0461C13.2958 15.1041 13.2189 15.137 13.1385 15.1376H5.6955C5.66306 15.1403 5.63062 15.1323 5.60297 15.1148C5.57532 15.0972 5.55392 15.0711 5.54193 15.0402C5.52994 15.0093 5.52799 14.9753 5.53636 14.9432C5.54474 14.9111 5.563 14.8826 5.58845 14.8619L7.05869 13.367Z" fill="url(#paint0_linear_1775_3509)"/>
<path d="M7.05915 7.76251C7.11579 7.70409 7.19273 7.67082 7.27326 7.66992H14.7163C14.7462 7.67035 14.7753 7.67973 14.8001 7.69691C14.8249 7.71408 14.8441 7.7383 14.8555 7.76654C14.8669 7.79479 14.8699 7.82582 14.8642 7.85581C14.8585 7.88579 14.8443 7.9134 14.8233 7.93521L13.3531 9.44161C13.2963 9.49965 13.2193 9.53254 13.139 9.53316H5.69596C5.65421 9.53075 5.6151 9.51154 5.58719 9.47976C5.55929 9.44797 5.54487 9.4062 5.5471 9.36359C5.54879 9.32501 5.56356 9.28824 5.5889 9.25955L7.05915 7.76251Z" fill="url(#paint1_linear_1775_3509)"/>
<path d="M13.3531 10.5457C13.3253 10.5164 13.292 10.4931 13.2552 10.4772C13.2185 10.4613 13.1789 10.4531 13.139 10.4531H5.69596C5.65421 10.4555 5.6151 10.4747 5.58719 10.5065C5.55929 10.5383 5.54487 10.5801 5.5471 10.6227C5.54861 10.6613 5.56342 10.6981 5.5889 10.7267L7.05915 12.2196C7.08692 12.2489 7.12019 12.2722 7.15698 12.2881C7.19376 12.304 7.23331 12.3122 7.27326 12.3122H14.7163C14.7462 12.3118 14.7753 12.3024 14.8001 12.2852C14.8249 12.268 14.8441 12.2438 14.8555 12.2156C14.8669 12.1873 14.8699 12.1563 14.8642 12.1263C14.8585 12.0963 14.8443 12.0687 14.8233 12.0469L13.3531 10.5457Z" fill="url(#paint2_linear_1775_3509)"/>
<defs>
<linearGradient id="paint0_linear_1775_3509" x1="10.207" y1="10.4531" x2="10.207" y2="12.3122" gradientUnits="userSpaceOnUse">
<stop stop-color="#28D2BA"/>
<stop offset="0.466346" stop-color="#7686D7"/>
<stop offset="1" stop-color="#AC4DED"/>
</linearGradient>
<linearGradient id="paint1_linear_1775_3509" x1="10.207" y1="10.4531" x2="10.207" y2="12.3122" gradientUnits="userSpaceOnUse">
<stop stop-color="#28D2BA"/>
<stop offset="0.466346" stop-color="#7686D7"/>
<stop offset="1" stop-color="#AC4DED"/>
</linearGradient>
<linearGradient id="paint2_linear_1775_3509" x1="10.207" y1="10.4531" x2="10.207" y2="12.3122" gradientUnits="userSpaceOnUse">
<stop stop-color="#28D2BA"/>
<stop offset="0.466346" stop-color="#7686D7"/>
<stop offset="1" stop-color="#AC4DED"/>
</linearGradient>
</defs>
</svg>
